<svg xmlns="http://www.w3.org/2000/svg" viewBox="0 0 672.72 361.54"><defs><style>.cls-1{fill:#040f1f;}.cls-2{fill:#788496;}.cls-3{fill:#1573ff;}.cls-4{fill:#fff;}.cls-5{fill:none;stroke:#1573ff;stroke-miterlimit:10;}.cls-6{fill:#e7f1fb;}</style></defs><g id="Layer_2" data-name="Layer 2"><g id="Layer_1-2" data-name="Layer 1"><rect class="cls-1" y="191.78" width="92.01" height="52.08" rx="5.9"/><rect class="cls-1" x="385.06" y="74.6" width="64.59" height="52.08" rx="5.9"/><rect class="cls-2" x="377.52" y="74.6" width="64.59" height="52.08" rx="5.9"/><rect class="cls-1" x="385.06" y="152.72" width="64.59" height="52.08" rx="5.9"/><rect class="cls-2" x="377.52" y="152.72" width="64.59" height="52.08" rx="5.9"/><rect class="cls-1" x="385.06" y="230.84" width="64.59" height="52.08" rx="5.9"/><rect class="cls-2" x="377.52" y="230.84" width="64.59" height="52.08" rx="5.9"/><rect class="cls-1" x="385.06" y="308.96" width="64.59" height="52.08" rx="5.9"/><rect class="cls-2" x="377.52" y="308.96" width="64.59" height="52.08" rx="5.9"/><rect class="cls-3" x="327.59" width="145.96" height="37.67" rx="5.9"/><rect class="cls-3" x="207.35" width="109.36" height="37.67" rx="5.9"/><rect class="cls-3" x="87.88" width="109.18" height="37.67" rx="5.9"/><rect class="cls-3" x="13.46" width="64.32" height="37.67" rx="5.9"/><path class="cls-4" d="M33.37,15.81a1.74,1.74,0,0,0-.83-1.34A3.15,3.15,0,0,0,30.76,14a3.5,3.5,0,0,0-1.35.25,2.26,2.26,0,0,0-.9.69,1.65,1.65,0,0,0-.32,1,1.4,1.4,0,0,0,.23.8,1.87,1.87,0,0,0,.57.55,3.61,3.61,0,0,0,.74.36l.71.23,1.18.31a9.9,9.9,0,0,1,1,.33,4.8,4.8,0,0,1,1.07.57,2.92,2.92,0,0,1,.85.93,2.66,2.66,0,0,1,.34,1.38,3.1,3.1,0,0,1-.49,1.7A3.4,3.4,0,0,1,33,24.29a5.21,5.21,0,0,1-2.28.45,5.3,5.3,0,0,1-2.16-.4,3.45,3.45,0,0,1-1.43-1.13,3.2,3.2,0,0,1-.59-1.67H28a1.83,1.83,0,0,0,.45,1.09,2.41,2.41,0,0,0,1,.63,3.88,3.88,0,0,0,1.29.21,3.71,3.71,0,0,0,1.45-.27,2.44,2.44,0,0,0,1-.73,1.75,1.75,0,0,0,.37-1.11,1.35,1.35,0,0,0-.32-.95,2.43,2.43,0,0,0-.85-.59,11,11,0,0,0-1.15-.4L29.78,19a5.25,5.25,0,0,1-2.16-1.12,2.43,2.43,0,0,1-.79-1.9,2.87,2.87,0,0,1,.53-1.71,3.52,3.52,0,0,1,1.43-1.13,5.19,5.19,0,0,1,4,0,3.55,3.55,0,0,1,1.39,1.1,2.73,2.73,0,0,1,.54,1.57Z"/><path class="cls-4" d="M40.69,24.72a4.1,4.1,0,0,1-2.17-.56,3.62,3.62,0,0,1-1.4-1.57,5.25,5.25,0,0,1-.5-2.35,5.35,5.35,0,0,1,.5-2.36,3.8,3.8,0,0,1,1.37-1.61,3.74,3.74,0,0,1,2.07-.57,4.14,4.14,0,0,1,1.34.22,3.38,3.38,0,0,1,1.21.74A3.46,3.46,0,0,1,44,18a5.67,5.67,0,0,1,.33,2.06v.57H37.58V19.47h5.36a3,3,0,0,0-.29-1.32,2.22,2.22,0,0,0-.83-.91,2.29,2.29,0,0,0-1.26-.34,2.37,2.37,0,0,0-1.39.4,2.58,2.58,0,0,0-.89,1A3,3,0,0,0,38,19.67v.78a3.68,3.68,0,0,0,.35,1.67,2.42,2.42,0,0,0,1,1,2.72,2.72,0,0,0,1.42.35,2.93,2.93,0,0,0,1-.15,1.93,1.93,0,0,0,1.22-1.21l1.3.36a2.92,2.92,0,0,1-.69,1.16,3.27,3.27,0,0,1-1.19.77A4.26,4.26,0,0,1,40.69,24.72Z"/><path class="cls-4" d="M50,24.72a4.1,4.1,0,0,1-2.17-.56,3.71,3.71,0,0,1-1.41-1.57,5.39,5.39,0,0,1-.49-2.35,5.5,5.5,0,0,1,.49-2.36,3.89,3.89,0,0,1,1.38-1.61,3.73,3.73,0,0,1,2.06-.57,4.15,4.15,0,0,1,1.35.22,3.47,3.47,0,0,1,1.21.74A3.71,3.71,0,0,1,53.3,18a5.68,5.68,0,0,1,.32,2.06v.57H46.9V19.47h5.36A3,3,0,0,0,52,18.15a2.22,2.22,0,0,0-.83-.91,2.3,2.3,0,0,0-1.27-.34,2.36,2.36,0,0,0-1.38.4,2.51,2.51,0,0,0-.89,1,3,3,0,0,0-.32,1.35v.78a3.68,3.68,0,0,0,.35,1.67,2.4,2.4,0,0,0,.95,1,2.78,2.78,0,0,0,1.43.35,2.93,2.93,0,0,0,1-.15,2.08,2.08,0,0,0,.74-.45,2,2,0,0,0,.48-.76l1.3.36a2.92,2.92,0,0,1-.69,1.16,3.27,3.27,0,0,1-1.19.77A4.3,4.3,0,0,1,50,24.72Z"/><path class="cls-4" d="M59,24.72A3.48,3.48,0,0,1,57,24.17a3.77,3.77,0,0,1-1.31-1.57,5.74,5.74,0,0,1-.47-2.4,5.66,5.66,0,0,1,.47-2.39A3.68,3.68,0,0,1,57,16.25a3.48,3.48,0,0,1,2-.55,2.71,2.71,0,0,1,1.35.28,2.58,2.58,0,0,1,.76.63l.41.59h.11V12.9H63V24.54H61.67V23.2h-.16c-.1.16-.24.35-.42.6a2.44,2.44,0,0,1-.78.64A2.74,2.74,0,0,1,59,24.72Zm.19-1.21a2.2,2.2,0,0,0,1.36-.42,2.66,2.66,0,0,0,.85-1.17,5,5,0,0,0,.29-1.75,4.71,4.71,0,0,0-.29-1.71,2.56,2.56,0,0,0-.84-1.15,2.5,2.5,0,0,0-2.79,0,2.62,2.62,0,0,0-.85,1.17,4.86,4.86,0,0,0-.28,1.66,4.71,4.71,0,0,0,.29,1.69,2.69,2.69,0,0,0,.85,1.21A2.2,2.2,0,0,0,59.15,23.51Z"/><path class="cls-4" d="M101.61,12.9h1.68l3.95,9.66h.14l4-9.66H113V24.54H111.7V15.7h-.11L108,24.54h-1.27L103,15.7h-.11v8.84h-1.32Z"/><path class="cls-4" d="M118.22,24.74a3.5,3.5,0,0,1-1.5-.31,2.49,2.49,0,0,1-1.48-2.37,2.23,2.23,0,0,1,.3-1.22,2.05,2.05,0,0,1,.79-.73,4.17,4.17,0,0,1,1.09-.41c.4-.08.81-.15,1.21-.21l1.29-.15a2,2,0,0,0,.73-.19.49.49,0,0,0,.23-.45v-.05a1.77,1.77,0,0,0-.46-1.31,1.84,1.84,0,0,0-1.38-.46,2.44,2.44,0,0,0-1.51.42,2.41,2.41,0,0,0-.76.9l-1.28-.46a3.13,3.13,0,0,1,.92-1.24,3.19,3.19,0,0,1,1.25-.62A5.19,5.19,0,0,1,119,15.7a5.07,5.07,0,0,1,1,.1,3.17,3.17,0,0,1,1.07.4,2.48,2.48,0,0,1,.85.93,3.39,3.39,0,0,1,.34,1.66v5.75h-1.34V23.36h-.07a2.23,2.23,0,0,1-.45.6,2.55,2.55,0,0,1-.85.55A3.1,3.1,0,0,1,118.22,24.74Zm.21-1.2a2.63,2.63,0,0,0,1.34-.32,2.09,2.09,0,0,0,1.11-1.84V20.15a.82.82,0,0,1-.37.19c-.19.05-.41.1-.66.14l-.72.1-.57.07a5.52,5.52,0,0,0-1,.22,1.68,1.68,0,0,0-.73.45,1.17,1.17,0,0,0-.27.81,1.18,1.18,0,0,0,.52,1.05A2.24,2.24,0,0,0,118.43,23.54Z"/><path class="cls-4" d="M130.86,17.76l-1.21.35a1.93,1.93,0,0,0-.33-.59,1.68,1.68,0,0,0-.59-.48,2.22,2.22,0,0,0-1-.18,2.35,2.35,0,0,0-1.34.36,1.12,1.12,0,0,0-.53.93,1,1,0,0,0,.37.79,2.93,2.93,0,0,0,1.13.48l1.3.32a3.56,3.56,0,0,1,1.74.87,2,2,0,0,1,.58,1.5,2.28,2.28,0,0,1-.43,1.34,3,3,0,0,1-1.2.93,4.28,4.28,0,0,1-1.78.34,3.89,3.89,0,0,1-2.21-.58,2.57,2.57,0,0,1-1.11-1.69l1.27-.32a1.72,1.72,0,0,0,.69,1.05,2.28,2.28,0,0,0,1.34.36,2.55,2.55,0,0,0,1.49-.4,1.17,1.17,0,0,0,.55-1,1,1,0,0,0-.32-.76,2,2,0,0,0-1-.46l-1.46-.34a3.43,3.43,0,0,1-1.76-.89,2.13,2.13,0,0,1-.56-1.5,2.16,2.16,0,0,1,.42-1.31,2.84,2.84,0,0,1,1.14-.89,4,4,0,0,1,1.65-.32,3.31,3.31,0,0,1,2,.56A3.07,3.07,0,0,1,130.86,17.76Z"/><path class="cls-4" d="M136.83,15.81V17h-4.52V15.81Zm-3.2-2.09H135V22a1.72,1.72,0,0,0,.17.85.81.81,0,0,0,.43.37,1.8,1.8,0,0,0,.92.07l.23,0,.27,1.2a2.3,2.3,0,0,1-.38.11,3.44,3.44,0,0,1-.62,0,2.74,2.74,0,0,1-1.11-.24,2.15,2.15,0,0,1-.89-.75,2.09,2.09,0,0,1-.36-1.26Z"/><path class="cls-4" d="M142.43,24.72a4.13,4.13,0,0,1-2.18-.56,3.75,3.75,0,0,1-1.4-1.57,5.25,5.25,0,0,1-.49-2.35,5.35,5.35,0,0,1,.49-2.36,3.94,3.94,0,0,1,1.37-1.61,3.74,3.74,0,0,1,2.07-.57,4.24,4.24,0,0,1,1.35.22,3.56,3.56,0,0,1,1.21.74,3.71,3.71,0,0,1,.87,1.34,5.9,5.9,0,0,1,.32,2.06v.57h-6.73V19.47h5.37a2.85,2.85,0,0,0-.3-1.32,2.15,2.15,0,0,0-.83-.91,2.26,2.26,0,0,0-1.26-.34,2.34,2.34,0,0,0-1.38.4,2.61,2.61,0,0,0-.9,1,3,3,0,0,0-.31,1.35v.78a3.68,3.68,0,0,0,.34,1.67,2.42,2.42,0,0,0,1,1,2.76,2.76,0,0,0,1.43.35,2.83,2.83,0,0,0,.95-.15,1.92,1.92,0,0,0,.74-.45,2.12,2.12,0,0,0,.49-.76l1.29.36a2.79,2.79,0,0,1-.68,1.16,3.31,3.31,0,0,1-1.2.77A4.21,4.21,0,0,1,142.43,24.72Z"/><path class="cls-4" d="M148.09,24.54V15.81h1.29v1.32h.09a2.11,2.11,0,0,1,.87-1.05,2.5,2.5,0,0,1,1.4-.41h.37l.34,0v1.36l-.31,0a2.78,2.78,0,0,0-.51,0,2.44,2.44,0,0,0-1.13.26,2.06,2.06,0,0,0-.79.73,2,2,0,0,0-.28,1.05v5.53Z"/><path class="cls-4" d="M158.72,24.54V12.9h1.41v5.77h.14l5.22-5.77h1.84l-4.88,5.25,4.88,6.39h-1.7l-4-5.41-1.45,1.63v3.78Z"/><path class="cls-4" d="M172,24.72a4.1,4.1,0,0,1-2.17-.56,3.62,3.62,0,0,1-1.4-1.57,5.25,5.25,0,0,1-.49-2.35,5.35,5.35,0,0,1,.49-2.36,3.8,3.8,0,0,1,1.37-1.61,3.74,3.74,0,0,1,2.07-.57,4.14,4.14,0,0,1,1.34.22,3.38,3.38,0,0,1,1.21.74,3.46,3.46,0,0,1,.87,1.34,5.67,5.67,0,0,1,.33,2.06v.57h-6.73V19.47h5.36a2.85,2.85,0,0,0-.29-1.32,2.15,2.15,0,0,0-.83-.91,2.29,2.29,0,0,0-1.26-.34,2.37,2.37,0,0,0-1.39.4,2.66,2.66,0,0,0-.89,1,3,3,0,0,0-.31,1.35v.78a3.68,3.68,0,0,0,.34,1.67,2.42,2.42,0,0,0,1,1,2.75,2.75,0,0,0,1.42.35,2.89,2.89,0,0,0,1-.15,2,2,0,0,0,.74-.45,2.12,2.12,0,0,0,.49-.76l1.29.36a2.81,2.81,0,0,1-.69,1.16,3.27,3.27,0,0,1-1.19.77A4.26,4.26,0,0,1,172,24.72Z"/><path class="cls-4" d="M178.24,27.79a2.71,2.71,0,0,1-.6-.06,1.49,1.49,0,0,1-.37-.1l.34-1.18a2,2,0,0,0,1.22,0c.33-.13.61-.52.85-1.18l.25-.68-3.23-8.77h1.45l2.41,7h.09l2.41-7,1.47,0-3.72,10a3.69,3.69,0,0,1-.62,1.11,2.31,2.31,0,0,1-.85.65A2.6,2.6,0,0,1,178.24,27.79Z"/><path class="cls-4" d="M232.24,16.54h-1.41a2.83,2.83,0,0,0-.43-1.07,3.1,3.1,0,0,0-.75-.78,3.29,3.29,0,0,0-1-.47,3.68,3.68,0,0,0-1.11-.16,3.59,3.59,0,0,0-1.91.53,3.73,3.73,0,0,0-1.36,1.58,5.88,5.88,0,0,0-.5,2.55,5.88,5.88,0,0,0,.5,2.55,3.7,3.7,0,0,0,1.36,1.57,3.51,3.51,0,0,0,1.91.54,3.68,3.68,0,0,0,1.11-.16,3.31,3.31,0,0,0,1-.48,3.23,3.23,0,0,0,.75-.77,2.9,2.9,0,0,0,.43-1.07h1.41a4.56,4.56,0,0,1-.58,1.6,4.27,4.27,0,0,1-1,1.19,4.5,4.5,0,0,1-1.4.75,5.3,5.3,0,0,1-1.66.26,4.81,4.81,0,0,1-4.47-2.8,7.1,7.1,0,0,1-.67-3.18,7.1,7.1,0,0,1,.67-3.18,4.92,4.92,0,0,1,1.82-2.07,4.87,4.87,0,0,1,2.65-.73,5.3,5.3,0,0,1,1.66.26,4.69,4.69,0,0,1,1.4.74,4.46,4.46,0,0,1,1,1.2A4.56,4.56,0,0,1,232.24,16.54Z"/><path class="cls-4" d="M235.67,19.29v5.25h-1.34V12.9h1.34v4.27h.12a2.4,2.4,0,0,1,.92-1.07,3,3,0,0,1,1.65-.4,3.26,3.26,0,0,1,1.56.35,2.44,2.44,0,0,1,1,1.09,4,4,0,0,1,.37,1.85v5.55H240V19.08a2.3,2.3,0,0,0-.53-1.61A2,2,0,0,0,238,16.9a2.42,2.42,0,0,0-1.18.28A2,2,0,0,0,236,18,2.63,2.63,0,0,0,235.67,19.29Z"/><path class="cls-4" d="M244.47,14.36a.92.92,0,0,1-.67-.27.85.85,0,0,1-.29-.64.87.87,0,0,1,.29-.65,1,1,0,0,1,1.34,0,.86.86,0,0,1,.28.65.84.84,0,0,1-.28.64A.92.92,0,0,1,244.47,14.36Zm-.68,10.18V15.81h1.34v8.73Z"/><path class="cls-4" d="M248.92,12.9V24.54h-1.34V12.9Z"/><path class="cls-4" d="M254.67,24.72a3.48,3.48,0,0,1-1.92-.55,3.77,3.77,0,0,1-1.31-1.57,5.74,5.74,0,0,1-.47-2.4,5.66,5.66,0,0,1,.47-2.39,3.68,3.68,0,0,1,1.31-1.56,3.48,3.48,0,0,1,1.95-.55,2.74,2.74,0,0,1,1.35.28,2.58,2.58,0,0,1,.76.63l.41.59h.11V12.9h1.34V24.54h-1.29V23.2h-.16c-.1.16-.24.35-.42.6a2.44,2.44,0,0,1-.78.64A2.74,2.74,0,0,1,254.67,24.72Zm.19-1.21a2.2,2.2,0,0,0,1.36-.42,2.66,2.66,0,0,0,.85-1.17,5,5,0,0,0,.29-1.75,4.71,4.71,0,0,0-.29-1.71,2.56,2.56,0,0,0-.84-1.15,2.5,2.5,0,0,0-2.79,0,2.62,2.62,0,0,0-.85,1.17,4.86,4.86,0,0,0-.28,1.66,4.71,4.71,0,0,0,.29,1.69,2.69,2.69,0,0,0,.85,1.21A2.2,2.2,0,0,0,254.86,23.51Z"/><path class="cls-4" d="M266,24.54V12.9h1.41v5.77h.14l5.22-5.77h1.85l-4.89,5.25,4.89,6.39H272.9l-4-5.41-1.46,1.63v3.78Z"/><path class="cls-4" d="M279.26,24.72a4.1,4.1,0,0,1-2.17-.56,3.69,3.69,0,0,1-1.4-1.57,5.25,5.25,0,0,1-.49-2.35,5.35,5.35,0,0,1,.49-2.36,3.87,3.87,0,0,1,1.37-1.61,3.74,3.74,0,0,1,2.07-.57,4.24,4.24,0,0,1,1.35.22A3.43,3.43,0,0,1,282.55,18a5.67,5.67,0,0,1,.33,2.06v.57h-6.73V19.47h5.36a2.85,2.85,0,0,0-.29-1.32,2.15,2.15,0,0,0-.83-.91,2.29,2.29,0,0,0-1.26-.34,2.37,2.37,0,0,0-1.39.4,2.66,2.66,0,0,0-.89,1,3,3,0,0,0-.31,1.35v.78a3.68,3.68,0,0,0,.34,1.67,2.42,2.42,0,0,0,1,1,2.75,2.75,0,0,0,1.42.35,2.85,2.85,0,0,0,1-.15,2,2,0,0,0,.74-.45,2.12,2.12,0,0,0,.49-.76l1.29.36a2.7,2.7,0,0,1-.69,1.16,3.27,3.27,0,0,1-1.19.77A4.23,4.23,0,0,1,279.26,24.72Z"/><path class="cls-4" d="M285.51,27.79a2.71,2.71,0,0,1-.6-.06,1.64,1.64,0,0,1-.37-.1l.34-1.18a2,2,0,0,0,1.22,0c.33-.13.61-.52.85-1.18l.25-.68L284,15.81h1.45l2.41,7h.09l2.41-7,1.47,0-3.72,10a3.69,3.69,0,0,1-.62,1.11,2.31,2.31,0,0,1-.85.65A2.6,2.6,0,0,1,285.51,27.79Z"/><path class="cls-4" d="M299.75,17.76l-1.2.35a2.46,2.46,0,0,0-.33-.59,1.82,1.82,0,0,0-.6-.48,2.22,2.22,0,0,0-1-.18,2.32,2.32,0,0,0-1.33.36,1.12,1.12,0,0,0-.53.93,1,1,0,0,0,.36.79,3,3,0,0,0,1.14.48l1.29.32a3.59,3.59,0,0,1,1.75.87,2.06,2.06,0,0,1,.57,1.5,2.21,2.21,0,0,1-.43,1.34,2.89,2.89,0,0,1-1.19.93,4.33,4.33,0,0,1-1.79.34,3.91,3.91,0,0,1-2.21-.58,2.61,2.61,0,0,1-1.11-1.69l1.28-.32a1.72,1.72,0,0,0,.69,1.05,2.25,2.25,0,0,0,1.33.36,2.53,2.53,0,0,0,1.49-.4,1.18,1.18,0,0,0,.56-1,1,1,0,0,0-.32-.76,2,2,0,0,0-1-.46l-1.45-.34a3.43,3.43,0,0,1-1.76-.89,2.08,2.08,0,0,1-.56-1.5,2.16,2.16,0,0,1,.42-1.31A2.71,2.71,0,0,1,295,16a3.9,3.9,0,0,1,1.64-.32,3.34,3.34,0,0,1,2,.56A3,3,0,0,1,299.75,17.76Z"/><path class="cls-4" d="M348.52,16.54a3.64,3.64,0,0,0-.49-1,3.2,3.2,0,0,0-.72-.79,3.06,3.06,0,0,0-.95-.49,3.8,3.8,0,0,0-1.15-.17,3.49,3.49,0,0,0-1.88.53A3.64,3.64,0,0,0,342,16.17a5.74,5.74,0,0,0-.5,2.55,5.88,5.88,0,0,0,.5,2.55,3.72,3.72,0,0,0,1.37,1.57,3.8,3.8,0,0,0,3.71.11,3,3,0,0,0,1.19-1.22,3.75,3.75,0,0,0,.43-1.85l.43.09h-3.5V18.72h4.44V20a5,5,0,0,1-.61,2.5,4.17,4.17,0,0,1-1.69,1.64,5,5,0,0,1-2.45.59,5.1,5.1,0,0,1-2.72-.73,4.82,4.82,0,0,1-1.81-2.07,7.11,7.11,0,0,1-.66-3.18,7.75,7.75,0,0,1,.38-2.49,5.63,5.63,0,0,1,1.05-1.88,4.48,4.48,0,0,1,1.61-1.19,5.31,5.31,0,0,1,3.77-.14,4.5,4.5,0,0,1,1.43.78,4.43,4.43,0,0,1,1,1.19,4.73,4.73,0,0,1,.58,1.55Z"/><path class="cls-4" d="M352.27,24.54V15.81h1.3v1.32h.09a2.14,2.14,0,0,1,.86-1.05,2.56,2.56,0,0,1,1.41-.41h.37l.34,0v1.36l-.31,0a2.78,2.78,0,0,0-.51,0,2.41,2.41,0,0,0-1.13.26A2,2,0,0,0,353.61,19v5.53Z"/><path class="cls-4" d="M360.8,24.74a3.52,3.52,0,0,1-1.51-.31,2.5,2.5,0,0,1-1.47-2.37,2.32,2.32,0,0,1,.29-1.22,2.13,2.13,0,0,1,.79-.73,4.24,4.24,0,0,1,1.1-.41q.6-.12,1.2-.21l1.3-.15a2,2,0,0,0,.73-.19.48.48,0,0,0,.22-.45v-.05a1.81,1.81,0,0,0-.45-1.31,1.88,1.88,0,0,0-1.39-.46,2.39,2.39,0,0,0-1.5.42,2.45,2.45,0,0,0-.77.9l-1.27-.46A3.11,3.11,0,0,1,359,16.5a3.26,3.26,0,0,1,1.25-.62,4.94,4.94,0,0,1,2.31-.08,3.12,3.12,0,0,1,1.06.4,2.41,2.41,0,0,1,.85.93,3.39,3.39,0,0,1,.35,1.66v5.75h-1.35V23.36h-.06a2.29,2.29,0,0,1-.46.6,2.5,2.5,0,0,1-.84.55A3.17,3.17,0,0,1,360.8,24.74Zm.2-1.2a2.63,2.63,0,0,0,1.34-.32,2,2,0,0,0,.83-.8,2.06,2.06,0,0,0,.28-1V20.15a.77.77,0,0,1-.37.19c-.19.05-.41.1-.66.14l-.72.1-.56.07a5.64,5.64,0,0,0-1,.22,1.64,1.64,0,0,0-.72.45,1.13,1.13,0,0,0-.28.81,1.18,1.18,0,0,0,.52,1.05A2.28,2.28,0,0,0,361,23.54Z"/><path class="cls-4" d="M368.59,19.29v5.25h-1.34V15.81h1.3v1.36h.11a2.47,2.47,0,0,1,.93-1.07,2.93,2.93,0,0,1,1.61-.4,3.24,3.24,0,0,1,1.56.36,2.48,2.48,0,0,1,1,1.09,4,4,0,0,1,.37,1.84v5.55h-1.34V19.08a2.25,2.25,0,0,0-.54-1.6,1.86,1.86,0,0,0-1.46-.58,2.3,2.3,0,0,0-1.15.28,2,2,0,0,0-.79.81A2.74,2.74,0,0,0,368.59,19.29Z"/><path class="cls-4" d="M379.91,24.72a3.49,3.49,0,0,1-1.93-.55,3.75,3.75,0,0,1-1.3-1.57,5.59,5.59,0,0,1-.48-2.4,5.51,5.51,0,0,1,.48-2.39A3.61,3.61,0,0,1,378,16.25a3.44,3.44,0,0,1,1.94-.55,2.71,2.71,0,0,1,1.35.28,2.46,2.46,0,0,1,.76.63c.18.24.32.44.41.59h.12V12.9h1.34V24.54h-1.3V23.2h-.16a5.8,5.8,0,0,1-.42.6,2.5,2.5,0,0,1-.77.64A2.76,2.76,0,0,1,379.91,24.72Zm.18-1.21a2.18,2.18,0,0,0,1.36-.42,2.51,2.51,0,0,0,.85-1.17,5,5,0,0,0,.29-1.75,4.72,4.72,0,0,0-.28-1.71,2.56,2.56,0,0,0-.84-1.15,2.3,2.3,0,0,0-1.38-.41,2.27,2.27,0,0,0-1.42.44,2.6,2.6,0,0,0-.84,1.17,4.63,4.63,0,0,0-.28,1.66,4.72,4.72,0,0,0,.28,1.69,2.77,2.77,0,0,0,.85,1.21A2.2,2.2,0,0,0,380.09,23.51Z"/><path class="cls-4" d="M390.09,24.72a3.73,3.73,0,0,1-2.11-.58,3.83,3.83,0,0,1-1.37-1.6,5.52,5.52,0,0,1-.47-2.32,5.31,5.31,0,0,1,.49-2.35,3.9,3.9,0,0,1,1.37-1.6,3.74,3.74,0,0,1,2.07-.57,3.88,3.88,0,0,1,1.66.34,3.15,3.15,0,0,1,1.21.95,3,3,0,0,1,.58,1.43h-1.34a2.13,2.13,0,0,0-.68-1.06,2,2,0,0,0-1.41-.46,2.36,2.36,0,0,0-1.37.41,2.69,2.69,0,0,0-.92,1.14,4.33,4.33,0,0,0-.32,1.72,4.32,4.32,0,0,0,.32,1.76,2.69,2.69,0,0,0,.91,1.17,2.3,2.3,0,0,0,1.38.41,2.4,2.4,0,0,0,1-.18A1.93,1.93,0,0,0,392.18,22h1.34a3,3,0,0,1-.56,1.39,3.12,3.12,0,0,1-1.17,1A3.8,3.8,0,0,1,390.09,24.72Z"/><path class="cls-4" d="M396.82,19.29v5.25h-1.34V12.9h1.34v4.27h.11a2.42,2.42,0,0,1,.93-1.07,2.93,2.93,0,0,1,1.64-.4,3.24,3.24,0,0,1,1.56.35,2.46,2.46,0,0,1,1.05,1.09,4.14,4.14,0,0,1,.37,1.85v5.55h-1.34V19.08a2.25,2.25,0,0,0-.54-1.61,1.94,1.94,0,0,0-1.49-.57,2.42,2.42,0,0,0-1.18.28,2,2,0,0,0-.81.81A2.63,2.63,0,0,0,396.82,19.29Z"/><path class="cls-4" d="M405.61,14.36a.94.94,0,0,1-.67-.27.84.84,0,0,1-.28-.64.86.86,0,0,1,.28-.65,1,1,0,0,1,.67-.26,1,1,0,0,1,.68.26.9.9,0,0,1,.28.65.88.88,0,0,1-.28.64A1,1,0,0,1,405.61,14.36Zm-.68,10.18V15.81h1.34v8.73Z"/><path class="cls-4" d="M410.07,12.9V24.54h-1.34V12.9Z"/><path class="cls-4" d="M415.82,24.72a3.49,3.49,0,0,1-1.93-.55,3.75,3.75,0,0,1-1.3-1.57,5.59,5.59,0,0,1-.48-2.4,5.51,5.51,0,0,1,.48-2.39,3.61,3.61,0,0,1,1.31-1.56,3.44,3.44,0,0,1,1.94-.55,2.71,2.71,0,0,1,1.35.28,2.46,2.46,0,0,1,.76.63c.18.24.32.44.41.59h.12V12.9h1.34V24.54h-1.3V23.2h-.16c-.09.16-.24.35-.42.6a2.44,2.44,0,0,1-.78.64A2.7,2.7,0,0,1,415.82,24.72Zm.18-1.21a2.18,2.18,0,0,0,1.36-.42,2.51,2.51,0,0,0,.85-1.17,5,5,0,0,0,.29-1.75,4.72,4.72,0,0,0-.28-1.71,2.51,2.51,0,0,0-.85-1.15,2.5,2.5,0,0,0-2.79,0,2.6,2.6,0,0,0-.84,1.17,4.63,4.63,0,0,0-.29,1.66,4.71,4.71,0,0,0,.29,1.69,2.77,2.77,0,0,0,.85,1.21A2.2,2.2,0,0,0,416,23.51Z"/><path class="cls-4" d="M427.14,24.54V12.9h1.41v5.77h.13l5.23-5.77h1.84l-4.89,5.25,4.89,6.39h-1.7L430,19.13l-1.45,1.63v3.78Z"/><path class="cls-4" d="M440.41,24.72a4.07,4.07,0,0,1-2.17-.56,3.71,3.71,0,0,1-1.41-1.57,5.25,5.25,0,0,1-.49-2.35,5.35,5.35,0,0,1,.49-2.36,3.89,3.89,0,0,1,1.38-1.61,3.7,3.7,0,0,1,2.06-.57,4.15,4.15,0,0,1,1.35.22,3.47,3.47,0,0,1,1.21.74A3.71,3.71,0,0,1,443.7,18a5.9,5.9,0,0,1,.32,2.06v.57h-6.73V19.47h5.37a3,3,0,0,0-.29-1.32,2.27,2.27,0,0,0-2.1-1.25,2.36,2.36,0,0,0-1.38.4,2.61,2.61,0,0,0-.9,1,3.11,3.11,0,0,0-.31,1.35v.78a3.68,3.68,0,0,0,.35,1.67,2.34,2.34,0,0,0,1,1,2.78,2.78,0,0,0,1.43.35,2.93,2.93,0,0,0,1-.15,2.08,2.08,0,0,0,.74-.45,2,2,0,0,0,.48-.76l1.3.36a2.92,2.92,0,0,1-.69,1.16,3.27,3.27,0,0,1-1.19.77A4.3,4.3,0,0,1,440.41,24.72Z"/><path class="cls-4" d="M446.66,27.79a2.8,2.8,0,0,1-.61-.06,1.64,1.64,0,0,1-.37-.1l.34-1.18a2,2,0,0,0,1.22,0c.33-.13.61-.52.85-1.18l.25-.68-3.23-8.77h1.46l2.41,7h.09l2.41-7,1.46,0-3.71,10a4.18,4.18,0,0,1-.62,1.11,2.34,2.34,0,0,1-.86.65A2.56,2.56,0,0,1,446.66,27.79Z"/><path class="cls-4" d="M460.9,17.76l-1.21.35a1.93,1.93,0,0,0-.33-.59,1.78,1.78,0,0,0-.59-.48,2.22,2.22,0,0,0-1-.18,2.35,2.35,0,0,0-1.34.36,1.12,1.12,0,0,0-.53.93.94.94,0,0,0,.37.79,2.93,2.93,0,0,0,1.13.48l1.3.32a3.56,3.56,0,0,1,1.74.87,2,2,0,0,1,.58,1.5,2.28,2.28,0,0,1-.43,1.34,3,3,0,0,1-1.2.93,4.28,4.28,0,0,1-1.78.34,3.89,3.89,0,0,1-2.21-.58,2.54,2.54,0,0,1-1.11-1.69l1.27-.32a1.72,1.72,0,0,0,.69,1.05,2.27,2.27,0,0,0,1.33.36,2.57,2.57,0,0,0,1.5-.4,1.17,1.17,0,0,0,.55-1,1,1,0,0,0-.32-.76,2,2,0,0,0-1-.46l-1.45-.34a3.43,3.43,0,0,1-1.76-.89,2.13,2.13,0,0,1-.56-1.5,2.16,2.16,0,0,1,.42-1.31,2.84,2.84,0,0,1,1.14-.89,3.92,3.92,0,0,1,1.65-.32,3.31,3.31,0,0,1,2,.56A3.07,3.07,0,0,1,460.9,17.76Z"/><rect class="cls-3" x="484.2" width="188.52" height="37.67" rx="5.9"/><path class="cls-4" d="M495.4,24.54V12.9h4.07a4.28,4.28,0,0,1,2,.42,2.76,2.76,0,0,1,1.17,1.12A3.13,3.13,0,0,1,503,16a2.56,2.56,0,0,1-.27,1.24,2,2,0,0,1-.69.77,3,3,0,0,1-.93.42v.12a2.22,2.22,0,0,1,1.08.37,2.76,2.76,0,0,1,.9,1,3.1,3.1,0,0,1,.36,1.56A3.18,3.18,0,0,1,503.1,23a2.76,2.76,0,0,1-1.26,1.11,5.26,5.26,0,0,1-2.23.41ZM496.81,18h2.61a2.6,2.6,0,0,0,1.16-.25,2,2,0,0,0,.81-.7A1.82,1.82,0,0,0,501.7,16a1.77,1.77,0,0,0-.54-1.3,2.29,2.29,0,0,0-1.69-.54h-2.66Zm0,5.28h2.8a2.85,2.85,0,0,0,2-.54,1.7,1.7,0,0,0,.58-1.3,2.12,2.12,0,0,0-.3-1.1,2.22,2.22,0,0,0-.86-.8,2.63,2.63,0,0,0-1.32-.31h-2.86Z"/><path class="cls-4" d="M507,12.9V24.54h-1.34V12.9Z"/><path class="cls-4" d="M512,24.74a3.5,3.5,0,0,1-1.5-.31A2.46,2.46,0,0,1,509,22.06a2.23,2.23,0,0,1,.29-1.22,2.05,2.05,0,0,1,.79-.73,4.31,4.31,0,0,1,1.09-.41c.4-.08.81-.15,1.21-.21l1.29-.15a1.93,1.93,0,0,0,.73-.19.47.47,0,0,0,.23-.45v-.05a1.77,1.77,0,0,0-.46-1.31,1.84,1.84,0,0,0-1.38-.46,2.39,2.39,0,0,0-1.5.42,2.45,2.45,0,0,0-.77.9l-1.27-.46a3,3,0,0,1,.91-1.24,3.26,3.26,0,0,1,1.25-.62,4.94,4.94,0,0,1,2.31-.08,3.2,3.2,0,0,1,1.06.4,2.48,2.48,0,0,1,.85.93,3.39,3.39,0,0,1,.34,1.66v5.75h-1.34V23.36h-.07a2.23,2.23,0,0,1-.45.6,2.45,2.45,0,0,1-.85.55A3.1,3.1,0,0,1,512,24.74Zm.21-1.2a2.63,2.63,0,0,0,1.34-.32,2.09,2.09,0,0,0,1.11-1.84V20.15a.82.82,0,0,1-.37.19c-.19.05-.41.1-.66.14l-.72.1-.57.07a5.73,5.73,0,0,0-1,.22,1.74,1.74,0,0,0-.73.45,1.17,1.17,0,0,0-.27.81,1.18,1.18,0,0,0,.52,1.05A2.24,2.24,0,0,0,512.2,23.54Z"/><path class="cls-4" d="M519.79,19.29v5.25h-1.34V15.81h1.29v1.36h.12a2.47,2.47,0,0,1,.93-1.07,2.91,2.91,0,0,1,1.61-.4,3.2,3.2,0,0,1,1.55.36,2.44,2.44,0,0,1,1,1.09,4,4,0,0,1,.37,1.84v5.55H524V19.08a2.25,2.25,0,0,0-.54-1.6A1.86,1.86,0,0,0,522,16.9a2.3,2.3,0,0,0-1.15.28,2,2,0,0,0-.79.81A2.74,2.74,0,0,0,519.79,19.29Z"/><path class="cls-4" d="M527.81,24.54V12.9h1.34V24.54Zm1.25-3.18,0-1.66h.27l3.82-3.89h1.66l-4.07,4.11h-.11Zm4.3,3.18L530,20.22l.95-.93,4.16,5.25Z"/><path class="cls-4" d="M550.42,12.9V24.54h-1.36l-6.34-9.14h-.11v9.14H541.2V12.9h1.36l6.36,9.16H549V12.9Z"/><path class="cls-4" d="M558.56,21V15.81h1.34v8.73h-1.34V23.06h-.09a2.84,2.84,0,0,1-1,1.13,2.76,2.76,0,0,1-1.64.46,2.93,2.93,0,0,1-1.46-.36,2.53,2.53,0,0,1-1-1.09,4.16,4.16,0,0,1-.36-1.84V15.81h1.34v5.45a2.13,2.13,0,0,0,.54,1.53,1.8,1.8,0,0,0,1.37.57,2.37,2.37,0,0,0,1.9-1A2.46,2.46,0,0,0,558.56,21Z"/><path class="cls-4" d="M563.7,12.9V24.54h-1.34V12.9Z"/><path class="cls-4" d="M567.49,12.9V24.54h-1.34V12.9Z"/><path class="cls-4" d="M570.63,14.36a.92.92,0,0,1-.67-.27.85.85,0,0,1-.29-.64.87.87,0,0,1,.29-.65,1,1,0,0,1,.67-.26,1,1,0,0,1,.67.26.86.86,0,0,1,.28.65.84.84,0,0,1-.28.64A.94.94,0,0,1,570.63,14.36ZM570,24.54V15.81h1.34v8.73Z"/><path class="cls-4" d="M577.63,15.81V17h-4.71V15.81Zm-3.3,8.73V14.61a2.09,2.09,0,0,1,1.27-2,2.86,2.86,0,0,1,1.19-.25,3.48,3.48,0,0,1,.8.07l.47.15-.39,1.16-.28-.08a1.53,1.53,0,0,0-.47-.05,1.2,1.2,0,0,0-.95.33,1.42,1.42,0,0,0-.3,1v9.62Z"/><path class="cls-4" d="M582.81,24.72a4.07,4.07,0,0,1-2.17-.56,3.71,3.71,0,0,1-1.41-1.57,5.39,5.39,0,0,1-.49-2.35,5.5,5.5,0,0,1,.49-2.36,3.89,3.89,0,0,1,1.38-1.61,3.73,3.73,0,0,1,2.06-.57,4.15,4.15,0,0,1,1.35.22,3.47,3.47,0,0,1,1.21.74A3.71,3.71,0,0,1,586.1,18a5.68,5.68,0,0,1,.32,2.06v.57H579.7V19.47h5.36a3,3,0,0,0-.29-1.32,2.22,2.22,0,0,0-.83-.91,2.3,2.3,0,0,0-1.27-.34,2.36,2.36,0,0,0-1.38.4,2.51,2.51,0,0,0-.89,1,3,3,0,0,0-.32,1.35v.78a3.68,3.68,0,0,0,.35,1.67,2.46,2.46,0,0,0,1,1,2.78,2.78,0,0,0,1.43.35,2.93,2.93,0,0,0,1-.15,2.08,2.08,0,0,0,.74-.45,2,2,0,0,0,.48-.76l1.3.36a2.92,2.92,0,0,1-.69,1.16,3.27,3.27,0,0,1-1.19.77A4.3,4.3,0,0,1,582.81,24.72Z"/><path class="cls-4" d="M588.47,24.54V15.81h1.29v1.32h.1a2,2,0,0,1,.86-1.05,2.56,2.56,0,0,1,1.41-.41h.37l.33,0v1.36l-.31,0a2.78,2.78,0,0,0-.51,0,2.44,2.44,0,0,0-1.13.26,2,2,0,0,0-.78.73,2,2,0,0,0-.29,1.05v5.53Z"/><path class="cls-4" d="M602.22,24.7a4.38,4.38,0,0,1-2-.42,3,3,0,0,1-1.72-2.83,2.63,2.63,0,0,1,.31-1.3,4.09,4.09,0,0,1,.85-1,12.74,12.74,0,0,1,1.27-1l1.68-1.25a3.43,3.43,0,0,0,.79-.7,1.45,1.45,0,0,0,.3-1,1.25,1.25,0,0,0-.39-.86,1.32,1.32,0,0,0-1-.41,1.37,1.37,0,0,0-.78.22,1.7,1.7,0,0,0-.53.57,1.4,1.4,0,0,0-.19.71,1.73,1.73,0,0,0,.23.82,5.11,5.11,0,0,0,.57.86l.72.88,5.34,6.53h-1.61l-4.41-5.32-1.11-1.34a6.71,6.71,0,0,1-.8-1.19,2.85,2.85,0,0,1-.29-1.27,2.56,2.56,0,0,1,.35-1.37,2.38,2.38,0,0,1,1-.93,3.18,3.18,0,0,1,1.49-.33,3.08,3.08,0,0,1,1.5.34,2.4,2.4,0,0,1,1,.89,2.23,2.23,0,0,1,.34,1.2,2.5,2.5,0,0,1-.41,1.45,4.69,4.69,0,0,1-1.13,1.14l-2.32,1.73a3.39,3.39,0,0,0-1.06,1.12,2.05,2.05,0,0,0-.28.79,1.9,1.9,0,0,0,.28,1,2.09,2.09,0,0,0,.8.76,2.38,2.38,0,0,0,1.21.29,3.09,3.09,0,0,0,1.29-.28,3.52,3.52,0,0,0,1.13-.81,4,4,0,0,0,.81-1.29,4.49,4.49,0,0,0,.3-1.68H607a5.85,5.85,0,0,1-.26,1.89,4,4,0,0,1-.61,1.15c-.22.27-.4.48-.54.62l-.12.17-.13.17a3.37,3.37,0,0,1-1.42.94A5.08,5.08,0,0,1,602.22,24.7Z"/><path class="cls-4" d="M620.2,15.81a1.8,1.8,0,0,0-.83-1.34,3.19,3.19,0,0,0-1.79-.48,3.53,3.53,0,0,0-1.35.25,2.16,2.16,0,0,0-.89.69,1.6,1.6,0,0,0-.33,1,1.4,1.4,0,0,0,.23.8,1.8,1.8,0,0,0,.58.55,3.38,3.38,0,0,0,.74.36l.7.23,1.19.31c.3.08.64.19,1,.33a4.8,4.8,0,0,1,1.07.57,2.81,2.81,0,0,1,.85.93,2.57,2.57,0,0,1,.34,1.38,3,3,0,0,1-.49,1.7,3.43,3.43,0,0,1-1.43,1.21,6,6,0,0,1-4.45.05,3.45,3.45,0,0,1-1.43-1.13,3.29,3.29,0,0,1-.59-1.67h1.46a1.82,1.82,0,0,0,.44,1.09,2.41,2.41,0,0,0,1,.63,3.88,3.88,0,0,0,1.29.21A3.68,3.68,0,0,0,619,23.2a2.44,2.44,0,0,0,1-.73,1.76,1.76,0,0,0,.38-1.11,1.36,1.36,0,0,0-.33-.95,2.34,2.34,0,0,0-.85-.59,10.1,10.1,0,0,0-1.14-.4L616.61,19a5.25,5.25,0,0,1-2.16-1.12,2.44,2.44,0,0,1-.8-1.9,2.87,2.87,0,0,1,.53-1.71,3.59,3.59,0,0,1,1.43-1.13,4.93,4.93,0,0,1,2-.41,4.86,4.86,0,0,1,2,.4,3.55,3.55,0,0,1,1.39,1.1,2.73,2.73,0,0,1,.54,1.57Z"/><path class="cls-4" d="M627.51,24.72a4.1,4.1,0,0,1-2.17-.56,3.69,3.69,0,0,1-1.4-1.57,5.25,5.25,0,0,1-.49-2.35,5.35,5.35,0,0,1,.49-2.36,3.87,3.87,0,0,1,1.37-1.61,3.74,3.74,0,0,1,2.07-.57,4.24,4.24,0,0,1,1.35.22A3.43,3.43,0,0,1,630.8,18a5.67,5.67,0,0,1,.33,2.06v.57H624.4V19.47h5.36a2.85,2.85,0,0,0-.29-1.32,2.15,2.15,0,0,0-.83-.91,2.29,2.29,0,0,0-1.26-.34,2.37,2.37,0,0,0-1.39.4,2.66,2.66,0,0,0-.89,1,3,3,0,0,0-.31,1.35v.78a3.68,3.68,0,0,0,.34,1.67,2.42,2.42,0,0,0,1,1,2.75,2.75,0,0,0,1.42.35,2.85,2.85,0,0,0,1-.15,2,2,0,0,0,.74-.45,2.12,2.12,0,0,0,.49-.76l1.29.36a2.7,2.7,0,0,1-.69,1.16,3.27,3.27,0,0,1-1.19.77A4.23,4.23,0,0,1,627.51,24.72Z"/><path class="cls-4" d="M636.72,24.72a3.67,3.67,0,0,1-3.48-2.18,5.38,5.38,0,0,1-.48-2.32,5.31,5.31,0,0,1,.5-2.35,3.83,3.83,0,0,1,1.37-1.6,3.74,3.74,0,0,1,2.07-.57,3.91,3.91,0,0,1,1.66.34,3.15,3.15,0,0,1,1.21.95,3,3,0,0,1,.58,1.43h-1.34a2.13,2.13,0,0,0-.68-1.06,2,2,0,0,0-1.41-.46,2.36,2.36,0,0,0-1.37.41,2.69,2.69,0,0,0-.92,1.14,4.16,4.16,0,0,0-.32,1.72,4.32,4.32,0,0,0,.32,1.76,2.62,2.62,0,0,0,.91,1.17,2.3,2.3,0,0,0,1.38.41,2.44,2.44,0,0,0,.95-.18A1.93,1.93,0,0,0,638.81,22h1.34a3,3,0,0,1-.56,1.39,3.16,3.16,0,0,1-1.18,1A3.76,3.76,0,0,1,636.72,24.72Z"/><path class="cls-4" d="M642.11,24.54V15.81h1.29v1.32h.09a2.11,2.11,0,0,1,.87-1.05,2.5,2.5,0,0,1,1.4-.41h.37l.34,0v1.36l-.31,0a2.78,2.78,0,0,0-.51,0,2.44,2.44,0,0,0-1.13.26,2.06,2.06,0,0,0-.79.73,2,2,0,0,0-.28,1.05v5.53Z"/><path class="cls-4" d="M651.45,24.72a4.13,4.13,0,0,1-2.18-.56,3.69,3.69,0,0,1-1.4-1.57,5.25,5.25,0,0,1-.49-2.35,5.35,5.35,0,0,1,.49-2.36,3.94,3.94,0,0,1,1.37-1.61,3.74,3.74,0,0,1,2.07-.57,4.24,4.24,0,0,1,1.35.22,3.56,3.56,0,0,1,1.21.74,3.71,3.71,0,0,1,.87,1.34,5.9,5.9,0,0,1,.32,2.06v.57h-6.73V19.47h5.37a2.85,2.85,0,0,0-.3-1.32,2.19,2.19,0,0,0-.82-.91,2.32,2.32,0,0,0-1.27-.34,2.36,2.36,0,0,0-1.38.4,2.61,2.61,0,0,0-.9,1,3,3,0,0,0-.31,1.35v.78a3.68,3.68,0,0,0,.34,1.67,2.42,2.42,0,0,0,1,1,2.78,2.78,0,0,0,1.43.35,2.83,2.83,0,0,0,.95-.15,2,2,0,0,0,.75-.45,2.25,2.25,0,0,0,.48-.76l1.29.36a2.79,2.79,0,0,1-.68,1.16,3.31,3.31,0,0,1-1.2.77A4.21,4.21,0,0,1,651.45,24.72Z"/><path class="cls-4" d="M660.9,15.81V17h-4.52V15.81Zm-3.2-2.09H659V22a1.61,1.61,0,0,0,.17.85.81.81,0,0,0,.43.37,1.69,1.69,0,0,0,.56.1,1.79,1.79,0,0,0,.36,0l.23,0,.27,1.2a2.64,2.64,0,0,1-.38.11,3.44,3.44,0,0,1-.62,0,2.71,2.71,0,0,1-1.11-.24,2.24,2.24,0,0,1-.9-.75,2.16,2.16,0,0,1-.35-1.26Z"/><path class="cls-4" d="M26,210.83a3,3,0,0,0-1.42-2.29,5.38,5.38,0,0,0-3.05-.82,5.65,5.65,0,0,0-2.3.43,3.53,3.53,0,0,0-1.53,1.17,2.79,2.79,0,0,0-.55,1.7,2.39,2.39,0,0,0,.38,1.36,3.18,3.18,0,0,0,1,.94,6.7,6.7,0,0,0,1.26.62c.44.15.84.28,1.21.38l2,.54c.52.14,1.09.33,1.73.57a8.05,8.05,0,0,1,1.83,1A5.15,5.15,0,0,1,28,218a4.53,4.53,0,0,1,.57,2.36,5.26,5.26,0,0,1-.84,2.91,5.83,5.83,0,0,1-2.45,2.06,9,9,0,0,1-3.89.77,9,9,0,0,1-3.69-.69,5.86,5.86,0,0,1-2.45-1.92,5.41,5.41,0,0,1-1-2.86h2.48a3.07,3.07,0,0,0,.76,1.86,4.07,4.07,0,0,0,1.69,1.08,6.61,6.61,0,0,0,2.21.36,6.25,6.25,0,0,0,2.47-.46,4.22,4.22,0,0,0,1.74-1.26,2.94,2.94,0,0,0,.64-1.89,2.31,2.31,0,0,0-.55-1.61,4,4,0,0,0-1.46-1,14.37,14.37,0,0,0-1.95-.68l-2.44-.7a9.05,9.05,0,0,1-3.69-1.91,4.18,4.18,0,0,1-1.36-3.25,4.79,4.79,0,0,1,.91-2.92,6,6,0,0,1,2.44-1.94,8.32,8.32,0,0,1,3.44-.69,8.25,8.25,0,0,1,3.42.68,6.08,6.08,0,0,1,2.37,1.87,4.75,4.75,0,0,1,.93,2.69Z"/><path class="cls-4" d="M38.5,226a7,7,0,0,1-3.71-.95,6.29,6.29,0,0,1-2.39-2.68,9.08,9.08,0,0,1-.84-4,9.26,9.26,0,0,1,.84-4,6.59,6.59,0,0,1,2.34-2.73,6.31,6.31,0,0,1,3.53-1,7,7,0,0,1,2.3.39,5.72,5.72,0,0,1,2.07,1.26,6.1,6.1,0,0,1,1.48,2.29,9.71,9.71,0,0,1,.56,3.51v1H33.19v-2h9.16a5,5,0,0,0-.5-2.26,3.89,3.89,0,0,0-1.42-1.56,4,4,0,0,0-2.16-.57,4.09,4.09,0,0,0-2.36.67,4.57,4.57,0,0,0-1.53,1.76,5.15,5.15,0,0,0-.53,2.3v1.32a6.34,6.34,0,0,0,.58,2.86,4.23,4.23,0,0,0,1.64,1.78,4.81,4.81,0,0,0,2.43.6,5,5,0,0,0,1.64-.25,3.39,3.39,0,0,0,1.27-.78,3.57,3.57,0,0,0,.82-1.29l2.21.62a4.84,4.84,0,0,1-1.17,2,5.54,5.54,0,0,1-2,1.32A7.59,7.59,0,0,1,38.5,226Z"/><path class="cls-4" d="M54.42,226a7,7,0,0,1-3.71-.95,6.31,6.31,0,0,1-2.4-2.68,9.08,9.08,0,0,1-.84-4,9.26,9.26,0,0,1,.84-4,6.54,6.54,0,0,1,2.35-2.73,6.26,6.26,0,0,1,3.52-1,7,7,0,0,1,2.3.39,5.72,5.72,0,0,1,2.07,1.26A6.11,6.11,0,0,1,60,214.57a10,10,0,0,1,.55,3.51v1H49.1v-2h9.16a5,5,0,0,0-.5-2.26,3.82,3.82,0,0,0-1.42-1.56,4,4,0,0,0-2.16-.57,4.11,4.11,0,0,0-2.36.67,4.57,4.57,0,0,0-1.53,1.76,5.15,5.15,0,0,0-.53,2.3v1.32a6.34,6.34,0,0,0,.59,2.86A4.15,4.15,0,0,0,52,223.38a4.82,4.82,0,0,0,2.44.6,4.94,4.94,0,0,0,1.63-.25,3.39,3.39,0,0,0,1.27-.78,3.57,3.57,0,0,0,.82-1.29l2.22.62a5,5,0,0,1-1.18,2,5.54,5.54,0,0,1-2,1.32A7.49,7.49,0,0,1,54.42,226Z"/><path class="cls-4" d="M69.71,226a5.75,5.75,0,0,1-3.29-.95,6.27,6.27,0,0,1-2.23-2.67,10.73,10.73,0,0,1,0-8.18,6.22,6.22,0,0,1,2.24-2.67,6,6,0,0,1,3.32-.94,4.66,4.66,0,0,1,2.3.48,4.11,4.11,0,0,1,1.3,1.09c.3.4.54.74.71,1h.19v-7.33h2.29v19.87H74.33v-2.29h-.27q-.25.41-.72,1a4.25,4.25,0,0,1-1.33,1.1A4.74,4.74,0,0,1,69.71,226ZM70,224a3.76,3.76,0,0,0,2.33-.72,4.46,4.46,0,0,0,1.44-2,8.21,8.21,0,0,0,.5-3,8,8,0,0,0-.49-2.93,4.32,4.32,0,0,0-1.43-2,4.31,4.31,0,0,0-4.77,0,4.47,4.47,0,0,0-1.45,2,7.94,7.94,0,0,0-.48,2.84,8.21,8.21,0,0,0,.49,2.88,4.61,4.61,0,0,0,1.46,2.06A3.73,3.73,0,0,0,70,224Z"/><rect class="cls-5" x="110.17" y="191.78" width="64.59" height="52.08" rx="5.9"/><path class="cls-1" d="M129,225.73V205.86h2.41v9.86h.23l8.93-9.86h3.14l-8.35,9,8.35,10.91h-2.91l-6.91-9.24-2.48,2.8v6.44Z"/><path class="cls-1" d="M145.71,229.15v-9.94h2v1.67h.08a2.74,2.74,0,0,1,1-1.3,3,3,0,0,1,1.73-.49,2.82,2.82,0,0,1,1.73.52,2.41,2.41,0,0,1,.95,1.39h.12a2.53,2.53,0,0,1,1.08-1.39,3.28,3.28,0,0,1,1.87-.52,2.93,2.93,0,0,1,2.23.89,3.52,3.52,0,0,1,.83,2.49v6.68h-2.06v-6.33a2,2,0,0,0-.5-1.47,1.79,1.79,0,0,0-1.32-.51,1.81,1.81,0,0,0-1.44.59,2.22,2.22,0,0,0-.5,1.47v6.25h-2v-6.37a2,2,0,0,0-.49-1.41,1.74,1.74,0,0,0-1.33-.53,1.84,1.84,0,0,0-1.4.59,2.18,2.18,0,0,0-.54,1.54v6.18Z"/><rect class="cls-6" x="229.6" y="74.6" width="64.59" height="52.08" rx="5.9"/><path class="cls-1" d="M250.68,108.55V88.68h2.4v9.86h.24l8.92-9.86h3.15l-8.35,9,8.35,10.91h-2.91l-6.91-9.24-2.49,2.8v6.44Z"/><path class="cls-1" d="M271.56,112.16a4.36,4.36,0,0,1-4.09-2.47,6.45,6.45,0,0,1,0-5.3,4.35,4.35,0,0,1,4.09-2.48,4.4,4.4,0,0,1,2.9,1,3.67,3.67,0,0,1,1.29,2.57h-2a2.34,2.34,0,0,0-.68-1.33,2,2,0,0,0-1.49-.58,2.29,2.29,0,0,0-1.35.43,3,3,0,0,0-.92,1.2A4.67,4.67,0,0,0,269,107a4.94,4.94,0,0,0,.32,1.85,2.66,2.66,0,0,0,.92,1.21,2.21,2.21,0,0,0,1.36.43A2.31,2.31,0,0,0,273,110a2.09,2.09,0,0,0,.78-1.43h2a3.77,3.77,0,0,1-1.27,2.59A4.28,4.28,0,0,1,271.56,112.16Z"/><rect class="cls-6" x="229.6" y="152.72" width="64.59" height="52.08" rx="5.9"/><rect class="cls-6" x="229.6" y="230.84" width="64.59" height="52.08" rx="5.9"/><rect class="cls-6" x="229.6" y="308.96" width="64.59" height="52.08" rx="5.9"/><rect class="cls-5" x="229.6" y="74.6" width="64.59" height="52.08" rx="5.9"/><rect class="cls-5" x="229.6" y="152.72" width="64.59" height="52.08" rx="5.9"/><rect class="cls-5" x="229.6" y="230.84" width="64.59" height="52.08" rx="5.9"/><rect class="cls-5" x="229.6" y="308.96" width="64.59" height="52.08" rx="5.9"/><rect class="cls-6" x="369.52" y="74.6" width="64.59" height="52.08" rx="5.9"/><rect class="cls-1" x="531.95" y="74.6" width="112.76" height="52.08" rx="5.9"/><rect class="cls-1" x="531.95" y="152.72" width="112.76" height="52.08" rx="5.9"/><rect class="cls-1" x="531.95" y="230.84" width="112.76" height="52.08" rx="5.9"/><rect class="cls-1" x="531.95" y="308.96" width="112.76" height="52.08" rx="5.9"/><path class="cls-1" d="M385.39,108.55V88.68h2.4v9.86H388L397,88.68h3.15l-8.35,9,8.35,10.91h-2.91l-6.91-9.24-2.49,2.8v6.44Z"/><path class="cls-1" d="M406.23,115.85a5.26,5.26,0,0,1-2.86-.7A3,3,0,0,1,402,113.4l1.9-.35a2,2,0,0,0,.84.92,2.94,2.94,0,0,0,1.53.36,2.76,2.76,0,0,0,1.76-.54,2,2,0,0,0,.68-1.71v-2h-.11a2.79,2.79,0,0,1-.59.91,2.87,2.87,0,0,1-1,.66,3.45,3.45,0,0,1-1.37.25,3.79,3.79,0,0,1-2-.55,3.72,3.72,0,0,1-1.44-1.63,6.08,6.08,0,0,1-.53-2.67,6.55,6.55,0,0,1,.53-2.75,4.06,4.06,0,0,1,1.44-1.73,3.52,3.52,0,0,1,2-.61A3,3,0,0,1,408,103a3.33,3.33,0,0,1,.58,1h.11V102h2.06v10.09a3.45,3.45,0,0,1-.58,2,3.5,3.5,0,0,1-1.6,1.26A6.17,6.17,0,0,1,406.23,115.85Zm0-5.59a2.15,2.15,0,0,0,1.82-.87,3.9,3.9,0,0,0,.66-2.39,4.31,4.31,0,0,0-.64-2.45,2.24,2.24,0,0,0-3.19-.52,2.82,2.82,0,0,0-.84,1.23,4.74,4.74,0,0,0-.29,1.74,3.87,3.87,0,0,0,.66,2.37A2.14,2.14,0,0,0,406.23,110.26Z"/><path class="cls-1" d="M417.56,112.16a4.52,4.52,0,0,1-2.46-.66,4.38,4.38,0,0,1-1.62-1.81,6.45,6.45,0,0,1,0-5.3,4.4,4.4,0,0,1,1.62-1.82,4.52,4.52,0,0,1,2.46-.66,4.38,4.38,0,0,1,2.9,1,3.59,3.59,0,0,1,1.29,2.57h-2a2.4,2.4,0,0,0-.68-1.33,2,2,0,0,0-1.5-.58,2.26,2.26,0,0,0-1.34.43,2.88,2.88,0,0,0-.92,1.2A4.49,4.49,0,0,0,415,107a4.74,4.74,0,0,0,.33,1.85,2.65,2.65,0,0,0,.91,1.21,2.21,2.21,0,0,0,1.36.43A2.29,2.29,0,0,0,419,110a2.06,2.06,0,0,0,.79-1.43h2a3.72,3.72,0,0,1-1.26,2.59A4.3,4.3,0,0,1,417.56,112.16Z"/><rect class="cls-2" x="522.26" y="74.6" width="112.76" height="52.08" rx="5.9"/><rect class="cls-2" x="522.26" y="152.72" width="112.76" height="52.08" rx="5.9"/><rect class="cls-2" x="522.26" y="230.84" width="112.76" height="52.08" rx="5.9"/><rect class="cls-2" x="522.26" y="308.96" width="112.76" height="52.08" rx="5.9"/><rect class="cls-3" x="512.22" y="74.6" width="112.76" height="52.08" rx="5.9"/><path class="cls-4" d="M534.36,108.55V88.68h6.94a7.37,7.37,0,0,1,3.43.71,4.83,4.83,0,0,1,2,1.91A5.44,5.44,0,0,1,547.4,94a4.4,4.4,0,0,1-.45,2.11,3.63,3.63,0,0,1-1.19,1.32,5.19,5.19,0,0,1-1.59.72v.19A3.94,3.94,0,0,1,546,99a4.59,4.59,0,0,1,1.54,1.66,5.83,5.83,0,0,1-.06,5.35,4.59,4.59,0,0,1-2.14,1.89,8.85,8.85,0,0,1-3.81.7Zm2.4-11.14h4.47a4.5,4.5,0,0,0,2-.42,3.51,3.51,0,0,0,1.4-1.21,3.24,3.24,0,0,0,.52-1.82,3,3,0,0,0-.92-2.23,3.93,3.93,0,0,0-2.89-.92h-4.54Zm0,9h4.78a4.92,4.92,0,0,0,3.35-.92,2.92,2.92,0,0,0,1-2.23,3.57,3.57,0,0,0-.51-1.86A3.63,3.63,0,0,0,543.9,100a4.56,4.56,0,0,0-2.25-.52h-4.89Z"/><path class="cls-4" d="M553.06,106v6h-2V102h2v1.71h.08a2.82,2.82,0,0,1,1.15-1.34,3.49,3.49,0,0,1,1.84-.49,3.31,3.31,0,0,1,2.47,1,3.71,3.71,0,0,1,1,2.67V112h-2.06v-6.06a2.27,2.27,0,0,0-.59-1.65,2.07,2.07,0,0,0-1.55-.6,2.13,2.13,0,0,0-1.58.63A2.27,2.27,0,0,0,553.06,106Z"/><path class="cls-4" d="M566.26,105.83l-.16,1a20.2,20.2,0,0,1-.5,2.37c-.22.84-.45,1.63-.69,2.38s-.44,1.33-.59,1.77h-1.75c.09-.41.2-1,.33-1.64s.27-1.44.41-2.27.26-1.7.35-2.57l.11-1.09Z"/><path class="cls-4" d="M578.48,108.55V88.68h6.95a7.39,7.39,0,0,1,3.43.71,4.86,4.86,0,0,1,2,1.91,5.44,5.44,0,0,1,.66,2.66,4.4,4.4,0,0,1-.45,2.11,3.52,3.52,0,0,1-1.18,1.32,5.19,5.19,0,0,1-1.59.72v.19a3.94,3.94,0,0,1,1.84.65,4.59,4.59,0,0,1,1.54,1.66,5.83,5.83,0,0,1-.06,5.35,4.64,4.64,0,0,1-2.14,1.89,8.87,8.87,0,0,1-3.82.7Zm2.41-11.14h4.46a4.52,4.52,0,0,0,2-.42,3.48,3.48,0,0,0,1.39-1.21,3.16,3.16,0,0,0,.52-1.82,3,3,0,0,0-.91-2.23,4,4,0,0,0-2.89-.92h-4.54Zm0,9h4.77a4.93,4.93,0,0,0,3.36-.92,2.92,2.92,0,0,0,1-2.23,3.57,3.57,0,0,0-.51-1.86A3.76,3.76,0,0,0,588,100a4.56,4.56,0,0,0-2.25-.52h-4.89Z"/><path class="cls-4" d="M602.7,104.63l-1.9.16a1.91,1.91,0,0,0-.61-1,1.94,1.94,0,0,0-1.33-.4,2.42,2.42,0,0,0-1.31.35,1.1,1.1,0,0,0-.55,1,1,1,0,0,0,.36.78,2.57,2.57,0,0,0,1.15.5l1.71.39a3.87,3.87,0,0,1,2,1,2.31,2.31,0,0,1,.67,1.67,2.6,2.6,0,0,1-.54,1.63,3.48,3.48,0,0,1-1.46,1.08,5.45,5.45,0,0,1-2.12.39,4.74,4.74,0,0,1-2.83-.77,3,3,0,0,1-1.28-2.1l2-.16a1.73,1.73,0,0,0,.69,1.1,2.37,2.37,0,0,0,1.4.38,2.6,2.6,0,0,0,1.45-.38,1.11,1.11,0,0,0,.57-1,1.06,1.06,0,0,0-.33-.77,2.33,2.33,0,0,0-1.14-.51l-1.67-.35a3.73,3.73,0,0,1-2-1,2.52,2.52,0,0,1-.65-1.76A2.55,2.55,0,0,1,596,102.7a4.6,4.6,0,0,1,2.78-.79,4.4,4.4,0,0,1,2.65.72A3,3,0,0,1,602.7,104.63Z"/><rect class="cls-3" x="512.22" y="152.72" width="112.76" height="52.08" rx="5.9"/><path class="cls-4" d="M534.36,186.67V166.8h6.94a7.37,7.37,0,0,1,3.43.71,4.77,4.77,0,0,1,2,1.91,5.44,5.44,0,0,1,.66,2.66,4.4,4.4,0,0,1-.45,2.11,3.63,3.63,0,0,1-1.19,1.32,5.44,5.44,0,0,1-1.59.72v.19a4,4,0,0,1,1.84.64,4.7,4.7,0,0,1,1.54,1.67,5.83,5.83,0,0,1-.06,5.35,4.59,4.59,0,0,1-2.14,1.89,8.85,8.85,0,0,1-3.81.7Zm2.4-11.14h4.47a4.37,4.37,0,0,0,2-.43,3.41,3.41,0,0,0,1.4-1.2,3.24,3.24,0,0,0,.52-1.82,3,3,0,0,0-.92-2.23,3.93,3.93,0,0,0-2.89-.92h-4.54Zm0,9h4.78a4.92,4.92,0,0,0,3.35-.92,2.93,2.93,0,0,0,1-2.23,3.63,3.63,0,0,0-.51-1.87,3.68,3.68,0,0,0-1.47-1.37,4.56,4.56,0,0,0-2.25-.52h-4.89Z"/><path class="cls-4" d="M553.06,184.11v6h-2v-9.94h2v1.71h.08a2.78,2.78,0,0,1,1.15-1.34,3.49,3.49,0,0,1,1.84-.49,3.31,3.31,0,0,1,2.47,1,3.71,3.71,0,0,1,1,2.67v6.41h-2.06V184a2.27,2.27,0,0,0-.59-1.65,2.07,2.07,0,0,0-1.55-.6,2.13,2.13,0,0,0-1.58.63A2.27,2.27,0,0,0,553.06,184.11Z"/><path class="cls-4" d="M566.26,184,566.1,185a20.2,20.2,0,0,1-.5,2.37c-.22.84-.45,1.63-.69,2.38s-.44,1.33-.59,1.77h-1.75c.09-.41.2-1,.33-1.64s.27-1.44.41-2.27.26-1.7.35-2.57l.11-1.09Z"/><path class="cls-4" d="M578.48,186.67V166.8h6.95a7.39,7.39,0,0,1,3.43.71,4.8,4.8,0,0,1,2,1.91,5.44,5.44,0,0,1,.66,2.66,4.4,4.4,0,0,1-.45,2.11,3.52,3.52,0,0,1-1.18,1.32,5.44,5.44,0,0,1-1.59.72v.19a4,4,0,0,1,1.84.64,4.7,4.7,0,0,1,1.54,1.67,5.83,5.83,0,0,1-.06,5.35,4.64,4.64,0,0,1-2.14,1.89,8.87,8.87,0,0,1-3.82.7Zm2.41-11.14h4.46a4.38,4.38,0,0,0,2-.43,3.38,3.38,0,0,0,1.39-1.2,3.16,3.16,0,0,0,.52-1.82,3,3,0,0,0-.91-2.23,4,4,0,0,0-2.89-.92h-4.54Zm0,9h4.77a4.93,4.93,0,0,0,3.36-.92,2.93,2.93,0,0,0,1-2.23,3.63,3.63,0,0,0-.51-1.87,3.81,3.81,0,0,0-1.47-1.37,4.56,4.56,0,0,0-2.25-.52h-4.89Z"/><path class="cls-4" d="M602.7,182.75l-1.9.16a1.91,1.91,0,0,0-.61-1,1.94,1.94,0,0,0-1.33-.4,2.42,2.42,0,0,0-1.31.35,1.1,1.1,0,0,0-.55,1,1,1,0,0,0,.36.78,2.57,2.57,0,0,0,1.15.5l1.71.39a3.87,3.87,0,0,1,2,1,2.29,2.29,0,0,1,.67,1.66,2.56,2.56,0,0,1-.54,1.63,3.41,3.41,0,0,1-1.46,1.09,5.45,5.45,0,0,1-2.12.39,4.81,4.81,0,0,1-2.83-.77,3,3,0,0,1-1.28-2.1l2-.16a1.76,1.76,0,0,0,.69,1.1,2.37,2.37,0,0,0,1.4.38,2.6,2.6,0,0,0,1.45-.38,1.12,1.12,0,0,0,.57-1,1.06,1.06,0,0,0-.33-.77,2.17,2.17,0,0,0-1.14-.51l-1.67-.35a3.8,3.8,0,0,1-2-1A2.52,2.52,0,0,1,595,183a2.55,2.55,0,0,1,1.06-2.16,4.6,4.6,0,0,1,2.78-.79,4.4,4.4,0,0,1,2.65.72A3,3,0,0,1,602.7,182.75Z"/><rect class="cls-3" x="512.22" y="230.84" width="112.76" height="52.08" rx="5.9"/><path class="cls-4" d="M534.36,264.79V244.92h6.94a7.37,7.37,0,0,1,3.43.71,4.77,4.77,0,0,1,2,1.91,5.44,5.44,0,0,1,.66,2.66,4.4,4.4,0,0,1-.45,2.11,3.63,3.63,0,0,1-1.19,1.32,5.71,5.71,0,0,1-1.59.72v.19a4,4,0,0,1,1.84.64,4.7,4.7,0,0,1,1.54,1.67,5.83,5.83,0,0,1-.06,5.35,4.65,4.65,0,0,1-2.14,1.89,8.85,8.85,0,0,1-3.81.7Zm2.4-11.14h4.47a4.37,4.37,0,0,0,2-.43,3.41,3.41,0,0,0,1.4-1.2,3.24,3.24,0,0,0,.52-1.82,3,3,0,0,0-.92-2.23,3.93,3.93,0,0,0-2.89-.92h-4.54Zm0,9h4.78a4.92,4.92,0,0,0,3.35-.92,2.93,2.93,0,0,0,1-2.23,3.63,3.63,0,0,0-.51-1.87,3.68,3.68,0,0,0-1.47-1.37,4.56,4.56,0,0,0-2.25-.52h-4.89Z"/><path class="cls-4" d="M553.06,262.23v6h-2v-9.94h2V260h.08a2.78,2.78,0,0,1,1.15-1.34,3.49,3.49,0,0,1,1.84-.49,3.31,3.31,0,0,1,2.47,1,3.71,3.71,0,0,1,1,2.67v6.41h-2.06v-6.06a2.27,2.27,0,0,0-.59-1.65,2.07,2.07,0,0,0-1.55-.6,2.13,2.13,0,0,0-1.58.63A2.27,2.27,0,0,0,553.06,262.23Z"/><path class="cls-4" d="M566.26,262.07l-.16,1.05a20.2,20.2,0,0,1-.5,2.37c-.22.84-.45,1.63-.69,2.38s-.44,1.33-.59,1.77h-1.75c.09-.41.2-1,.33-1.64s.27-1.44.41-2.27.26-1.7.35-2.57l.11-1.09Z"/><path class="cls-4" d="M578.48,264.79V244.92h6.95a7.39,7.39,0,0,1,3.43.71,4.8,4.8,0,0,1,2,1.91,5.44,5.44,0,0,1,.66,2.66,4.4,4.4,0,0,1-.45,2.11,3.52,3.52,0,0,1-1.18,1.32,5.71,5.71,0,0,1-1.59.72v.19a4,4,0,0,1,1.84.64,4.7,4.7,0,0,1,1.54,1.67,5.83,5.83,0,0,1-.06,5.35,4.7,4.7,0,0,1-2.14,1.89,8.87,8.87,0,0,1-3.82.7Zm2.41-11.14h4.46a4.38,4.38,0,0,0,2-.43,3.38,3.38,0,0,0,1.39-1.2,3.16,3.16,0,0,0,.52-1.82,3,3,0,0,0-.91-2.23,4,4,0,0,0-2.89-.92h-4.54Zm0,9h4.77a4.93,4.93,0,0,0,3.36-.92,2.93,2.93,0,0,0,1-2.23,3.63,3.63,0,0,0-.51-1.87,3.81,3.81,0,0,0-1.47-1.37,4.56,4.56,0,0,0-2.25-.52h-4.89Z"/><path class="cls-4" d="M602.7,260.87l-1.9.16a1.91,1.91,0,0,0-.61-1,1.94,1.94,0,0,0-1.33-.4,2.33,2.33,0,0,0-1.31.35,1.1,1.1,0,0,0-.55,1,1,1,0,0,0,.36.78,2.57,2.57,0,0,0,1.15.5l1.71.39a3.87,3.87,0,0,1,2,1,2.29,2.29,0,0,1,.67,1.66,2.56,2.56,0,0,1-.54,1.63A3.41,3.41,0,0,1,600.9,268a5.45,5.45,0,0,1-2.12.39,4.81,4.81,0,0,1-2.83-.77,3,3,0,0,1-1.28-2.1l2-.16a1.76,1.76,0,0,0,.69,1.1,2.37,2.37,0,0,0,1.4.38,2.6,2.6,0,0,0,1.45-.38,1.12,1.12,0,0,0,.57-1,1.06,1.06,0,0,0-.33-.77,2.17,2.17,0,0,0-1.14-.51l-1.67-.35a3.8,3.8,0,0,1-2-1,2.52,2.52,0,0,1-.65-1.76,2.55,2.55,0,0,1,1.06-2.16,4.6,4.6,0,0,1,2.78-.79,4.4,4.4,0,0,1,2.65.72A3,3,0,0,1,602.7,260.87Z"/><rect class="cls-3" x="512.22" y="308.96" width="112.76" height="52.08" rx="5.9"/><path class="cls-4" d="M534.36,342.91V323h6.94a7.37,7.37,0,0,1,3.43.71,4.77,4.77,0,0,1,2,1.91,5.44,5.44,0,0,1,.66,2.66,4.4,4.4,0,0,1-.45,2.11,3.63,3.63,0,0,1-1.19,1.32,5.71,5.71,0,0,1-1.59.72v.19a4,4,0,0,1,1.84.64,4.7,4.7,0,0,1,1.54,1.67,5.83,5.83,0,0,1-.06,5.35,4.7,4.7,0,0,1-2.14,1.89,8.85,8.85,0,0,1-3.81.7Zm2.4-11.14h4.47a4.37,4.37,0,0,0,2-.43,3.41,3.41,0,0,0,1.4-1.2,3.26,3.26,0,0,0,.52-1.82,3,3,0,0,0-.92-2.23,3.93,3.93,0,0,0-2.89-.92h-4.54Zm0,9h4.78a4.92,4.92,0,0,0,3.35-.91,2.93,2.93,0,0,0,1-2.23,3.63,3.63,0,0,0-.51-1.87,3.68,3.68,0,0,0-1.47-1.37,4.56,4.56,0,0,0-2.25-.52h-4.89Z"/><path class="cls-4" d="M553.06,340.35v6h-2v-9.93h2v1.71h.08a2.78,2.78,0,0,1,1.15-1.34,3.49,3.49,0,0,1,1.84-.49,3.31,3.31,0,0,1,2.47,1,3.71,3.71,0,0,1,1,2.67v6.4h-2.06v-6.05a2.27,2.27,0,0,0-.59-1.65,2.07,2.07,0,0,0-1.55-.6,2.16,2.16,0,0,0-1.58.62A2.31,2.31,0,0,0,553.06,340.35Z"/><path class="cls-4" d="M566.26,340.19l-.16,1.05a20.2,20.2,0,0,1-.5,2.37c-.22.84-.45,1.63-.69,2.38s-.44,1.33-.59,1.77h-1.75c.09-.41.2-1,.33-1.64s.27-1.44.41-2.27.26-1.7.35-2.57l.11-1.09Z"/><path class="cls-4" d="M578.48,342.91V323h6.95a7.39,7.39,0,0,1,3.43.71,4.8,4.8,0,0,1,2,1.91,5.44,5.44,0,0,1,.66,2.66,4.4,4.4,0,0,1-.45,2.11,3.52,3.52,0,0,1-1.18,1.32,5.71,5.71,0,0,1-1.59.72v.19a4,4,0,0,1,1.84.64,4.7,4.7,0,0,1,1.54,1.67,5.83,5.83,0,0,1-.06,5.35,4.75,4.75,0,0,1-2.14,1.89,8.87,8.87,0,0,1-3.82.7Zm2.41-11.14h4.46a4.38,4.38,0,0,0,2-.43,3.38,3.38,0,0,0,1.39-1.2,3.19,3.19,0,0,0,.52-1.82,3,3,0,0,0-.91-2.23,4,4,0,0,0-2.89-.92h-4.54Zm0,9h4.77a4.93,4.93,0,0,0,3.36-.91,2.93,2.93,0,0,0,1-2.23,3.63,3.63,0,0,0-.51-1.87,3.81,3.81,0,0,0-1.47-1.37,4.56,4.56,0,0,0-2.25-.52h-4.89Z"/><path class="cls-4" d="M602.7,339l-1.9.15a1.82,1.82,0,0,0-1.94-1.35,2.33,2.33,0,0,0-1.31.35,1.1,1.1,0,0,0-.55,1,1,1,0,0,0,.36.78,2.57,2.57,0,0,0,1.15.5l1.71.38a4,4,0,0,1,2,1,2.33,2.33,0,0,1,.67,1.67,2.58,2.58,0,0,1-.54,1.63,3.41,3.41,0,0,1-1.46,1.09,5.45,5.45,0,0,1-2.12.39,4.81,4.81,0,0,1-2.83-.77,3,3,0,0,1-1.28-2.1l2-.16a1.76,1.76,0,0,0,.69,1.1,2.37,2.37,0,0,0,1.4.38,2.6,2.6,0,0,0,1.45-.38,1.12,1.12,0,0,0,.57-1,1.06,1.06,0,0,0-.33-.77,2.17,2.17,0,0,0-1.14-.51l-1.67-.35a3.8,3.8,0,0,1-2-1,2.52,2.52,0,0,1-.65-1.76,2.55,2.55,0,0,1,1.06-2.16,4.6,4.6,0,0,1,2.78-.79,4.4,4.4,0,0,1,2.65.72A3,3,0,0,1,602.7,339Z"/><rect class="cls-6" x="369.52" y="152.72" width="64.59" height="52.08" rx="5.9"/><rect class="cls-6" x="369.52" y="230.84" width="64.59" height="52.08" rx="5.9"/><rect class="cls-6" x="369.52" y="308.96" width="64.59" height="52.08" rx="5.9"/><rect class="cls-5" x="369.52" y="74.6" width="64.59" height="52.08" rx="5.9"/><rect class="cls-5" x="369.52" y="152.72" width="64.59" height="52.08" rx="5.9"/><rect class="cls-5" x="369.52" y="230.84" width="64.59" height="52.08" rx="5.9"/><rect class="cls-5" x="369.52" y="308.96" width="64.59" height="52.08" rx="5.9"/><path class="cls-1" d="M250.68,186.67V166.8h2.4v9.86h.24l8.92-9.86h3.15l-8.35,9,8.35,10.91h-2.91l-6.91-9.24-2.49,2.8v6.44Z"/><path class="cls-1" d="M271.56,190.28a4.36,4.36,0,0,1-4.09-2.47,6.45,6.45,0,0,1,0-5.3,4.35,4.35,0,0,1,4.09-2.48,4.4,4.4,0,0,1,2.9,1,3.67,3.67,0,0,1,1.29,2.57h-2a2.34,2.34,0,0,0-.68-1.33,2,2,0,0,0-1.49-.58,2.29,2.29,0,0,0-1.35.43,3,3,0,0,0-.92,1.2,4.67,4.67,0,0,0-.33,1.83,4.94,4.94,0,0,0,.32,1.85,2.72,2.72,0,0,0,.92,1.21,2.21,2.21,0,0,0,1.36.43,2.31,2.31,0,0,0,1.39-.47,2.09,2.09,0,0,0,.78-1.43h2a3.73,3.73,0,0,1-1.27,2.58A4.23,4.23,0,0,1,271.56,190.28Z"/><path class="cls-1" d="M250.68,264.79V244.92h2.4v9.86h.24l8.92-9.86h3.15l-8.35,9,8.35,10.91h-2.91l-6.91-9.24-2.49,2.8v6.44Z"/><path class="cls-1" d="M271.56,268.4a4.36,4.36,0,0,1-4.09-2.47,6.45,6.45,0,0,1,0-5.3,4.35,4.35,0,0,1,4.09-2.48,4.34,4.34,0,0,1,2.9,1,3.66,3.66,0,0,1,1.29,2.56h-2a2.34,2.34,0,0,0-.68-1.32,2,2,0,0,0-1.49-.58,2.29,2.29,0,0,0-1.35.43,2.9,2.9,0,0,0-.92,1.2,4.67,4.67,0,0,0-.33,1.83,4.94,4.94,0,0,0,.32,1.85,2.72,2.72,0,0,0,.92,1.21,2.21,2.21,0,0,0,1.36.43,2.31,2.31,0,0,0,1.39-.47,2.09,2.09,0,0,0,.78-1.43h2a3.73,3.73,0,0,1-1.27,2.58A4.23,4.23,0,0,1,271.56,268.4Z"/><path class="cls-1" d="M250.68,342.91V323h2.4v9.86h.24l8.92-9.86h3.15L257,332l8.35,10.91h-2.91l-6.91-9.24-2.49,2.8v6.44Z"/><path class="cls-1" d="M271.56,346.52a4.36,4.36,0,0,1-4.09-2.47,6.45,6.45,0,0,1,0-5.3,4.35,4.35,0,0,1,4.09-2.48,4.34,4.34,0,0,1,2.9,1,3.66,3.66,0,0,1,1.29,2.56h-2a2.34,2.34,0,0,0-.68-1.32,2,2,0,0,0-1.49-.58,2.29,2.29,0,0,0-1.35.43,2.9,2.9,0,0,0-.92,1.2,4.67,4.67,0,0,0-.33,1.83,4.94,4.94,0,0,0,.32,1.85,2.72,2.72,0,0,0,.92,1.21,2.21,2.21,0,0,0,1.36.43,2.31,2.31,0,0,0,1.39-.47,2.09,2.09,0,0,0,.78-1.43h2a3.73,3.73,0,0,1-1.27,2.58A4.23,4.23,0,0,1,271.56,346.52Z"/><path class="cls-1" d="M385.39,186.67V166.8h2.4v9.86H388L397,166.8h3.15l-8.35,9,8.35,10.91h-2.91l-6.91-9.24-2.49,2.8v6.44Z"/><path class="cls-1" d="M406.23,194a5.26,5.26,0,0,1-2.86-.7,3,3,0,0,1-1.37-1.75l1.9-.35a2,2,0,0,0,.84.92,2.94,2.94,0,0,0,1.53.36,2.76,2.76,0,0,0,1.76-.54,2,2,0,0,0,.68-1.71v-2.06h-.11a2.73,2.73,0,0,1-.59.92,2.87,2.87,0,0,1-1,.66,3.45,3.45,0,0,1-1.37.25,3.79,3.79,0,0,1-2-.55,3.72,3.72,0,0,1-1.44-1.63,6.08,6.08,0,0,1-.53-2.67,6.52,6.52,0,0,1,.53-2.75,4.09,4.09,0,0,1,1.44-1.74,3.58,3.58,0,0,1,2-.6,3,3,0,0,1,2.37,1.06,3.33,3.33,0,0,1,.58,1h.11v-1.9h2.06v10.09a3.35,3.35,0,0,1-2.18,3.3A6,6,0,0,1,406.23,194Zm0-5.59a2.13,2.13,0,0,0,1.82-.88,3.85,3.85,0,0,0,.66-2.38,4.31,4.31,0,0,0-.64-2.45,2.24,2.24,0,0,0-3.19-.52,2.76,2.76,0,0,0-.84,1.23,4.74,4.74,0,0,0-.29,1.74,3.87,3.87,0,0,0,.66,2.37A2.14,2.14,0,0,0,406.23,188.38Z"/><path class="cls-1" d="M417.56,190.28a4.52,4.52,0,0,1-2.46-.66,4.44,4.44,0,0,1-1.62-1.81,6.45,6.45,0,0,1,0-5.3,4.4,4.4,0,0,1,1.62-1.82,4.52,4.52,0,0,1,2.46-.66,4.38,4.38,0,0,1,2.9,1,3.59,3.59,0,0,1,1.29,2.57h-2a2.4,2.4,0,0,0-.68-1.33,2,2,0,0,0-1.5-.58,2.26,2.26,0,0,0-1.34.43,2.88,2.88,0,0,0-.92,1.2,4.49,4.49,0,0,0-.34,1.83,4.74,4.74,0,0,0,.33,1.85,2.7,2.7,0,0,0,.91,1.21,2.21,2.21,0,0,0,1.36.43,2.29,2.29,0,0,0,1.39-.47,2.06,2.06,0,0,0,.79-1.43h2a3.68,3.68,0,0,1-1.26,2.58A4.26,4.26,0,0,1,417.56,190.28Z"/><path class="cls-1" d="M385.39,264.79V244.92h2.4v9.86H388l8.92-9.86h3.15l-8.35,9,8.35,10.91h-2.91l-6.91-9.24-2.49,2.8v6.44Z"/><path class="cls-1" d="M406.23,272.09a5.26,5.26,0,0,1-2.86-.7,3,3,0,0,1-1.37-1.75l1.9-.35a2,2,0,0,0,.84.92,2.94,2.94,0,0,0,1.53.36A2.76,2.76,0,0,0,408,270a2,2,0,0,0,.68-1.71v-2.06h-.11a2.73,2.73,0,0,1-.59.92,2.87,2.87,0,0,1-1,.66,3.45,3.45,0,0,1-1.37.25,3.79,3.79,0,0,1-2-.55,3.72,3.72,0,0,1-1.44-1.63,6.08,6.08,0,0,1-.53-2.67,6.52,6.52,0,0,1,.53-2.75,4.09,4.09,0,0,1,1.44-1.74,3.58,3.58,0,0,1,2-.6,3,3,0,0,1,2.37,1.06,3.2,3.2,0,0,1,.58,1h.11v-1.9h2.06v10.09a3.35,3.35,0,0,1-2.18,3.3A6,6,0,0,1,406.23,272.09Zm0-5.59a2.13,2.13,0,0,0,1.82-.88,3.85,3.85,0,0,0,.66-2.38,4.31,4.31,0,0,0-.64-2.45,2.24,2.24,0,0,0-3.19-.52,2.76,2.76,0,0,0-.84,1.23,4.74,4.74,0,0,0-.29,1.74,3.87,3.87,0,0,0,.66,2.37A2.14,2.14,0,0,0,406.23,266.5Z"/><path class="cls-1" d="M417.56,268.4a4.52,4.52,0,0,1-2.46-.66,4.44,4.44,0,0,1-1.62-1.81,6.45,6.45,0,0,1,0-5.3,4.4,4.4,0,0,1,1.62-1.82,4.52,4.52,0,0,1,2.46-.66,4.33,4.33,0,0,1,2.9,1,3.59,3.59,0,0,1,1.29,2.56h-2a2.41,2.41,0,0,0-.68-1.32,2,2,0,0,0-1.5-.58,2.26,2.26,0,0,0-1.34.43,2.82,2.82,0,0,0-.92,1.2,4.49,4.49,0,0,0-.34,1.83,4.74,4.74,0,0,0,.33,1.85,2.7,2.7,0,0,0,.91,1.21,2.21,2.21,0,0,0,1.36.43,2.29,2.29,0,0,0,1.39-.47,2.06,2.06,0,0,0,.79-1.43h2a3.68,3.68,0,0,1-1.26,2.58A4.26,4.26,0,0,1,417.56,268.4Z"/><path class="cls-1" d="M385.39,342.91V323h2.4v9.86H388L397,323h3.15l-8.35,9,8.35,10.91h-2.91l-6.91-9.24-2.49,2.8v6.44Z"/><path class="cls-1" d="M406.23,350.21a5.26,5.26,0,0,1-2.86-.7,3,3,0,0,1-1.37-1.75l1.9-.35a2,2,0,0,0,.84.92,2.94,2.94,0,0,0,1.53.36,2.76,2.76,0,0,0,1.76-.54,2,2,0,0,0,.68-1.71v-2.06h-.11a2.73,2.73,0,0,1-.59.92,2.87,2.87,0,0,1-1,.66,3.45,3.45,0,0,1-1.37.25,3.79,3.79,0,0,1-2-.55,3.72,3.72,0,0,1-1.44-1.63,6.08,6.08,0,0,1-.53-2.67,6.52,6.52,0,0,1,.53-2.75,4.09,4.09,0,0,1,1.44-1.74,3.58,3.58,0,0,1,2-.6,3,3,0,0,1,2.37,1.06,3.2,3.2,0,0,1,.58,1h.11v-1.9h2.06v10.09a3.35,3.35,0,0,1-2.18,3.3A6,6,0,0,1,406.23,350.21Zm0-5.59a2.13,2.13,0,0,0,1.82-.88,3.85,3.85,0,0,0,.66-2.38,4.31,4.31,0,0,0-.64-2.45,2.24,2.24,0,0,0-3.19-.52,2.76,2.76,0,0,0-.84,1.23,4.74,4.74,0,0,0-.29,1.74,3.87,3.87,0,0,0,.66,2.37A2.14,2.14,0,0,0,406.23,344.62Z"/><path class="cls-1" d="M417.56,346.52a4.52,4.52,0,0,1-2.46-.66,4.44,4.44,0,0,1-1.62-1.81,6.45,6.45,0,0,1,0-5.3,4.4,4.4,0,0,1,1.62-1.82,4.52,4.52,0,0,1,2.46-.66,4.33,4.33,0,0,1,2.9,1,3.59,3.59,0,0,1,1.29,2.56h-2a2.41,2.41,0,0,0-.68-1.32,2,2,0,0,0-1.5-.58,2.26,2.26,0,0,0-1.34.43,2.82,2.82,0,0,0-.92,1.2,4.49,4.49,0,0,0-.34,1.83,4.74,4.74,0,0,0,.33,1.85,2.7,2.7,0,0,0,.91,1.21,2.21,2.21,0,0,0,1.36.43,2.29,2.29,0,0,0,1.39-.47,2.06,2.06,0,0,0,.79-1.43h2a3.68,3.68,0,0,1-1.26,2.58A4.26,4.26,0,0,1,417.56,346.52Z"/><line class="cls-5" x1="94.7" y1="217.82" x2="106.04" y2="217.82"/><polygon class="cls-3" points="102.72 221.91 102.04 221.18 105.65 217.82 102.04 214.47 102.72 213.74 107.12 217.82 102.72 221.91"/><path class="cls-5" d="M178.56,217.82h23.67V111.32a10.68,10.68,0,0,1,10.68-10.68h11.3"/><polygon class="cls-3" points="220.9 104.73 220.22 104 223.83 100.64 220.22 97.29 220.9 96.56 225.3 100.64 220.9 104.73"/><path class="cls-5" d="M202.23,217.82h12.39V189.44a10.68,10.68,0,0,1,9.6-10.62"/><polygon class="cls-3" points="221.68 183.56 220.88 182.95 223.85 179.02 219.71 176.34 220.26 175.5 225.3 178.76 221.68 183.56"/><path class="cls-5" d="M202.23,217.82V324.33A10.68,10.68,0,0,0,212.91,335h11.3"/><polygon class="cls-3" points="220.9 339.09 220.22 338.36 223.83 335 220.22 331.65 220.9 330.91 225.3 335 220.9 339.09"/><path class="cls-5" d="M214.62,217.82v28.39a10.68,10.68,0,0,0,9.6,10.62"/><polygon class="cls-3" points="220.26 260.15 219.71 259.31 223.85 256.63 220.88 252.7 221.68 252.09 225.3 256.88 220.26 260.15"/><line class="cls-5" x1="298.86" y1="100.64" x2="362.5" y2="100.64"/><polygon class="cls-3" points="359.19 104.73 358.51 104 362.12 100.64 358.51 97.29 359.19 96.56 363.59 100.64 359.19 104.73"/><line class="cls-5" x1="298.86" y1="178.76" x2="362.5" y2="178.76"/><polygon class="cls-3" points="359.19 182.85 358.51 182.12 362.12 178.76 358.51 175.41 359.19 174.68 363.59 178.76 359.19 182.85"/><line class="cls-5" x1="298.86" y1="256.88" x2="362.5" y2="256.88"/><polygon class="cls-3" points="359.19 260.97 358.51 260.24 362.12 256.88 358.51 253.53 359.19 252.79 363.59 256.88 359.19 260.97"/><line class="cls-5" x1="298.86" y1="335" x2="362.5" y2="335"/><polygon class="cls-3" points="359.19 339.09 358.51 338.36 362.12 335 358.51 331.65 359.19 330.91 363.59 335 359.19 339.09"/><line class="cls-5" x1="455.68" y1="100.64" x2="505.39" y2="100.64"/><polygon class="cls-3" points="502.07 104.73 501.39 104 505 100.64 501.39 97.29 502.07 96.56 506.47 100.64 502.07 104.73"/><line class="cls-5" x1="455.68" y1="178.76" x2="505.39" y2="178.76"/><polygon class="cls-3" points="502.07 182.85 501.39 182.12 505 178.76 501.39 175.41 502.07 174.68 506.47 178.76 502.07 182.85"/><line class="cls-5" x1="455.68" y1="256.88" x2="505.39" y2="256.88"/><polygon class="cls-3" points="502.07 260.97 501.39 260.24 505 256.88 501.39 253.53 502.07 252.79 506.47 256.88 502.07 260.97"/><line class="cls-5" x1="455.68" y1="335" x2="505.39" y2="335"/><polygon class="cls-3" points="502.07 339.09 501.39 338.36 505 335 501.39 331.65 502.07 330.91 506.47 335 502.07 339.09"/></g></g></svg>