<svg xmlns="http://www.w3.org/2000/svg" viewBox="0 0 659.01 610.83"><defs><style>.cls-1{fill:#e7f1fb;}.cls-2{fill:#1573ff;}.cls-3{fill:#fff;}.cls-4,.cls-6{fill:none;stroke-miterlimit:10;}.cls-4{stroke:#1573ff;}.cls-5{fill:#040f1f;}.cls-6{stroke:#040f1f;}</style></defs><g id="Layer_2" data-name="Layer 2"><g id="Layer_1-2" data-name="Layer 1"><rect class="cls-1" x="0.5" y="106.28" width="97.8" height="37.67" rx="5.9"/><rect class="cls-2" x="269.35" width="70.19" height="37.67" rx="5.9"/><path class="cls-3" d="M286.91,15.81a1.77,1.77,0,0,0-.83-1.34A3.15,3.15,0,0,0,284.3,14a3.29,3.29,0,0,0-1.35.25,2.13,2.13,0,0,0-.9.69,1.65,1.65,0,0,0-.32,1,1.39,1.39,0,0,0,.22.8,1.9,1.9,0,0,0,.58.55,3.61,3.61,0,0,0,.74.36c.26.09.49.17.71.23l1.18.31q.45.12,1,.33a4.8,4.8,0,0,1,1.07.57,3,3,0,0,1,.85.93,2.66,2.66,0,0,1,.33,1.38,3,3,0,0,1-.49,1.7,3.37,3.37,0,0,1-1.43,1.21,6,6,0,0,1-4.44.05,3.39,3.39,0,0,1-1.43-1.13,3.12,3.12,0,0,1-.59-1.67h1.45a1.77,1.77,0,0,0,.45,1.08,2.33,2.33,0,0,0,1,.64,3.88,3.88,0,0,0,1.29.21,3.71,3.71,0,0,0,1.45-.27,2.4,2.4,0,0,0,1-.73,1.76,1.76,0,0,0,.38-1.11,1.42,1.42,0,0,0-.32-.95,2.39,2.39,0,0,0-.86-.59,10.1,10.1,0,0,0-1.14-.4L283.32,19a5.36,5.36,0,0,1-2.16-1.11,2.47,2.47,0,0,1-.79-1.91,2.8,2.8,0,0,1,.53-1.71,3.52,3.52,0,0,1,1.43-1.13,4.85,4.85,0,0,1,2-.41,4.7,4.7,0,0,1,2,.4,3.41,3.41,0,0,1,1.39,1.1,2.74,2.74,0,0,1,.55,1.57Z"/><path class="cls-3" d="M294.36,15.81V17h-4.52V15.81Zm-3.2-2.09h1.34V22a1.72,1.72,0,0,0,.17.85.81.81,0,0,0,.43.37,1.8,1.8,0,0,0,.92.07l.23,0,.27,1.2a2.3,2.3,0,0,1-.38.11,3.44,3.44,0,0,1-.62,0,2.78,2.78,0,0,1-1.11-.24,2.15,2.15,0,0,1-.89-.75,2.09,2.09,0,0,1-.36-1.26Z"/><path class="cls-3" d="M300,24.72a4.13,4.13,0,0,1-2.18-.56,3.75,3.75,0,0,1-1.4-1.57,5.25,5.25,0,0,1-.49-2.35,5.43,5.43,0,0,1,.49-2.37,4,4,0,0,1,1.37-1.6,3.74,3.74,0,0,1,2.07-.57,4.24,4.24,0,0,1,1.35.22,3.41,3.41,0,0,1,1.21.74,3.71,3.71,0,0,1,.87,1.34,5.9,5.9,0,0,1,.32,2.06v.57h-6.73V19.47h5.37a2.85,2.85,0,0,0-.3-1.32,2.15,2.15,0,0,0-.83-.91,2.26,2.26,0,0,0-1.26-.34,2.34,2.34,0,0,0-1.38.4,2.61,2.61,0,0,0-.9,1,3,3,0,0,0-.31,1.35v.78a3.68,3.68,0,0,0,.34,1.67,2.42,2.42,0,0,0,1,1,2.76,2.76,0,0,0,1.43.35,2.83,2.83,0,0,0,1-.15,1.92,1.92,0,0,0,.74-.45,2.12,2.12,0,0,0,.49-.76l1.29.36a2.79,2.79,0,0,1-.68,1.16,3.31,3.31,0,0,1-1.2.77A4.21,4.21,0,0,1,300,24.72Z"/><path class="cls-3" d="M305.62,27.81v-12h1.29V17.2h.16c.1-.16.24-.35.41-.59a2.44,2.44,0,0,1,.76-.63,2.74,2.74,0,0,1,1.35-.28,3.45,3.45,0,0,1,2,.55,3.74,3.74,0,0,1,1.31,1.56,5.66,5.66,0,0,1,.47,2.39,5.74,5.74,0,0,1-.47,2.4,3.68,3.68,0,0,1-1.31,1.56,3.38,3.38,0,0,1-1.92.56,2.88,2.88,0,0,1-1.35-.28,2.44,2.44,0,0,1-.78-.64q-.27-.36-.42-.6H307v4.61Zm1.31-7.64a4.88,4.88,0,0,0,.29,1.74,2.63,2.63,0,0,0,.85,1.18,2.45,2.45,0,0,0,2.77,0,2.69,2.69,0,0,0,.85-1.21,4.75,4.75,0,0,0,.29-1.69,4.63,4.63,0,0,0-.28-1.66,2.57,2.57,0,0,0-.85-1.17,2.5,2.5,0,0,0-2.79,0,2.56,2.56,0,0,0-.84,1.15A4.71,4.71,0,0,0,306.93,20.17Z"/><path class="cls-3" d="M323.93,12.9V24.54h-1.4V14.38h-.07l-2.84,1.88V14.83l2.91-1.93Z"/><rect class="cls-2" x="269.35" y="421.77" width="70.19" height="37.67" rx="5.9"/><path class="cls-3" d="M286.91,437.58a1.77,1.77,0,0,0-.83-1.34,3.15,3.15,0,0,0-1.78-.48A3.29,3.29,0,0,0,283,436a2.13,2.13,0,0,0-.9.69,1.65,1.65,0,0,0-.32,1,1.39,1.39,0,0,0,.22.8,1.9,1.9,0,0,0,.58.55,3.61,3.61,0,0,0,.74.36,7,7,0,0,0,.71.22l1.18.32q.45.12,1,.33a4.8,4.8,0,0,1,1.07.57,3,3,0,0,1,.85.93,2.66,2.66,0,0,1,.33,1.38,3,3,0,0,1-.49,1.7,3.37,3.37,0,0,1-1.43,1.21,6,6,0,0,1-4.44.05,3.39,3.39,0,0,1-1.43-1.13,3.12,3.12,0,0,1-.59-1.67h1.45a1.77,1.77,0,0,0,.45,1.08,2.33,2.33,0,0,0,1,.64,3.88,3.88,0,0,0,1.29.21,3.71,3.71,0,0,0,1.45-.27,2.4,2.4,0,0,0,1-.73,1.76,1.76,0,0,0,.38-1.12,1.39,1.39,0,0,0-.32-.94,2.39,2.39,0,0,0-.86-.59,10.1,10.1,0,0,0-1.14-.4l-1.43-.41a5.25,5.25,0,0,1-2.16-1.12,2.43,2.43,0,0,1-.79-1.9,2.8,2.8,0,0,1,.53-1.71,3.52,3.52,0,0,1,1.43-1.13,4.85,4.85,0,0,1,2-.41,4.7,4.7,0,0,1,2,.4,3.41,3.41,0,0,1,1.39,1.1,2.74,2.74,0,0,1,.55,1.57Z"/><path class="cls-3" d="M294.36,437.58v1.14h-4.52v-1.14Zm-3.2-2.09h1.34v8.32a1.72,1.72,0,0,0,.17.85.81.81,0,0,0,.43.37,1.73,1.73,0,0,0,.56.09,1.84,1.84,0,0,0,.36,0l.23,0,.27,1.2a2.3,2.3,0,0,1-.38.11,3.44,3.44,0,0,1-.62.05,2.78,2.78,0,0,1-1.11-.24,2.23,2.23,0,0,1-.89-.75,2.09,2.09,0,0,1-.36-1.26Z"/><path class="cls-3" d="M300,446.49a4.13,4.13,0,0,1-2.18-.56,3.75,3.75,0,0,1-1.4-1.57,5.25,5.25,0,0,1-.49-2.35,5.43,5.43,0,0,1,.49-2.37,4,4,0,0,1,1.37-1.6,3.74,3.74,0,0,1,2.07-.57,4.24,4.24,0,0,1,1.35.22,3.41,3.41,0,0,1,1.21.74,3.71,3.71,0,0,1,.87,1.34,5.86,5.86,0,0,1,.32,2.06v.57h-6.73v-1.16h5.37a2.85,2.85,0,0,0-.3-1.32,2.15,2.15,0,0,0-.83-.91,2.26,2.26,0,0,0-1.26-.34,2.41,2.41,0,0,0-1.38.39,2.71,2.71,0,0,0-.9,1,3,3,0,0,0-.31,1.35v.78a3.71,3.71,0,0,0,.34,1.67,2.42,2.42,0,0,0,1,1,2.76,2.76,0,0,0,1.43.35,2.83,2.83,0,0,0,1-.15,1.92,1.92,0,0,0,.74-.45,2.12,2.12,0,0,0,.49-.76l1.29.36a2.79,2.79,0,0,1-.68,1.16,3.31,3.31,0,0,1-1.2.77A4.21,4.21,0,0,1,300,446.49Z"/><path class="cls-3" d="M305.62,449.58v-12h1.29V439h.16c.1-.16.24-.35.41-.59a2.44,2.44,0,0,1,.76-.63,2.74,2.74,0,0,1,1.35-.28,3.45,3.45,0,0,1,2,.55,3.68,3.68,0,0,1,1.31,1.56,5.66,5.66,0,0,1,.47,2.39,5.74,5.74,0,0,1-.47,2.4,3.74,3.74,0,0,1-1.31,1.56,3.38,3.38,0,0,1-1.92.56,2.88,2.88,0,0,1-1.35-.28,2.33,2.33,0,0,1-.78-.65c-.18-.24-.32-.44-.42-.59H307v4.61Zm1.31-7.64a4.88,4.88,0,0,0,.29,1.74,2.63,2.63,0,0,0,.85,1.18,2.45,2.45,0,0,0,2.77,0,2.69,2.69,0,0,0,.85-1.21,4.75,4.75,0,0,0,.29-1.69,4.63,4.63,0,0,0-.28-1.66,2.65,2.65,0,0,0-.85-1.18,2.53,2.53,0,0,0-2.79,0,2.56,2.56,0,0,0-.84,1.15A4.71,4.71,0,0,0,306.93,441.94Z"/><path class="cls-3" d="M319.84,446.31v-1l3.84-4.2c.45-.49.83-.92,1.12-1.29a4.68,4.68,0,0,0,.65-1,2.59,2.59,0,0,0,.21-1,1.91,1.91,0,0,0-.29-1.06,2,2,0,0,0-.8-.7,2.64,2.64,0,0,0-1.14-.24,2.39,2.39,0,0,0-1.16.27,1.9,1.9,0,0,0-.77.77,2.39,2.39,0,0,0-.27,1.16h-1.34a3.39,3.39,0,0,1,.47-1.79,3.2,3.2,0,0,1,1.29-1.21,3.92,3.92,0,0,1,1.83-.43,3.78,3.78,0,0,1,1.81.43,3.25,3.25,0,0,1,1.24,1.17,3.05,3.05,0,0,1,.45,1.63,3.59,3.59,0,0,1-.23,1.25,5.42,5.42,0,0,1-.8,1.36,22.36,22.36,0,0,1-1.56,1.82l-2.61,2.8v.09h5.4v1.25Z"/><rect class="cls-4" x="182.58" y="90.21" width="243.73" height="273.37" rx="7.26"/><rect class="cls-2" x="235.97" y="71.35" width="136.95" height="37.72" rx="5.9"/><path class="cls-3" d="M251.34,95h-1.48l4.28-11.64h1.45L259.86,95h-1.47l-3.48-9.8h-.09Zm.55-4.55h5.95v1.25h-5.95Z"/><path class="cls-3" d="M262.84,89.78V95H261.5V86.3h1.3v1.36h.11a2.47,2.47,0,0,1,.93-1.07,2.94,2.94,0,0,1,1.61-.41,3.13,3.13,0,0,1,1.56.37,2.48,2.48,0,0,1,1,1.09,4,4,0,0,1,.37,1.84V95h-1.34V89.57a2.25,2.25,0,0,0-.54-1.6,1.86,1.86,0,0,0-1.46-.58,2.3,2.3,0,0,0-1.15.28,1.93,1.93,0,0,0-.79.81A2.74,2.74,0,0,0,262.84,89.78Z"/><path class="cls-3" d="M274.41,95.21A3.73,3.73,0,0,1,271,93.07a5.29,5.29,0,0,1-.5-2.36,5.35,5.35,0,0,1,.5-2.38,3.7,3.7,0,0,1,1.39-1.58,4,4,0,0,1,4.14,0,3.83,3.83,0,0,1,1.39,1.58,5.35,5.35,0,0,1,.49,2.38,5.29,5.29,0,0,1-.49,2.36,3.87,3.87,0,0,1-1.39,1.57A3.74,3.74,0,0,1,274.41,95.21Zm0-1.21a2.3,2.3,0,0,0,1.48-.46,2.67,2.67,0,0,0,.85-1.21,4.86,4.86,0,0,0,0-3.25,2.78,2.78,0,0,0-.85-1.23,2.61,2.61,0,0,0-3,0,2.89,2.89,0,0,0-.86,1.23,5,5,0,0,0,0,3.25,2.76,2.76,0,0,0,.86,1.21A2.3,2.3,0,0,0,274.41,94Z"/><path class="cls-3" d="M281.75,89.78V95h-1.34V86.3h1.29v1.36h.12a2.47,2.47,0,0,1,.93-1.07,2.91,2.91,0,0,1,1.61-.41,3.09,3.09,0,0,1,1.55.37,2.44,2.44,0,0,1,1,1.09,4.12,4.12,0,0,1,.37,1.84V95H286V89.57a2.25,2.25,0,0,0-.54-1.6,1.86,1.86,0,0,0-1.46-.58,2.3,2.3,0,0,0-1.15.28,1.93,1.93,0,0,0-.79.81A2.74,2.74,0,0,0,281.75,89.78Z"/><path class="cls-3" d="M290.32,98.28a2.8,2.8,0,0,1-.61-.06,1.64,1.64,0,0,1-.37-.1l.34-1.19a1.94,1.94,0,0,0,1.22,0c.33-.13.61-.53.85-1.18l.25-.68-3.23-8.77h1.46l2.41,7h.09l2.41-7,1.46,0-3.71,10a4,4,0,0,1-.62,1.1,2.26,2.26,0,0,1-.86.66A2.72,2.72,0,0,1,290.32,98.28Z"/><path class="cls-3" d="M298.37,95V86.3h1.3v1.36h.11a2.32,2.32,0,0,1,.88-1.09,2.68,2.68,0,0,1,1.46-.39,2.55,2.55,0,0,1,1.45.39,2.7,2.7,0,0,1,.9,1.09h.09a2.54,2.54,0,0,1,1-1.08,3.18,3.18,0,0,1,1.61-.4,2.63,2.63,0,0,1,1.91.73,3.06,3.06,0,0,1,.75,2.27V95h-1.34V89.18A1.67,1.67,0,0,0,308,87.8a2,2,0,0,0-1.24-.41,1.83,1.83,0,0,0-1.43.55,2,2,0,0,0-.51,1.4V95h-1.36v-6a1.57,1.57,0,0,0-.48-1.2,1.74,1.74,0,0,0-1.25-.46,1.77,1.77,0,0,0-1,.28,2,2,0,0,0-.73.77,2.28,2.28,0,0,0-.27,1.13V95Z"/><path class="cls-3" d="M313,84.84a1,1,0,0,1-.68-.26.86.86,0,0,1-.28-.65.84.84,0,0,1,.28-.64,1,1,0,0,1,1.35,0,.84.84,0,0,1,.28.64.86.86,0,0,1-.28.65A1,1,0,0,1,313,84.84ZM312.28,95V86.3h1.34V95Z"/><path class="cls-3" d="M319.87,86.3v1.13h-4.52V86.3Zm-3.2-2.09H318v8.32a1.68,1.68,0,0,0,.17.84.79.79,0,0,0,.43.38,1.73,1.73,0,0,0,.56.09l.36,0,.23,0L320,95a2.48,2.48,0,0,1-.38.1,2.65,2.65,0,0,1-.62.06,2.57,2.57,0,0,1-1.11-.25,2.13,2.13,0,0,1-.89-.74,2.09,2.09,0,0,1-.36-1.26Z"/><path class="cls-3" d="M322.76,98.28a2.8,2.8,0,0,1-.61-.06,1.64,1.64,0,0,1-.37-.1l.34-1.19a2,2,0,0,0,1.23,0,1.91,1.91,0,0,0,.84-1.18l.25-.68-3.22-8.77h1.45l2.41,7h.09l2.41-7,1.46,0-3.71,10a3.72,3.72,0,0,1-.62,1.1,2.26,2.26,0,0,1-.86.66A2.68,2.68,0,0,1,322.76,98.28Z"/><path class="cls-3" d="M341.86,86.3A1.77,1.77,0,0,0,341,85a3.15,3.15,0,0,0-1.78-.48,3.29,3.29,0,0,0-1.35.25,2.26,2.26,0,0,0-.9.69,1.65,1.65,0,0,0-.32,1,1.47,1.47,0,0,0,.22.8,2,2,0,0,0,.58.55,3.61,3.61,0,0,0,.74.36c.26.09.5.17.71.22l1.18.32c.31.08.64.19,1,.33a4.8,4.8,0,0,1,1.07.57,2.92,2.92,0,0,1,.85.93,2.66,2.66,0,0,1,.34,1.38,3.08,3.08,0,0,1-.5,1.7,3.31,3.31,0,0,1-1.43,1.21,5.27,5.27,0,0,1-2.28.45,5.48,5.48,0,0,1-2.16-.4,3.39,3.39,0,0,1-1.43-1.13A3.12,3.12,0,0,1,335,92h1.45a1.8,1.8,0,0,0,.45,1.08,2.33,2.33,0,0,0,1,.64,3.88,3.88,0,0,0,1.29.21,3.71,3.71,0,0,0,1.45-.27,2.37,2.37,0,0,0,1-.74,1.71,1.71,0,0,0,.37-1.11,1.39,1.39,0,0,0-.32-.94,2.43,2.43,0,0,0-.85-.59,11,11,0,0,0-1.15-.4l-1.43-.41a5.25,5.25,0,0,1-2.16-1.12,2.45,2.45,0,0,1-.79-1.9,2.8,2.8,0,0,1,.53-1.71,3.52,3.52,0,0,1,1.43-1.13,4.85,4.85,0,0,1,2-.41,4.7,4.7,0,0,1,2,.4,3.48,3.48,0,0,1,1.39,1.09,2.72,2.72,0,0,1,.55,1.58Z"/><path class="cls-3" d="M349.18,95.21a4.07,4.07,0,0,1-2.17-.56,3.77,3.77,0,0,1-1.41-1.57,5.42,5.42,0,0,1-.49-2.35,5.57,5.57,0,0,1,.49-2.37,3.92,3.92,0,0,1,1.38-1.6,3.73,3.73,0,0,1,2.06-.58,4.16,4.16,0,0,1,1.35.23,3.33,3.33,0,0,1,1.21.74,3.62,3.62,0,0,1,.87,1.34,5.64,5.64,0,0,1,.32,2.06v.57h-6.72V90h5.36a3,3,0,0,0-.29-1.32,2.31,2.31,0,0,0-.83-.92,2.38,2.38,0,0,0-1.27-.33,2.43,2.43,0,0,0-1.38.39,2.6,2.6,0,0,0-.89,1,3,3,0,0,0-.32,1.35v.77a3.73,3.73,0,0,0,.35,1.68,2.52,2.52,0,0,0,.95,1,2.88,2.88,0,0,0,1.43.35,2.93,2.93,0,0,0,1-.15,1.93,1.93,0,0,0,1.22-1.21l1.3.36a2.92,2.92,0,0,1-.69,1.16,3.27,3.27,0,0,1-1.19.77A4.3,4.3,0,0,1,349.18,95.21Z"/><path class="cls-3" d="M358.64,86.3v1.13h-4.53V86.3Zm-3.21-2.09h1.34v8.32a1.68,1.68,0,0,0,.17.84.79.79,0,0,0,.43.38,1.73,1.73,0,0,0,.56.09l.36,0,.23,0,.27,1.2a2.48,2.48,0,0,1-.38.1,2.78,2.78,0,0,1-1.73-.19,2.13,2.13,0,0,1-.89-.74,2.09,2.09,0,0,1-.36-1.26Z"/><rect class="cls-2" x="0.5" y="57.35" width="136.95" height="37.72" rx="5.9"/><path class="cls-3" d="M16.22,81H14.74L19,69.39h1.46L24.74,81H23.26l-3.48-9.8h-.09Zm.54-4.55h6v1.25h-6Z"/><path class="cls-3" d="M27.72,69.39V81H26.38V69.39Z"/><path class="cls-3" d="M30.85,70.84a1,1,0,0,1-.67-.26.86.86,0,0,1-.28-.65.84.84,0,0,1,.28-.64.93.93,0,0,1,.67-.26,1,1,0,0,1,.68.26.88.88,0,0,1,.28.64.9.9,0,0,1-.28.65A1,1,0,0,1,30.85,70.84ZM30.17,81V72.3h1.34V81Z"/><path class="cls-3" d="M37.51,81.21A3.67,3.67,0,0,1,34,79a5.52,5.52,0,0,1-.47-2.32,5.31,5.31,0,0,1,.49-2.35,3.9,3.9,0,0,1,1.37-1.6,3.74,3.74,0,0,1,2.07-.58,3.88,3.88,0,0,1,1.66.35,3.15,3.15,0,0,1,1.21,1,3,3,0,0,1,.58,1.43H39.6a2.09,2.09,0,0,0-.68-1.06,2,2,0,0,0-1.41-.46,2.29,2.29,0,0,0-1.37.41,2.6,2.6,0,0,0-.91,1.14,4.16,4.16,0,0,0-.33,1.72,4.5,4.5,0,0,0,.32,1.76,2.69,2.69,0,0,0,.91,1.17,2.37,2.37,0,0,0,1.38.41,2.4,2.4,0,0,0,1-.18,1.88,1.88,0,0,0,.72-.52,1.94,1.94,0,0,0,.42-.82h1.34a3,3,0,0,1-.56,1.39,3.12,3.12,0,0,1-1.17,1A3.8,3.8,0,0,1,37.51,81.21Z"/><path class="cls-3" d="M46.56,81.21a4.13,4.13,0,0,1-2.18-.56A3.81,3.81,0,0,1,43,79.08a5.28,5.28,0,0,1-.49-2.35A5.43,5.43,0,0,1,43,74.36a3.92,3.92,0,0,1,1.38-1.6,3.69,3.69,0,0,1,2.06-.58,4.21,4.21,0,0,1,1.35.23,3.41,3.41,0,0,1,1.21.74,3.62,3.62,0,0,1,.87,1.34,5.86,5.86,0,0,1,.32,2.06v.57H43.44V76h5.37a2.82,2.82,0,0,0-.3-1.32,2.28,2.28,0,0,0-.82-.92,2.38,2.38,0,0,0-1.27-.33,2.43,2.43,0,0,0-1.38.39,2.71,2.71,0,0,0-.9,1,3,3,0,0,0-.31,1.35v.77a3.73,3.73,0,0,0,.34,1.68,2.48,2.48,0,0,0,1,1,2.88,2.88,0,0,0,1.43.35,2.83,2.83,0,0,0,.95-.15,2,2,0,0,0,.75-.45,2.19,2.19,0,0,0,.48-.76L50,79a2.79,2.79,0,0,1-.68,1.16,3.22,3.22,0,0,1-1.2.77A4.21,4.21,0,0,1,46.56,81.21Z"/><path class="cls-3" d="M53.4,69.39v1a3.32,3.32,0,0,1-.17,1,4,4,0,0,1-.49,1,3.71,3.71,0,0,1-.77.86l-.73-.6a7.52,7.52,0,0,0,.62-1.06,2.69,2.69,0,0,0,.27-1.19v-1Z"/><path class="cls-3" d="M60.13,74.25l-1.21.34a2.61,2.61,0,0,0-.33-.58,1.7,1.7,0,0,0-.6-.48,2.21,2.21,0,0,0-1-.19,2.34,2.34,0,0,0-1.33.37,1.09,1.09,0,0,0-.53.93,1,1,0,0,0,.36.79,3.16,3.16,0,0,0,1.14.48l1.3.32a3.56,3.56,0,0,1,1.74.87,2,2,0,0,1,.57,1.49,2.25,2.25,0,0,1-.42,1.34,2.92,2.92,0,0,1-1.2.94,4.48,4.48,0,0,1-1.78.34,4,4,0,0,1-2.22-.58,2.56,2.56,0,0,1-1.1-1.7l1.27-.31a1.72,1.72,0,0,0,.69,1,2.25,2.25,0,0,0,1.33.36,2.46,2.46,0,0,0,1.49-.41,1.15,1.15,0,0,0,.56-1,1,1,0,0,0-.32-.76,2.09,2.09,0,0,0-1-.47l-1.45-.34a3.43,3.43,0,0,1-1.76-.88,2.27,2.27,0,0,1-.14-2.81,2.76,2.76,0,0,1,1.14-.89A3.91,3.91,0,0,1,57,72.18a3.26,3.26,0,0,1,2,.57A3.07,3.07,0,0,1,60.13,74.25Z"/><path class="cls-3" d="M69.1,81,65.92,69.39h1.43l2.43,9.48h.12l2.48-9.48H74l2.47,9.48h.12L79,69.39h1.43L77.24,81H75.78l-2.56-9.28h-.09L70.56,81Z"/><path class="cls-3" d="M83.74,81.23a3.55,3.55,0,0,1-1.51-.32,2.47,2.47,0,0,1-1.47-2.36,2.23,2.23,0,0,1,.3-1.22,2.08,2.08,0,0,1,.79-.74,4.54,4.54,0,0,1,1.09-.4A12.23,12.23,0,0,1,84.15,76l1.29-.16a1.88,1.88,0,0,0,.73-.18.49.49,0,0,0,.23-.46v0a1.77,1.77,0,0,0-.46-1.31,1.86,1.86,0,0,0-1.38-.46,2.42,2.42,0,0,0-1.51.42,2.61,2.61,0,0,0-.77.89L81,74.23A3.11,3.11,0,0,1,81.92,73a3.43,3.43,0,0,1,1.25-.63,5.26,5.26,0,0,1,1.34-.18,6.26,6.26,0,0,1,1,.1,3.28,3.28,0,0,1,1.06.41,2.29,2.29,0,0,1,.86.93,3.39,3.39,0,0,1,.34,1.66V81H86.4V79.84h-.07a2.26,2.26,0,0,1-.45.61A2.66,2.66,0,0,1,85,81,3.27,3.27,0,0,1,83.74,81.23Zm.2-1.2a2.7,2.7,0,0,0,1.35-.32,2.2,2.2,0,0,0,.83-.8,2.16,2.16,0,0,0,.28-1V76.64a.74.74,0,0,1-.37.18,5.38,5.38,0,0,1-.66.15l-.72.1-.57.07a4.75,4.75,0,0,0-1,.22,1.62,1.62,0,0,0-.73.45,1.13,1.13,0,0,0-.28.81,1.21,1.21,0,0,0,.52,1A2.28,2.28,0,0,0,83.94,80Z"/><path class="cls-3" d="M91.53,69.39V81H90.19V69.39Z"/><path class="cls-3" d="M95.33,69.39V81H94V69.39Z"/><path class="cls-3" d="M101.44,81.21a4.1,4.1,0,0,1-2.17-.56,3.68,3.68,0,0,1-1.4-1.57,5.28,5.28,0,0,1-.49-2.35,5.43,5.43,0,0,1,.49-2.37,3.83,3.83,0,0,1,1.37-1.6,3.74,3.74,0,0,1,2.07-.58,4.15,4.15,0,0,1,1.34.23,3.25,3.25,0,0,1,1.21.74,3.39,3.39,0,0,1,.87,1.34,5.63,5.63,0,0,1,.33,2.06v.57H98.33V76h5.36a2.82,2.82,0,0,0-.29-1.32,2.24,2.24,0,0,0-.83-.92,2.37,2.37,0,0,0-1.26-.33,2.44,2.44,0,0,0-1.39.39,2.68,2.68,0,0,0-.89,1,3,3,0,0,0-.31,1.35v.77a3.73,3.73,0,0,0,.34,1.68,2.48,2.48,0,0,0,1,1,2.85,2.85,0,0,0,1.42.35,2.89,2.89,0,0,0,1-.15,2,2,0,0,0,.74-.45,2.21,2.21,0,0,0,.49-.76l1.29.36a2.81,2.81,0,0,1-.69,1.16,3.27,3.27,0,0,1-1.19.77A4.26,4.26,0,0,1,101.44,81.21Z"/><path class="cls-3" d="M110.9,72.3v1.13h-4.52V72.3Zm-3.21-2.09H109v8.32a1.68,1.68,0,0,0,.17.84.82.82,0,0,0,.43.38,1.77,1.77,0,0,0,.56.09l.37,0,.22,0,.28,1.2a2.84,2.84,0,0,1-.38.1,2.71,2.71,0,0,1-.62.06,2.57,2.57,0,0,1-1.11-.25,2.16,2.16,0,0,1-.9-.74,2.09,2.09,0,0,1-.36-1.26Z"/><path class="cls-3" d="M121.49,69.39V81h-1.41V70.87H120l-2.84,1.88V71.32l2.91-1.93Z"/><rect class="cls-5" x="209.54" y="143.95" width="189.81" height="37.67" rx="5.9"/><path class="cls-3" d="M222.69,168.17V156.53h7v1.25H224.1v3.93h5V163h-5v5.21Z"/><path class="cls-3" d="M236.85,164.6v-5.16h1.34v8.73h-1.34v-1.48h-.09a3,3,0,0,1-1,1.13,2.8,2.8,0,0,1-1.63.46,2.9,2.9,0,0,1-1.46-.36,2.53,2.53,0,0,1-1-1.09,4.18,4.18,0,0,1-.36-1.85v-5.54h1.34v5.45a2.13,2.13,0,0,0,.54,1.53,1.81,1.81,0,0,0,1.37.56,2.32,2.32,0,0,0,1-.25,2.18,2.18,0,0,0,.87-.79A2.33,2.33,0,0,0,236.85,164.6Z"/><path class="cls-3" d="M242,162.92v5.25h-1.34v-8.73h1.3v1.36h.11a2.6,2.6,0,0,1,.93-1.07,3,3,0,0,1,1.62-.41,3.09,3.09,0,0,1,1.55.37,2.42,2.42,0,0,1,1,1.09,4,4,0,0,1,.37,1.84v5.55h-1.34v-5.46a2.29,2.29,0,0,0-.53-1.6,1.9,1.9,0,0,0-1.47-.58,2.24,2.24,0,0,0-1.14.28,2,2,0,0,0-.8.81A2.74,2.74,0,0,0,242,162.92Z"/><path class="cls-3" d="M253.3,168.35a3.36,3.36,0,0,1-1.92-.56,3.64,3.64,0,0,1-1.31-1.57,6.31,6.31,0,0,1,0-4.78,3.55,3.55,0,0,1,1.31-1.56,3.45,3.45,0,0,1,1.94-.56,2.71,2.71,0,0,1,1.35.29,2.37,2.37,0,0,1,.77.63l.41.58H256v-4.29h1.34v11.64H256v-1.35h-.16q-.15.24-.42.6a2.57,2.57,0,0,1-.78.65A2.88,2.88,0,0,1,253.3,168.35Zm.18-1.21a2.21,2.21,0,0,0,1.37-.42,2.55,2.55,0,0,0,.84-1.18,4.67,4.67,0,0,0,.29-1.74,4.72,4.72,0,0,0-.28-1.71,2.56,2.56,0,0,0-.84-1.15,2.28,2.28,0,0,0-1.38-.41,2.23,2.23,0,0,0-1.41.43,2.65,2.65,0,0,0-.85,1.18,4.59,4.59,0,0,0-.28,1.66,4.54,4.54,0,0,0,.29,1.69,2.69,2.69,0,0,0,.85,1.21A2.21,2.21,0,0,0,253.48,167.14Z"/><path class="cls-3" d="M266.12,161.39l-1.21.34a2,2,0,0,0-.33-.58,1.58,1.58,0,0,0-.59-.48,2.21,2.21,0,0,0-1-.19,2.3,2.3,0,0,0-1.33.37,1.08,1.08,0,0,0-.54.93,1,1,0,0,0,.37.79,3.1,3.1,0,0,0,1.13.48l1.3.32a3.56,3.56,0,0,1,1.74.87,2,2,0,0,1,.58,1.49,2.19,2.19,0,0,1-.43,1.34,2.92,2.92,0,0,1-1.2.94,4.45,4.45,0,0,1-1.78.34,4,4,0,0,1-2.21-.58,2.61,2.61,0,0,1-1.11-1.7l1.27-.31a1.77,1.77,0,0,0,.69,1.05,2.28,2.28,0,0,0,1.34.36,2.48,2.48,0,0,0,1.49-.41,1.14,1.14,0,0,0,.55-1,1,1,0,0,0-.32-.76,2,2,0,0,0-1-.47l-1.46-.34a3.47,3.47,0,0,1-1.76-.88,2.27,2.27,0,0,1-.14-2.81,2.76,2.76,0,0,1,1.14-.89,4,4,0,0,1,1.65-.33,3.29,3.29,0,0,1,2,.57A3.11,3.11,0,0,1,266.12,161.39Z"/><path class="cls-3" d="M273.1,164.26V163h7.5v1.28Zm3.11,3.11v-7.5h1.27v7.5Z"/><path class="cls-3" d="M297.39,160.17H296a2.93,2.93,0,0,0-.43-1.07,3.1,3.1,0,0,0-.75-.78,3.17,3.17,0,0,0-1-.47,3.68,3.68,0,0,0-1.11-.16,3.59,3.59,0,0,0-1.91.53,3.73,3.73,0,0,0-1.36,1.58,5.74,5.74,0,0,0-.5,2.55,5.8,5.8,0,0,0,.5,2.55,3.7,3.7,0,0,0,1.36,1.57,3.51,3.51,0,0,0,1.91.54,4,4,0,0,0,1.11-.16,3.44,3.44,0,0,0,1-.48,3.1,3.1,0,0,0,.75-.78,3,3,0,0,0,.43-1.06h1.41a4.63,4.63,0,0,1-.58,1.6,4.42,4.42,0,0,1-1,1.19,4.62,4.62,0,0,1-1.4.75,5.29,5.29,0,0,1-1.66.25,4.92,4.92,0,0,1-2.65-.72,5,5,0,0,1-1.82-2.07,7.88,7.88,0,0,1,0-6.36,4.92,4.92,0,0,1,1.82-2.07,4.84,4.84,0,0,1,2.65-.73,5,5,0,0,1,1.66.26,4.82,4.82,0,0,1,1.4.74,4.52,4.52,0,0,1,1.62,2.8Z"/><path class="cls-3" d="M303,168.35a3.74,3.74,0,0,1-2.07-.57,3.67,3.67,0,0,1-1.39-1.57,5.29,5.29,0,0,1-.5-2.36,5.35,5.35,0,0,1,.5-2.38,3.7,3.7,0,0,1,1.39-1.58,4,4,0,0,1,4.14,0,3.83,3.83,0,0,1,1.39,1.58,5.35,5.35,0,0,1,.49,2.38,5.29,5.29,0,0,1-.49,2.36,3.8,3.8,0,0,1-1.39,1.57A3.74,3.74,0,0,1,303,168.35Zm0-1.21a2.3,2.3,0,0,0,1.48-.46,2.67,2.67,0,0,0,.85-1.21,4.86,4.86,0,0,0,0-3.25,2.78,2.78,0,0,0-.85-1.23,2.61,2.61,0,0,0-3,0,2.8,2.8,0,0,0-.86,1.23,4.86,4.86,0,0,0,0,3.25,2.68,2.68,0,0,0,.86,1.21A2.3,2.3,0,0,0,303,167.14Z"/><path class="cls-3" d="M309,168.17v-8.73h1.29v1.36h.12a2.2,2.2,0,0,1,.88-1.09,2.63,2.63,0,0,1,1.46-.39,2.54,2.54,0,0,1,1.44.39,2.7,2.7,0,0,1,.9,1.09h.09a2.56,2.56,0,0,1,1-1.08,3.11,3.11,0,0,1,1.6-.4,2.67,2.67,0,0,1,1.92.73,3.1,3.1,0,0,1,.74,2.27v5.85h-1.34v-5.85a1.64,1.64,0,0,0-.53-1.38,2,2,0,0,0-1.24-.41,1.83,1.83,0,0,0-1.43.55,2,2,0,0,0-.5,1.4v5.69h-1.37v-6a1.57,1.57,0,0,0-.48-1.2,1.71,1.71,0,0,0-1.24-.46,1.8,1.8,0,0,0-1,.28,2.08,2.08,0,0,0-.73.77,2.3,2.3,0,0,0-.27,1.13v5.46Z"/><path class="cls-3" d="M322.94,168.17v-8.73h1.29v1.36h.12a2.2,2.2,0,0,1,.88-1.09,2.63,2.63,0,0,1,1.46-.39,2.54,2.54,0,0,1,1.44.39,2.7,2.7,0,0,1,.9,1.09h.09a2.6,2.6,0,0,1,1-1.08,3.18,3.18,0,0,1,1.61-.4,2.67,2.67,0,0,1,1.92.73,3.1,3.1,0,0,1,.74,2.27v5.85h-1.34v-5.85a1.67,1.67,0,0,0-.53-1.38,2,2,0,0,0-1.24-.41,1.83,1.83,0,0,0-1.43.55,2,2,0,0,0-.5,1.4v5.69H328v-6a1.57,1.57,0,0,0-.48-1.2,1.71,1.71,0,0,0-1.24-.46,1.8,1.8,0,0,0-1,.28,2.08,2.08,0,0,0-.73.77,2.3,2.3,0,0,0-.27,1.13v5.46Z"/><path class="cls-3" d="M337.53,158a1,1,0,0,1-.68-.26.9.9,0,0,1-.28-.65.88.88,0,0,1,.28-.64,1,1,0,0,1,.68-.26.93.93,0,0,1,.67.26.84.84,0,0,1,.28.64.86.86,0,0,1-.28.65A1,1,0,0,1,337.53,158Zm-.68,10.19v-8.73h1.34v8.73Z"/><path class="cls-3" d="M344.44,159.44v1.13h-4.53v-1.13Zm-3.21-2.09h1.34v8.32a1.68,1.68,0,0,0,.17.84.82.82,0,0,0,.43.38,1.73,1.73,0,0,0,.56.09l.37,0,.22,0,.28,1.2a3.06,3.06,0,0,1-.39.1,2.75,2.75,0,0,1-1.72-.19,2.08,2.08,0,0,1-1.26-2Z"/><path class="cls-3" d="M346.46,168.17v-8.73h1.29v1.36h.12a2.2,2.2,0,0,1,.88-1.09,2.63,2.63,0,0,1,1.46-.39,2.52,2.52,0,0,1,1.44.39,2.7,2.7,0,0,1,.9,1.09h.09a2.56,2.56,0,0,1,1-1.08,3.11,3.11,0,0,1,1.6-.4,2.67,2.67,0,0,1,1.92.73,3.06,3.06,0,0,1,.74,2.27v5.85h-1.34v-5.85a1.64,1.64,0,0,0-.53-1.38,2,2,0,0,0-1.24-.41,1.85,1.85,0,0,0-1.43.55,2,2,0,0,0-.5,1.4v5.69H351.5v-6A1.57,1.57,0,0,0,351,161a1.71,1.71,0,0,0-1.24-.46,1.8,1.8,0,0,0-1,.28,2,2,0,0,0-.72.77,2.2,2.2,0,0,0-.28,1.13v5.46Z"/><path class="cls-3" d="M364,168.35a4.13,4.13,0,0,1-2.18-.56,3.81,3.81,0,0,1-1.4-1.57,5.28,5.28,0,0,1-.49-2.35,5.43,5.43,0,0,1,.49-2.37,3.92,3.92,0,0,1,1.38-1.6,3.69,3.69,0,0,1,2.06-.58,4.21,4.21,0,0,1,1.35.23,3.41,3.41,0,0,1,1.21.74,3.62,3.62,0,0,1,.87,1.34,5.86,5.86,0,0,1,.32,2.06v.57h-6.73V163.1h5.37a3,3,0,0,0-.29-1.32,2.22,2.22,0,0,0-2.1-1.25,2.43,2.43,0,0,0-1.38.39,2.71,2.71,0,0,0-.9,1,3,3,0,0,0-.31,1.35v.77a3.73,3.73,0,0,0,.34,1.68,2.48,2.48,0,0,0,1,1,2.88,2.88,0,0,0,1.43.35,2.93,2.93,0,0,0,1-.15,1.93,1.93,0,0,0,1.22-1.21l1.29.36a2.79,2.79,0,0,1-.68,1.16,3.22,3.22,0,0,1-1.2.77A4.21,4.21,0,0,1,364,168.35Z"/><path class="cls-3" d="M371,162.92v5.25h-1.34v-8.73H371v1.36h.12a2.47,2.47,0,0,1,.93-1.07,2.89,2.89,0,0,1,1.61-.41,3.09,3.09,0,0,1,1.55.37,2.44,2.44,0,0,1,1,1.09,4.12,4.12,0,0,1,.37,1.84v5.55h-1.34v-5.46a2.25,2.25,0,0,0-.54-1.6,1.88,1.88,0,0,0-1.46-.58,2.28,2.28,0,0,0-1.15.28,1.93,1.93,0,0,0-.79.81A2.63,2.63,0,0,0,371,162.92Z"/><path class="cls-3" d="M382.85,159.44v1.13h-4.53v-1.13Zm-3.21-2.09H381v8.32a1.68,1.68,0,0,0,.17.84.79.79,0,0,0,.43.38,1.73,1.73,0,0,0,.56.09l.36,0,.23,0,.27,1.2a2.48,2.48,0,0,1-.38.1,2.78,2.78,0,0,1-1.73-.19,2.13,2.13,0,0,1-.89-.74,2.09,2.09,0,0,1-.36-1.26Z"/><rect class="cls-5" x="209.54" y="294.65" width="189.81" height="37.67" rx="5.9"/><path class="cls-3" d="M222.69,318.86V307.23h7v1.25H224.1v3.93h5v1.25h-5v5.2Z"/><path class="cls-3" d="M236.85,315.29v-5.15h1.34v8.72h-1.34v-1.47h-.09a2.93,2.93,0,0,1-1,1.12,2.73,2.73,0,0,1-1.63.47,2.93,2.93,0,0,1-1.46-.36,2.55,2.55,0,0,1-1-1.1,4.13,4.13,0,0,1-.36-1.84v-5.54h1.34v5.45a2.11,2.11,0,0,0,.54,1.52,1.78,1.78,0,0,0,1.37.57,2.27,2.27,0,0,0,2.25-2.39Z"/><path class="cls-3" d="M242,313.61v5.25h-1.35v-8.72h1.3v1.36h.11a2.56,2.56,0,0,1,.94-1.07,2.89,2.89,0,0,1,1.61-.41,3.2,3.2,0,0,1,1.55.36,2.47,2.47,0,0,1,1,1.09,4,4,0,0,1,.37,1.85v5.54h-1.34v-5.45a2.31,2.31,0,0,0-.53-1.61,1.93,1.93,0,0,0-1.47-.57,2.34,2.34,0,0,0-1.14.27,2,2,0,0,0-.79.82A2.59,2.59,0,0,0,242,313.61Z"/><path class="cls-3" d="M253.3,319a3.38,3.38,0,0,1-1.92-.55,3.64,3.64,0,0,1-1.31-1.57,6.31,6.31,0,0,1,0-4.78,3.64,3.64,0,0,1,1.31-1.57,3.53,3.53,0,0,1,2-.55,2.81,2.81,0,0,1,1.34.28,2.39,2.39,0,0,1,.77.64l.41.58H256v-4.29h1.34v11.63H256v-1.34h-.16q-.15.24-.42.6a2.31,2.31,0,0,1-.78.64A2.76,2.76,0,0,1,253.3,319Zm.18-1.2a2.21,2.21,0,0,0,1.37-.42,2.65,2.65,0,0,0,.84-1.18,4.67,4.67,0,0,0,.29-1.74,4.72,4.72,0,0,0-.28-1.71,2.51,2.51,0,0,0-.84-1.15,2.53,2.53,0,0,0-2.79,0,2.6,2.6,0,0,0-.85,1.18,5.07,5.07,0,0,0,0,3.35,2.6,2.6,0,0,0,.85,1.2A2.16,2.16,0,0,0,253.48,317.84Z"/><path class="cls-3" d="M266.12,312.09l-1.2.34a2.37,2.37,0,0,0-.34-.59,1.56,1.56,0,0,0-.59-.47,2.08,2.08,0,0,0-1-.19,2.24,2.24,0,0,0-1.33.37,1.07,1.07,0,0,0-.53.93,1,1,0,0,0,.36.79,3.08,3.08,0,0,0,1.14.48l1.29.32a3.73,3.73,0,0,1,1.75.86,2.06,2.06,0,0,1,.57,1.5,2.19,2.19,0,0,1-.43,1.34,2.71,2.71,0,0,1-1.2.93,4.28,4.28,0,0,1-1.78.34,3.89,3.89,0,0,1-2.21-.58,2.58,2.58,0,0,1-1.11-1.69l1.27-.32a1.8,1.8,0,0,0,.7,1.06,2.23,2.23,0,0,0,1.33.35,2.48,2.48,0,0,0,1.49-.4,1.15,1.15,0,0,0,.55-1,1,1,0,0,0-.32-.77,2,2,0,0,0-1-.46l-1.46-.34a3.47,3.47,0,0,1-1.76-.88,2.27,2.27,0,0,1-.14-2.81,2.76,2.76,0,0,1,1.14-.89A4,4,0,0,1,263,310a3.29,3.29,0,0,1,2,.57A3.11,3.11,0,0,1,266.12,312.09Z"/><path class="cls-3" d="M273.1,315v-1.27h7.5V315Zm3.11,3.12v-7.5h1.27v7.5Z"/><path class="cls-3" d="M297.39,310.86H296a2.9,2.9,0,0,0-.43-1.07,3.23,3.23,0,0,0-.75-.77,3.31,3.31,0,0,0-1-.48,4,4,0,0,0-1.11-.15,3.5,3.5,0,0,0-1.91.53,3.76,3.76,0,0,0-1.36,1.57,6.78,6.78,0,0,0,0,5.11,3.76,3.76,0,0,0,1.36,1.57,3.5,3.5,0,0,0,1.91.53,3.68,3.68,0,0,0,1.11-.16,3.07,3.07,0,0,0,1-.47,3.1,3.1,0,0,0,.75-.78,2.85,2.85,0,0,0,.43-1.06h1.41a4.58,4.58,0,0,1-.58,1.59,4.46,4.46,0,0,1-1,1.2,4.62,4.62,0,0,1-1.4.75,5.29,5.29,0,0,1-1.66.25,4.87,4.87,0,0,1-2.65-.73,5,5,0,0,1-1.82-2.06,7.91,7.91,0,0,1,0-6.37,5,5,0,0,1,1.82-2.07,5,5,0,0,1,2.65-.72,5.29,5.29,0,0,1,1.66.25,4.42,4.42,0,0,1,2.44,1.94A4.56,4.56,0,0,1,297.39,310.86Z"/><path class="cls-3" d="M303,319a3.7,3.7,0,0,1-3.46-2.13,5.34,5.34,0,0,1-.5-2.37,5.41,5.41,0,0,1,.5-2.38,3.94,3.94,0,0,1,5.53-1.58,4,4,0,0,1,1.39,1.58,5.41,5.41,0,0,1,.49,2.38,5.34,5.34,0,0,1-.49,2.37,3.87,3.87,0,0,1-1.39,1.57A3.73,3.73,0,0,1,303,319Zm0-1.2a2.3,2.3,0,0,0,1.48-.46,2.72,2.72,0,0,0,.85-1.21,4.54,4.54,0,0,0,.28-1.63,4.62,4.62,0,0,0-.28-1.63,2.75,2.75,0,0,0-.85-1.22,2.61,2.61,0,0,0-3,0,2.85,2.85,0,0,0-.86,1.22,4.85,4.85,0,0,0-.27,1.63,4.76,4.76,0,0,0,.27,1.63,2.82,2.82,0,0,0,.86,1.21A2.3,2.3,0,0,0,303,317.84Z"/><path class="cls-3" d="M309,318.86v-8.72h1.29v1.36h.12a2.16,2.16,0,0,1,.88-1.09,2.63,2.63,0,0,1,1.46-.39,2.54,2.54,0,0,1,1.44.39,2.64,2.64,0,0,1,.9,1.09h.09a2.56,2.56,0,0,1,1-1.08,3.11,3.11,0,0,1,1.6-.4,2.62,2.62,0,0,1,1.92.73,3.06,3.06,0,0,1,.74,2.27v5.84h-1.34V313a1.64,1.64,0,0,0-.53-1.38,1.91,1.91,0,0,0-1.24-.41,1.85,1.85,0,0,0-1.43.55,2,2,0,0,0-.5,1.4v5.68h-1.37v-6a1.6,1.6,0,0,0-.48-1.21,1.75,1.75,0,0,0-1.24-.45,1.88,1.88,0,0,0-1,.27,2.13,2.13,0,0,0-.72.77,2.24,2.24,0,0,0-.28,1.14v5.45Z"/><path class="cls-3" d="M322.94,318.86v-8.72h1.29v1.36h.12a2.16,2.16,0,0,1,.88-1.09,2.63,2.63,0,0,1,1.46-.39,2.54,2.54,0,0,1,1.44.39,2.64,2.64,0,0,1,.9,1.09h.09a2.56,2.56,0,0,1,1-1.08,3.11,3.11,0,0,1,1.6-.4,2.62,2.62,0,0,1,1.92.73,3.1,3.1,0,0,1,.74,2.27v5.84h-1.34V313a1.64,1.64,0,0,0-.53-1.38,1.91,1.91,0,0,0-1.24-.41,1.83,1.83,0,0,0-1.43.55,2,2,0,0,0-.5,1.4v5.68H328v-6a1.6,1.6,0,0,0-.48-1.21,1.75,1.75,0,0,0-1.24-.45,1.88,1.88,0,0,0-1,.27,2.25,2.25,0,0,0-.73.77,2.34,2.34,0,0,0-.27,1.14v5.45Z"/><path class="cls-3" d="M337.53,308.68a.92.92,0,0,1-.67-.27.84.84,0,0,1-.29-.64.85.85,0,0,1,.29-.64.92.92,0,0,1,.67-.27.94.94,0,0,1,.67.27.84.84,0,0,1,.28.64.83.83,0,0,1-.28.64A.94.94,0,0,1,337.53,308.68Zm-.68,10.18v-8.72h1.34v8.72Z"/><path class="cls-3" d="M344.44,310.14v1.13h-4.53v-1.13Zm-3.21-2.1h1.34v8.32a1.72,1.72,0,0,0,.17.85.87.87,0,0,0,.43.38,1.77,1.77,0,0,0,.56.09l.37,0,.22-.05.28,1.21a2.84,2.84,0,0,1-.38.1,2.78,2.78,0,0,1-1.73-.19,2.1,2.1,0,0,1-.9-.74,2.13,2.13,0,0,1-.36-1.26Z"/><path class="cls-3" d="M346.46,318.86v-8.72h1.3v1.36h.11a2.16,2.16,0,0,1,.88-1.09,2.63,2.63,0,0,1,1.46-.39,2.49,2.49,0,0,1,1.44.39,2.56,2.56,0,0,1,.9,1.09h.09a2.62,2.62,0,0,1,1-1.08,3.12,3.12,0,0,1,1.61-.4,2.6,2.6,0,0,1,1.91.73,3.06,3.06,0,0,1,.74,2.27v5.84h-1.34V313a1.66,1.66,0,0,0-.52-1.38,2,2,0,0,0-1.25-.41,1.85,1.85,0,0,0-1.43.55,2,2,0,0,0-.5,1.4v5.68h-1.36v-6a1.61,1.61,0,0,0-.49-1.21,1.73,1.73,0,0,0-1.24-.45,1.9,1.9,0,0,0-1,.27,2.13,2.13,0,0,0-.72.77,2.24,2.24,0,0,0-.28,1.14v5.45Z"/><path class="cls-3" d="M364,319a4,4,0,0,1-2.17-.56,3.68,3.68,0,0,1-1.41-1.56,5.31,5.31,0,0,1-.49-2.35,5.37,5.37,0,0,1,.49-2.37,3.86,3.86,0,0,1,1.38-1.6,3.63,3.63,0,0,1,2.06-.58,4.16,4.16,0,0,1,1.35.23,3.44,3.44,0,0,1,1.21.73,3.67,3.67,0,0,1,.87,1.35,5.86,5.86,0,0,1,.32,2.06V315h-6.73v-1.16h5.37a2.9,2.9,0,0,0-.29-1.31,2.31,2.31,0,0,0-.83-.92,2.38,2.38,0,0,0-1.27-.33,2.43,2.43,0,0,0-1.38.39,2.63,2.63,0,0,0-.9,1,3.11,3.11,0,0,0-.31,1.35v.77a3.73,3.73,0,0,0,.35,1.68,2.32,2.32,0,0,0,1,1,2.79,2.79,0,0,0,1.43.36,2.93,2.93,0,0,0,1-.15,2,2,0,0,0,.74-.46,1.94,1.94,0,0,0,.48-.75l1.3.36a3,3,0,0,1-.69,1.16,3.27,3.27,0,0,1-1.19.77A4.51,4.51,0,0,1,364,319Z"/><path class="cls-3" d="M371,313.61v5.25h-1.34v-8.72H371v1.36h.12a2.47,2.47,0,0,1,.93-1.07,2.89,2.89,0,0,1,1.61-.41,3.2,3.2,0,0,1,1.55.36,2.5,2.5,0,0,1,1,1.09,4.17,4.17,0,0,1,.37,1.85v5.54h-1.34v-5.45a2.27,2.27,0,0,0-.54-1.61,1.89,1.89,0,0,0-1.46-.57,2.41,2.41,0,0,0-1.15.27,2,2,0,0,0-.79.82A2.7,2.7,0,0,0,371,313.61Z"/><path class="cls-3" d="M382.85,310.14v1.13h-4.53v-1.13Zm-3.21-2.1H381v8.32a1.72,1.72,0,0,0,.17.85.87.87,0,0,0,.43.38,1.73,1.73,0,0,0,.56.09l.37,0,.22-.05.28,1.21a3.06,3.06,0,0,1-.39.1,2.56,2.56,0,0,1-.61.06,2.72,2.72,0,0,1-1.11-.25,2.1,2.1,0,0,1-.9-.74,2.13,2.13,0,0,1-.36-1.26Z"/><rect class="cls-5" x="209.54" y="219.3" width="189.81" height="37.67" rx="5.9"/><path class="cls-3" d="M222.69,243.51V231.88h7v1.25H224.1v3.93h5v1.25h-5v5.2Z"/><path class="cls-3" d="M236.85,240v-5.16h1.34v8.72h-1.34V242h-.09a2.86,2.86,0,0,1-1,1.12,2.73,2.73,0,0,1-1.63.47,2.93,2.93,0,0,1-1.46-.36,2.53,2.53,0,0,1-1-1.09,4.21,4.21,0,0,1-.36-1.85v-5.54h1.34v5.45a2.09,2.09,0,0,0,.54,1.52,1.78,1.78,0,0,0,1.37.57,2.32,2.32,0,0,0,1-.25,2.26,2.26,0,0,0,.87-.79A2.33,2.33,0,0,0,236.85,240Z"/><path class="cls-3" d="M242,238.26v5.25h-1.35v-8.72h1.3v1.36h.11a2.56,2.56,0,0,1,.94-1.07,2.89,2.89,0,0,1,1.61-.41,3.2,3.2,0,0,1,1.55.36,2.47,2.47,0,0,1,1,1.09,4.06,4.06,0,0,1,.37,1.85v5.54h-1.34v-5.45a2.31,2.31,0,0,0-.53-1.61,1.93,1.93,0,0,0-1.47-.57,2.24,2.24,0,0,0-1.14.28,1.87,1.87,0,0,0-.79.81A2.59,2.59,0,0,0,242,238.26Z"/><path class="cls-3" d="M253.3,243.7a3.38,3.38,0,0,1-1.92-.56,3.64,3.64,0,0,1-1.31-1.57,6.31,6.31,0,0,1,0-4.78,3.64,3.64,0,0,1,1.31-1.57,3.53,3.53,0,0,1,2-.55,2.81,2.81,0,0,1,1.34.28,2.39,2.39,0,0,1,.77.64l.41.58H256v-4.29h1.34v11.63H256v-1.34h-.16q-.15.24-.42.6a2.31,2.31,0,0,1-.78.64A2.76,2.76,0,0,1,253.3,243.7Zm.18-1.21a2.21,2.21,0,0,0,1.37-.42,2.6,2.6,0,0,0,.84-1.18,4.67,4.67,0,0,0,.29-1.74,4.72,4.72,0,0,0-.28-1.71,2.51,2.51,0,0,0-.84-1.15,2.53,2.53,0,0,0-2.79,0,2.6,2.6,0,0,0-.85,1.18,5.07,5.07,0,0,0,0,3.35,2.69,2.69,0,0,0,.85,1.21A2.21,2.21,0,0,0,253.48,242.49Z"/><path class="cls-3" d="M266.12,236.74l-1.2.34a2.56,2.56,0,0,0-.34-.59A1.56,1.56,0,0,0,264,236a2.08,2.08,0,0,0-1-.19,2.24,2.24,0,0,0-1.33.37,1.07,1.07,0,0,0-.53.93,1,1,0,0,0,.36.79,3.08,3.08,0,0,0,1.14.48l1.29.32a3.73,3.73,0,0,1,1.75.86,2.06,2.06,0,0,1,.57,1.5,2.19,2.19,0,0,1-.43,1.34,2.71,2.71,0,0,1-1.2.93,4.28,4.28,0,0,1-1.78.35,4,4,0,0,1-2.21-.58,2.61,2.61,0,0,1-1.11-1.7l1.27-.32a1.8,1.8,0,0,0,.7,1.06,2.23,2.23,0,0,0,1.33.35,2.48,2.48,0,0,0,1.49-.4,1.14,1.14,0,0,0,.55-1,1,1,0,0,0-.32-.76,2,2,0,0,0-1-.47l-1.46-.34a3.47,3.47,0,0,1-1.76-.88,2.27,2.27,0,0,1-.14-2.81,2.76,2.76,0,0,1,1.14-.89,4,4,0,0,1,1.65-.33,3.29,3.29,0,0,1,2,.57A3.11,3.11,0,0,1,266.12,236.74Z"/><path class="cls-3" d="M273.1,239.6v-1.27h7.5v1.27Zm3.11,3.12v-7.5h1.27v7.5Z"/><path class="cls-3" d="M297.39,235.51H296a2.79,2.79,0,0,0-.43-1.06,3.1,3.1,0,0,0-.75-.78,3.07,3.07,0,0,0-1-.47,3.68,3.68,0,0,0-1.11-.16,3.5,3.5,0,0,0-1.91.53,3.76,3.76,0,0,0-1.36,1.57,6.78,6.78,0,0,0,0,5.11,3.76,3.76,0,0,0,1.36,1.57,3.5,3.5,0,0,0,1.91.53,4,4,0,0,0,1.11-.15,3.31,3.31,0,0,0,1-.48,3.1,3.1,0,0,0,.75-.78,2.85,2.85,0,0,0,.43-1.06h1.41a4.58,4.58,0,0,1-.58,1.59,4.46,4.46,0,0,1-1,1.2,4.62,4.62,0,0,1-1.4.75,5.29,5.29,0,0,1-1.66.25,5,5,0,0,1-2.65-.72,5,5,0,0,1-1.82-2.07,7.91,7.91,0,0,1,0-6.37,5,5,0,0,1,1.82-2.06,4.87,4.87,0,0,1,2.65-.73,5.29,5.29,0,0,1,1.66.25,4.44,4.44,0,0,1,3,3.54Z"/><path class="cls-3" d="M303,243.7a3.73,3.73,0,0,1-3.46-2.14,5.29,5.29,0,0,1-.5-2.36,5.35,5.35,0,0,1,.5-2.38,3.7,3.7,0,0,1,1.39-1.58,4,4,0,0,1,4.14,0,3.83,3.83,0,0,1,1.39,1.58,5.35,5.35,0,0,1,.49,2.38,5.29,5.29,0,0,1-.49,2.36,3.87,3.87,0,0,1-1.39,1.57A3.74,3.74,0,0,1,303,243.7Zm0-1.21a2.3,2.3,0,0,0,1.48-.46,2.72,2.72,0,0,0,.85-1.21,4.86,4.86,0,0,0,0-3.25,2.73,2.73,0,0,0-.85-1.23,2.61,2.61,0,0,0-3,0,2.83,2.83,0,0,0-.86,1.23,5,5,0,0,0,0,3.25,2.82,2.82,0,0,0,.86,1.21A2.3,2.3,0,0,0,303,242.49Z"/><path class="cls-3" d="M309,243.51v-8.72h1.29v1.36h.12a2.16,2.16,0,0,1,.88-1.09,2.63,2.63,0,0,1,1.46-.39,2.54,2.54,0,0,1,1.44.39,2.64,2.64,0,0,1,.9,1.09h.09a2.56,2.56,0,0,1,1-1.08,3.11,3.11,0,0,1,1.6-.4,2.67,2.67,0,0,1,1.92.73,3.06,3.06,0,0,1,.74,2.27v5.84h-1.34v-5.84a1.64,1.64,0,0,0-.53-1.38,2,2,0,0,0-1.24-.41,1.85,1.85,0,0,0-1.43.55,2,2,0,0,0-.5,1.4v5.68h-1.37v-6a1.6,1.6,0,0,0-.48-1.21,1.75,1.75,0,0,0-1.24-.45,1.8,1.8,0,0,0-1,.28,2,2,0,0,0-.72.77,2.18,2.18,0,0,0-.28,1.13v5.45Z"/><path class="cls-3" d="M322.94,243.51v-8.72h1.29v1.36h.12a2.16,2.16,0,0,1,.88-1.09,2.63,2.63,0,0,1,1.46-.39,2.54,2.54,0,0,1,1.44.39,2.64,2.64,0,0,1,.9,1.09h.09a2.56,2.56,0,0,1,1-1.08,3.11,3.11,0,0,1,1.6-.4,2.67,2.67,0,0,1,1.92.73,3.1,3.1,0,0,1,.74,2.27v5.84h-1.34v-5.84a1.64,1.64,0,0,0-.53-1.38,2,2,0,0,0-1.24-.41,1.83,1.83,0,0,0-1.43.55,2,2,0,0,0-.5,1.4v5.68H328v-6a1.6,1.6,0,0,0-.48-1.21,1.75,1.75,0,0,0-1.24-.45,1.8,1.8,0,0,0-1,.28,2.08,2.08,0,0,0-.73.77,2.28,2.28,0,0,0-.27,1.13v5.45Z"/><path class="cls-3" d="M337.53,233.33a1,1,0,0,1-.67-.26.87.87,0,0,1-.29-.65.85.85,0,0,1,.29-.64.92.92,0,0,1,.67-.27.94.94,0,0,1,.67.27.84.84,0,0,1,.28.64.86.86,0,0,1-.28.65A1,1,0,0,1,337.53,233.33Zm-.68,10.18v-8.72h1.34v8.72Z"/><path class="cls-3" d="M344.44,234.79v1.13h-4.53v-1.13Zm-3.21-2.09h1.34V241a1.69,1.69,0,0,0,.17.85.82.82,0,0,0,.43.38,1.77,1.77,0,0,0,.56.09l.37,0,.22-.05.28,1.21a2.84,2.84,0,0,1-.38.1,2.71,2.71,0,0,1-.62.06,2.57,2.57,0,0,1-1.11-.25,2.08,2.08,0,0,1-1.26-2Z"/><path class="cls-3" d="M346.46,243.51v-8.72h1.3v1.36h.11a2.16,2.16,0,0,1,.88-1.09,2.63,2.63,0,0,1,1.46-.39,2.49,2.49,0,0,1,1.44.39,2.56,2.56,0,0,1,.9,1.09h.09a2.62,2.62,0,0,1,1-1.08,3.12,3.12,0,0,1,1.61-.4,2.64,2.64,0,0,1,1.91.73,3.06,3.06,0,0,1,.74,2.27v5.84h-1.34v-5.84a1.66,1.66,0,0,0-.52-1.38,2,2,0,0,0-1.25-.41,1.85,1.85,0,0,0-1.43.55,2,2,0,0,0-.5,1.4v5.68h-1.36v-6a1.61,1.61,0,0,0-.49-1.21,1.73,1.73,0,0,0-1.24-.45,1.82,1.82,0,0,0-1,.28,2,2,0,0,0-.72.77,2.18,2.18,0,0,0-.28,1.13v5.45Z"/><path class="cls-3" d="M364,243.7a4.07,4.07,0,0,1-2.17-.56,3.77,3.77,0,0,1-1.41-1.57,5.28,5.28,0,0,1-.49-2.35,5.4,5.4,0,0,1,.49-2.37,3.86,3.86,0,0,1,1.38-1.6,3.71,3.71,0,0,1,2.06-.58,4.16,4.16,0,0,1,1.35.23,3.33,3.33,0,0,1,1.21.74,3.62,3.62,0,0,1,.87,1.34,5.86,5.86,0,0,1,.32,2.06v.56h-6.73v-1.15h5.37a2.92,2.92,0,0,0-.29-1.32,2.22,2.22,0,0,0-2.1-1.25,2.43,2.43,0,0,0-1.38.39,2.71,2.71,0,0,0-.9,1,3.11,3.11,0,0,0-.31,1.35v.77a3.73,3.73,0,0,0,.35,1.68,2.4,2.4,0,0,0,1,1,2.88,2.88,0,0,0,1.43.35,2.93,2.93,0,0,0,1-.15,1.93,1.93,0,0,0,1.22-1.21l1.3.36a2.92,2.92,0,0,1-.69,1.16,3.27,3.27,0,0,1-1.19.77A4.51,4.51,0,0,1,364,243.7Z"/><path class="cls-3" d="M371,238.26v5.25h-1.34v-8.72H371v1.36h.12a2.47,2.47,0,0,1,.93-1.07,2.89,2.89,0,0,1,1.61-.41,3.2,3.2,0,0,1,1.55.36,2.5,2.5,0,0,1,1,1.09,4.2,4.2,0,0,1,.37,1.85v5.54h-1.34v-5.45a2.27,2.27,0,0,0-.54-1.61,1.89,1.89,0,0,0-1.46-.57,2.3,2.3,0,0,0-1.15.28,1.93,1.93,0,0,0-.79.81A2.7,2.7,0,0,0,371,238.26Z"/><path class="cls-3" d="M382.85,234.79v1.13h-4.53v-1.13Zm-3.21-2.09H381V241a1.69,1.69,0,0,0,.17.85.82.82,0,0,0,.43.38,1.73,1.73,0,0,0,.56.09l.37,0,.22-.05.28,1.21a3.06,3.06,0,0,1-.39.1,2.75,2.75,0,0,1-1.72-.19,2.08,2.08,0,0,1-1.26-2Z"/><path d="M19.93,130.65a3.44,3.44,0,0,1-2.19-.7,4.4,4.4,0,0,1-1.38-2,11.11,11.11,0,0,1,0-6.46,4.37,4.37,0,0,1,1.39-2,3.73,3.73,0,0,1,4.35,0,4.37,4.37,0,0,1,1.39,2,11.11,11.11,0,0,1,0,6.46,4.26,4.26,0,0,1-1.38,2A3.43,3.43,0,0,1,19.93,130.65Zm0-1.25a2.18,2.18,0,0,0,2-1.23,7.09,7.09,0,0,0,.71-3.5,9.15,9.15,0,0,0-.32-2.57,3.6,3.6,0,0,0-.92-1.62,2.05,2.05,0,0,0-1.44-.56,2.21,2.21,0,0,0-2,1.24,7.19,7.19,0,0,0-.71,3.51,9,9,0,0,0,.32,2.57,3.48,3.48,0,0,0,.92,1.61A2,2,0,0,0,19.93,129.4Z"/><path d="M27.15,121.76l2.09,3.57,2.09-3.57h1.55l-2.82,4.37,2.82,4.36H31.33l-2.09-3.39-2.09,3.39H25.61l2.77-4.36-2.77-4.37Z"/><path d="M35,130.49V118.85h7v1.25H36.38V124h5v1.25h-5v5.2Z"/><path d="M44.15,130.49v-1L48,125.26c.45-.49.83-.92,1.12-1.28a4.73,4.73,0,0,0,.65-1,2.52,2.52,0,0,0,.21-1,1.85,1.85,0,0,0-1.09-1.75,2.51,2.51,0,0,0-1.14-.25,2.29,2.29,0,0,0-1.16.28,1.84,1.84,0,0,0-.77.77,2.37,2.37,0,0,0-.27,1.16H44.2a3.45,3.45,0,0,1,.47-1.8,3.25,3.25,0,0,1,1.29-1.2,3.8,3.8,0,0,1,1.83-.43,3.7,3.7,0,0,1,1.81.43,3.23,3.23,0,0,1,1.24,1.16,3.05,3.05,0,0,1,.45,1.63,3.65,3.65,0,0,1-.23,1.26,5.71,5.71,0,0,1-.8,1.35,22.68,22.68,0,0,1-1.56,1.82l-2.62,2.8v.09h5.41v1.25Z"/><path d="M54,130.49V118.85h4.07a4.21,4.21,0,0,1,2,.42,2.78,2.78,0,0,1,1.18,1.12,3.17,3.17,0,0,1,.39,1.56,2.49,2.49,0,0,1-.27,1.23,2.1,2.1,0,0,1-.69.78,3.25,3.25,0,0,1-.93.42v.11a2.24,2.24,0,0,1,1.07.38,2.75,2.75,0,0,1,.91,1,3.16,3.16,0,0,1,.36,1.56,3.06,3.06,0,0,1-.4,1.57,2.68,2.68,0,0,1-1.25,1.11,5.3,5.3,0,0,1-2.24.41ZM55.45,124h2.61a2.52,2.52,0,0,0,1.15-.25A2,2,0,0,0,60,123a1.88,1.88,0,0,0,.3-1.06,1.76,1.76,0,0,0-.53-1.31,2.3,2.3,0,0,0-1.69-.54H55.45Zm0,5.27h2.79a2.88,2.88,0,0,0,2-.54,1.72,1.72,0,0,0,.58-1.3,2.08,2.08,0,0,0-.3-1.09,2.17,2.17,0,0,0-.86-.81,2.74,2.74,0,0,0-1.32-.3H55.45Z"/><path d="M68,130.65a3.44,3.44,0,0,1-2.19-.7,4.4,4.4,0,0,1-1.38-2,11.11,11.11,0,0,1,0-6.46,4.45,4.45,0,0,1,1.39-2,3.74,3.74,0,0,1,4.36,0,4.43,4.43,0,0,1,1.38,2,11.22,11.22,0,0,1,0,6.46,4.4,4.4,0,0,1-1.38,2A3.46,3.46,0,0,1,68,130.65Zm0-1.25a2.18,2.18,0,0,0,2-1.23,7.1,7.1,0,0,0,.7-3.5,9.15,9.15,0,0,0-.32-2.57,3.51,3.51,0,0,0-.92-1.62,2.05,2.05,0,0,0-1.44-.56,2.19,2.19,0,0,0-2,1.24,7.08,7.08,0,0,0-.71,3.51,8.7,8.7,0,0,0,.32,2.57,3.47,3.47,0,0,0,.91,1.61A2,2,0,0,0,68,129.4Z"/><path d="M77.81,130.67a3.73,3.73,0,0,1-2.11-.58,3.8,3.8,0,0,1-1.37-1.59,5.57,5.57,0,0,1-.47-2.33,5.34,5.34,0,0,1,.49-2.35,3.81,3.81,0,0,1,1.37-1.59,3.66,3.66,0,0,1,2.07-.58,3.88,3.88,0,0,1,1.66.34,3.27,3.27,0,0,1,1.21,1,2.9,2.9,0,0,1,.58,1.43H79.9a2.09,2.09,0,0,0-.68-1.06,2.05,2.05,0,0,0-1.41-.47,2.36,2.36,0,0,0-1.37.41,2.69,2.69,0,0,0-.92,1.14,4.92,4.92,0,0,0,0,3.49,2.61,2.61,0,0,0,.91,1.16,2.3,2.3,0,0,0,1.38.42,2.4,2.4,0,0,0,1-.18,2,2,0,0,0,.72-.53,1.9,1.9,0,0,0,.42-.81h1.34a3,3,0,0,1-.56,1.38,3,3,0,0,1-1.17,1A3.8,3.8,0,0,1,77.81,130.67Z"/><rect class="cls-4" x="0.5" y="106.28" width="97.8" height="37.67" rx="5.9"/><rect class="cls-1" x="420.36" y="557.34" width="97.8" height="37.67" rx="5.9"/><rect class="cls-2" x="420.36" y="508.41" width="136.95" height="37.72" rx="5.9"/><path class="cls-3" d="M435,532.09h-1.48l4.27-11.64h1.46l4.27,11.64H442l-3.47-9.8h-.1Zm.54-4.55h6v1.25h-6Z"/><path class="cls-3" d="M446.45,520.45v11.64h-1.34V520.45Z"/><path class="cls-3" d="M449.58,521.91a.94.94,0,0,1-.67-.27.84.84,0,0,1-.28-.64.86.86,0,0,1,.28-.65,1,1,0,0,1,.67-.26,1,1,0,0,1,.68.26.9.9,0,0,1,.28.65.88.88,0,0,1-.28.64A1,1,0,0,1,449.58,521.91Zm-.68,10.18v-8.73h1.34v8.73Z"/><path class="cls-3" d="M456.24,532.27a3.64,3.64,0,0,1-3.47-2.18,5.38,5.38,0,0,1-.48-2.32,5.31,5.31,0,0,1,.49-2.35,4,4,0,0,1,1.37-1.6,3.74,3.74,0,0,1,2.07-.57,3.88,3.88,0,0,1,1.66.34,3.08,3.08,0,0,1,1.21.95,3,3,0,0,1,.58,1.43h-1.34a2,2,0,0,0-2.09-1.52,2.36,2.36,0,0,0-1.37.41A2.6,2.6,0,0,0,454,526a4.16,4.16,0,0,0-.33,1.72,4.55,4.55,0,0,0,.32,1.77,2.66,2.66,0,0,0,.91,1.16,2.3,2.3,0,0,0,1.38.41,2.4,2.4,0,0,0,.95-.18,1.81,1.81,0,0,0,.72-.52,1.94,1.94,0,0,0,.42-.82h1.34a3.09,3.09,0,0,1-.55,1.39,3.16,3.16,0,0,1-1.18,1A3.8,3.8,0,0,1,456.24,532.27Z"/><path class="cls-3" d="M465.29,532.27a4.13,4.13,0,0,1-2.18-.56,3.75,3.75,0,0,1-1.4-1.57,5.25,5.25,0,0,1-.49-2.35,5.43,5.43,0,0,1,.49-2.37,3.92,3.92,0,0,1,1.38-1.6,3.7,3.7,0,0,1,2.06-.57,4.15,4.15,0,0,1,1.35.22,3.33,3.33,0,0,1,1.21.74,3.71,3.71,0,0,1,.87,1.34,5.9,5.9,0,0,1,.32,2.06v.57h-6.73V527h5.37a3,3,0,0,0-.29-1.32,2.27,2.27,0,0,0-2.1-1.25,2.36,2.36,0,0,0-1.38.4,2.61,2.61,0,0,0-.9,1,3,3,0,0,0-.31,1.35V528a3.82,3.82,0,0,0,.34,1.67,2.42,2.42,0,0,0,1,1,2.78,2.78,0,0,0,1.43.35,2.93,2.93,0,0,0,1-.15,2.08,2.08,0,0,0,.74-.45,2,2,0,0,0,.48-.76l1.3.36a2.92,2.92,0,0,1-.69,1.16,3.27,3.27,0,0,1-1.19.77A4.3,4.3,0,0,1,465.29,532.27Z"/><path class="cls-3" d="M472.13,520.45v1a3.32,3.32,0,0,1-.17,1,3.83,3.83,0,0,1-.49,1,3.71,3.71,0,0,1-.77.86l-.73-.59a6.76,6.76,0,0,0,.62-1.07,2.65,2.65,0,0,0,.27-1.18v-1Z"/><path class="cls-3" d="M478.86,525.31l-1.21.35a1.93,1.93,0,0,0-.33-.59,1.78,1.78,0,0,0-.59-.48,2.25,2.25,0,0,0-1-.18,2.35,2.35,0,0,0-1.34.36,1.12,1.12,0,0,0-.53.93.94.94,0,0,0,.37.79,3.1,3.1,0,0,0,1.13.48l1.3.32a3.56,3.56,0,0,1,1.74.87,2.07,2.07,0,0,1,.58,1.5,2.28,2.28,0,0,1-.43,1.34,3,3,0,0,1-1.2.93,4.32,4.32,0,0,1-1.78.34,3.89,3.89,0,0,1-2.21-.58,2.54,2.54,0,0,1-1.11-1.69l1.27-.32a1.78,1.78,0,0,0,.69,1.06,2.32,2.32,0,0,0,1.33.35,2.51,2.51,0,0,0,1.49-.4,1.18,1.18,0,0,0,.56-1,1,1,0,0,0-.32-.76,2,2,0,0,0-1-.46l-1.45-.34a3.43,3.43,0,0,1-1.76-.89,2.13,2.13,0,0,1-.56-1.5,2.16,2.16,0,0,1,.42-1.31,2.84,2.84,0,0,1,1.14-.89,3.92,3.92,0,0,1,1.65-.32,3.31,3.31,0,0,1,2,.56A3.07,3.07,0,0,1,478.86,525.31Z"/><path class="cls-3" d="M487.83,532.09l-3.18-11.64h1.43l2.44,9.48h.11l2.48-9.48h1.59l2.47,9.48h.12l2.43-9.48h1.43L496,532.09h-1.45L492,522.81h-.09l-2.57,9.28Z"/><path class="cls-3" d="M502.47,532.29A3.55,3.55,0,0,1,501,532a2.53,2.53,0,0,1-1.07-.92,2.6,2.6,0,0,1-.4-1.45,2.23,2.23,0,0,1,.3-1.22,2.05,2.05,0,0,1,.79-.73,4.17,4.17,0,0,1,1.09-.41c.4-.08.8-.16,1.21-.21l1.29-.15a2,2,0,0,0,.73-.19.49.49,0,0,0,.23-.45v0a1.77,1.77,0,0,0-.46-1.31,1.86,1.86,0,0,0-1.38-.46,2.44,2.44,0,0,0-1.51.42,2.41,2.41,0,0,0-.76.9l-1.28-.46a3.11,3.11,0,0,1,.91-1.24,3.51,3.51,0,0,1,1.25-.63,5.72,5.72,0,0,1,1.34-.17,5.15,5.15,0,0,1,1,.1,3,3,0,0,1,1.06.4,2.43,2.43,0,0,1,.86.93,3.39,3.39,0,0,1,.34,1.66v5.75h-1.34v-1.18h-.07a2.4,2.4,0,0,1-.45.6,2.66,2.66,0,0,1-.85.55A3.1,3.1,0,0,1,502.47,532.29Zm.2-1.2a2.7,2.7,0,0,0,1.35-.32,2.13,2.13,0,0,0,.83-.8,2.06,2.06,0,0,0,.28-1V527.7a.82.82,0,0,1-.37.19c-.19.05-.41.1-.66.14l-.72.1-.57.07a5.52,5.52,0,0,0-1,.22,1.68,1.68,0,0,0-.73.45,1.17,1.17,0,0,0-.28.81,1.21,1.21,0,0,0,.52,1.05A2.28,2.28,0,0,0,502.67,531.09Z"/><path class="cls-3" d="M510.27,520.45v11.64h-1.35V520.45Z"/><path class="cls-3" d="M514.06,520.45v11.64h-1.34V520.45Z"/><path class="cls-3" d="M520.17,532.27a4.1,4.1,0,0,1-2.17-.56,3.62,3.62,0,0,1-1.4-1.57,5.25,5.25,0,0,1-.49-2.35,5.43,5.43,0,0,1,.49-2.37,3.83,3.83,0,0,1,1.37-1.6,3.74,3.74,0,0,1,2.07-.57,4.14,4.14,0,0,1,1.34.22,3.25,3.25,0,0,1,1.21.74,3.46,3.46,0,0,1,.87,1.34,5.67,5.67,0,0,1,.33,2.06v.57h-6.73V527h5.36a2.85,2.85,0,0,0-.29-1.32,2.15,2.15,0,0,0-.83-.91,2.29,2.29,0,0,0-1.26-.34,2.37,2.37,0,0,0-1.39.4,2.66,2.66,0,0,0-.89,1,3,3,0,0,0-.31,1.35V528a3.68,3.68,0,0,0,.34,1.67,2.42,2.42,0,0,0,1,1,2.75,2.75,0,0,0,1.42.35,2.85,2.85,0,0,0,1-.15,2,2,0,0,0,.74-.45,2.12,2.12,0,0,0,.49-.76l1.29.36a2.81,2.81,0,0,1-.69,1.16,3.27,3.27,0,0,1-1.19.77A4.26,4.26,0,0,1,520.17,532.27Z"/><path class="cls-3" d="M529.63,523.36v1.14h-4.52v-1.14Zm-3.21-2.09h1.35v8.32a1.73,1.73,0,0,0,.16.85.85.85,0,0,0,.43.37,1.78,1.78,0,0,0,.56.1,1.9,1.9,0,0,0,.37,0l.23,0,.27,1.2a2.64,2.64,0,0,1-.38.11,3.53,3.53,0,0,1-.62.05,2.71,2.71,0,0,1-1.11-.24,2.24,2.24,0,0,1-.9-.75,2.09,2.09,0,0,1-.36-1.26Z"/><path class="cls-3" d="M536.13,532.09v-1l3.84-4.2q.67-.74,1.11-1.29a4.68,4.68,0,0,0,.65-1,2.43,2.43,0,0,0,.22-1,1.86,1.86,0,0,0-.3-1.06,2,2,0,0,0-.79-.7,2.64,2.64,0,0,0-1.14-.24,2.41,2.41,0,0,0-1.17.27,2,2,0,0,0-.77.77,2.39,2.39,0,0,0-.27,1.16h-1.34a3.3,3.3,0,0,1,.48-1.79,3.24,3.24,0,0,1,1.28-1.21,4,4,0,0,1,1.83-.43,3.82,3.82,0,0,1,1.82.43,3.32,3.32,0,0,1,1.24,1.17,3,3,0,0,1,.44,1.63,3.38,3.38,0,0,1-.23,1.25,5.35,5.35,0,0,1-.79,1.36,23.11,23.11,0,0,1-1.57,1.82l-2.61,2.8v.09h5.41v1.25Z"/><path d="M439.78,581.71a3.48,3.48,0,0,1-2.19-.7,4.4,4.4,0,0,1-1.38-2,9.9,9.9,0,0,1-.47-3.24,9.58,9.58,0,0,1,.48-3.22,4.49,4.49,0,0,1,1.38-2,3.74,3.74,0,0,1,4.36,0,4.43,4.43,0,0,1,1.39,2,11.11,11.11,0,0,1,0,6.46,4.4,4.4,0,0,1-1.38,2A3.44,3.44,0,0,1,439.78,581.71Zm0-1.25a2.18,2.18,0,0,0,2-1.23,7.08,7.08,0,0,0,.7-3.5,8.8,8.8,0,0,0-.32-2.57,3.51,3.51,0,0,0-.92-1.62,2.05,2.05,0,0,0-1.44-.56,2.18,2.18,0,0,0-2,1.25,7.12,7.12,0,0,0-.71,3.5,9,9,0,0,0,.32,2.57,3.48,3.48,0,0,0,.92,1.61A2,2,0,0,0,439.78,580.46Z"/><path d="M447,572.83l2.09,3.56,2.09-3.56h1.55l-2.82,4.36,2.82,4.36h-1.55l-2.09-3.38L447,581.55h-1.55l2.78-4.36-2.78-4.36Z"/><path d="M458.53,572.83V574h-4.7v-1.13Zm-3.29,8.72v-9.93a2.07,2.07,0,0,1,.35-1.25,2.22,2.22,0,0,1,.91-.75,2.89,2.89,0,0,1,1.19-.25,3.56,3.56,0,0,1,.81.08,2.23,2.23,0,0,1,.46.15l-.38,1.16-.28-.09a2,2,0,0,0-.47,0,1.19,1.19,0,0,0-1,.34,1.47,1.47,0,0,0-.29,1v9.61Z"/><path d="M463.35,581.73a3.41,3.41,0,0,1-1.93-.55,3.69,3.69,0,0,1-1.3-1.57,6.31,6.31,0,0,1,0-4.78,3.64,3.64,0,0,1,1.31-1.57,3.52,3.52,0,0,1,1.94-.55,2.83,2.83,0,0,1,1.35.28,2.34,2.34,0,0,1,.76.64c.18.24.32.43.42.58H466v-4.29h1.34v11.63h-1.3v-1.34h-.15a6.75,6.75,0,0,1-.43.6,2.37,2.37,0,0,1-.77.64A2.76,2.76,0,0,1,463.35,581.73Zm.18-1.2a2.23,2.23,0,0,0,1.37-.42,2.65,2.65,0,0,0,.84-1.18,4.67,4.67,0,0,0,.29-1.74,4.72,4.72,0,0,0-.28-1.71,2.51,2.51,0,0,0-.84-1.15,2.24,2.24,0,0,0-1.38-.41,2.26,2.26,0,0,0-1.42.43,2.58,2.58,0,0,0-.84,1.18,4.59,4.59,0,0,0-.28,1.66,4.79,4.79,0,0,0,.28,1.69,2.68,2.68,0,0,0,.85,1.2A2.2,2.2,0,0,0,463.53,580.53Z"/><path d="M473.6,581.71a3.91,3.91,0,0,1-1.8-.4,3.27,3.27,0,0,1-1.29-1.09,3,3,0,0,1-.52-1.58h1.36a1.85,1.85,0,0,0,.72,1.31,2.35,2.35,0,0,0,1.53.51,2.43,2.43,0,0,0,1.27-.33,2.48,2.48,0,0,0,.89-.93,2.75,2.75,0,0,0,.32-1.33,2.67,2.67,0,0,0-.34-1.36,2.51,2.51,0,0,0-.91-1,2.62,2.62,0,0,0-1.32-.35,3.9,3.9,0,0,0-1.1.16,3.43,3.43,0,0,0-.92.43l-1.32-.16.7-5.72h6.05v1.25h-4.87l-.4,3.43h.06a2.94,2.94,0,0,1,.9-.47,3.31,3.31,0,0,1,1.13-.19,3.58,3.58,0,0,1,3.22,1.9,4.09,4.09,0,0,1,.48,2,3.94,3.94,0,0,1-.5,2,3.61,3.61,0,0,1-1.36,1.38A3.94,3.94,0,0,1,473.6,581.71Z"/><path d="M479.42,579.17V578l5.11-8.09h.84v1.79h-.57l-3.86,6.12v.09h6.89v1.25Zm5.48,2.38V569.92h1.34v11.63Z"/><path d="M493.76,581.71a3.44,3.44,0,0,1-2.19-.7,4.4,4.4,0,0,1-1.38-2,11.11,11.11,0,0,1,0-6.46,4.5,4.5,0,0,1,1.39-2,3.74,3.74,0,0,1,4.36,0,4.49,4.49,0,0,1,1.38,2,11.22,11.22,0,0,1,0,6.46,4.4,4.4,0,0,1-1.38,2A3.48,3.48,0,0,1,493.76,581.71Zm0-1.25a2.18,2.18,0,0,0,2-1.23,7.08,7.08,0,0,0,.7-3.5,9.15,9.15,0,0,0-.32-2.57,3.6,3.6,0,0,0-.92-1.62,2.05,2.05,0,0,0-1.44-.56,2.18,2.18,0,0,0-2,1.25,7,7,0,0,0-.71,3.5,8.7,8.7,0,0,0,.32,2.57,3.47,3.47,0,0,0,.91,1.61A2,2,0,0,0,493.76,580.46Z"/><rect class="cls-4" x="420.36" y="557.34" width="97.8" height="37.67" rx="5.9"/><rect class="cls-1" x="0.5" y="219.3" width="97.8" height="37.67" rx="5.9"/><rect class="cls-2" x="0.5" y="170.37" width="136.95" height="37.72" rx="5.9"/><path class="cls-3" d="M15.78,194.05V182.41h4.07a4.24,4.24,0,0,1,2,.42A2.78,2.78,0,0,1,23,184a3.23,3.23,0,0,1,.38,1.55,2.53,2.53,0,0,1-.26,1.24,2.15,2.15,0,0,1-.69.77,3.25,3.25,0,0,1-.93.42v.12a2.33,2.33,0,0,1,1.07.37,2.76,2.76,0,0,1,.9,1,3,3,0,0,1,.37,1.56,3.06,3.06,0,0,1-.4,1.57,2.68,2.68,0,0,1-1.25,1.11,5.3,5.3,0,0,1-2.24.41Zm1.41-6.52H19.8a2.69,2.69,0,0,0,1.15-.25,2.1,2.1,0,0,0,.82-.71,1.89,1.89,0,0,0,.3-1.07,1.76,1.76,0,0,0-.53-1.3,2.3,2.3,0,0,0-1.69-.54H17.19Zm0,5.27H20a2.84,2.84,0,0,0,2-.54,1.71,1.71,0,0,0,.59-1.3,2.12,2.12,0,0,0-.3-1.1,2.22,2.22,0,0,0-.86-.8,2.63,2.63,0,0,0-1.32-.31H17.19Z"/><path class="cls-3" d="M29.55,194.23a3.68,3.68,0,0,1-3.46-2.14,5.29,5.29,0,0,1-.49-2.36,5.38,5.38,0,0,1,.49-2.38,3.83,3.83,0,0,1,6.92,0,5.38,5.38,0,0,1,.49,2.38,5.29,5.29,0,0,1-.49,2.36,3.68,3.68,0,0,1-3.46,2.14Zm0-1.2a2.35,2.35,0,0,0,1.48-.46,2.85,2.85,0,0,0,.86-1.22,4.75,4.75,0,0,0,.27-1.62,4.81,4.81,0,0,0-.27-1.63,2.85,2.85,0,0,0-.86-1.22,2.57,2.57,0,0,0-3,0,2.75,2.75,0,0,0-.85,1.22,4.58,4.58,0,0,0-.28,1.63,4.52,4.52,0,0,0,.28,1.62,2.75,2.75,0,0,0,.85,1.22A2.35,2.35,0,0,0,29.55,193Z"/><path class="cls-3" d="M35.73,194.05V182.41h1.34v4.3h.12c.09-.15.23-.35.41-.59a2.46,2.46,0,0,1,.76-.63,2.71,2.71,0,0,1,1.35-.28,3.44,3.44,0,0,1,1.94.55A3.67,3.67,0,0,1,43,187.32a5.51,5.51,0,0,1,.48,2.39,5.59,5.59,0,0,1-.48,2.4,3.75,3.75,0,0,1-1.3,1.57,3.41,3.41,0,0,1-1.93.55,2.7,2.7,0,0,1-1.34-.28,2.44,2.44,0,0,1-.78-.64,4.89,4.89,0,0,1-.42-.6H37v1.34Zm1.32-4.37a5,5,0,0,0,.29,1.75,2.58,2.58,0,0,0,.85,1.17,2.4,2.4,0,0,0,2.77,0,2.77,2.77,0,0,0,.85-1.21,4.71,4.71,0,0,0,.29-1.69,4.63,4.63,0,0,0-.29-1.66,2.6,2.6,0,0,0-.84-1.17,2.27,2.27,0,0,0-1.42-.44,2.3,2.3,0,0,0-1.38.41,2.56,2.56,0,0,0-.84,1.15A4.72,4.72,0,0,0,37.05,189.68Z"/><path class="cls-3" d="M46.66,182.41v1a3.36,3.36,0,0,1-.16,1,4.48,4.48,0,0,1-.49,1,3.78,3.78,0,0,1-.78.86l-.73-.59a7.69,7.69,0,0,0,.63-1.07,2.79,2.79,0,0,0,.26-1.18v-1.05Z"/><path class="cls-3" d="M53.39,187.28l-1.2.34a2.37,2.37,0,0,0-.34-.59,1.68,1.68,0,0,0-.59-.48,2.22,2.22,0,0,0-1-.18,2.32,2.32,0,0,0-1.33.36,1.09,1.09,0,0,0-.53.93,1,1,0,0,0,.36.79,2.92,2.92,0,0,0,1.14.48l1.29.32a3.64,3.64,0,0,1,1.75.87,2.06,2.06,0,0,1,.57,1.5,2.21,2.21,0,0,1-.43,1.34,2.92,2.92,0,0,1-1.2.93,4.28,4.28,0,0,1-1.78.34,3.89,3.89,0,0,1-2.21-.58A2.61,2.61,0,0,1,46.82,192l1.28-.32a1.78,1.78,0,0,0,.69,1.06,2.3,2.3,0,0,0,1.33.35,2.55,2.55,0,0,0,1.49-.4,1.17,1.17,0,0,0,.55-1,1,1,0,0,0-.31-.76,2,2,0,0,0-1-.46l-1.46-.34a3.47,3.47,0,0,1-1.76-.89,2.12,2.12,0,0,1-.55-1.5,2.22,2.22,0,0,1,.41-1.31,2.84,2.84,0,0,1,1.14-.89,4.15,4.15,0,0,1,1.65-.32,3.29,3.29,0,0,1,2,.57A3,3,0,0,1,53.39,187.28Z"/><path class="cls-3" d="M62.37,194.05l-3.18-11.64h1.43l2.43,9.48h.11l2.48-9.48h1.59l2.48,9.48h.11l2.43-9.48h1.44L70.5,194.05H69.05l-2.57-9.27h-.09l-2.57,9.27Z"/><path class="cls-3" d="M77,194.25a3.5,3.5,0,0,1-1.5-.31A2.46,2.46,0,0,1,74,191.57a2.32,2.32,0,0,1,.29-1.22,2.05,2.05,0,0,1,.79-.73,3.89,3.89,0,0,1,1.1-.4c.4-.09.8-.16,1.2-.22l1.3-.15a1.93,1.93,0,0,0,.72-.19.47.47,0,0,0,.23-.45v-.05a1.83,1.83,0,0,0-.45-1.31,1.88,1.88,0,0,0-1.39-.46,2.39,2.39,0,0,0-1.5.42,2.45,2.45,0,0,0-.77.9l-1.27-.46a3,3,0,0,1,.91-1.24,3.41,3.41,0,0,1,1.25-.62,4.94,4.94,0,0,1,2.31-.08,3.12,3.12,0,0,1,1.06.4,2.41,2.41,0,0,1,.85.93A3.39,3.39,0,0,1,81,188.3v5.75H79.66v-1.18h-.07a2.23,2.23,0,0,1-.45.6,2.62,2.62,0,0,1-.85.56A3.28,3.28,0,0,1,77,194.25Zm.21-1.2a2.74,2.74,0,0,0,1.34-.31,2.16,2.16,0,0,0,.83-.81,2.06,2.06,0,0,0,.28-1v-1.23a.77.77,0,0,1-.37.19c-.19.05-.41.1-.66.14l-.72.1-.57.07a5.73,5.73,0,0,0-1,.22,1.74,1.74,0,0,0-.73.45,1.17,1.17,0,0,0-.27.81,1.18,1.18,0,0,0,.52,1.05A2.24,2.24,0,0,0,77.21,193.05Z"/><path class="cls-3" d="M84.8,182.41v11.64H83.46V182.41Z"/><path class="cls-3" d="M88.59,182.41v11.64H87.25V182.41Z"/><path class="cls-3" d="M94.71,194.23a4.07,4.07,0,0,1-2.17-.56,3.71,3.71,0,0,1-1.41-1.57,5.25,5.25,0,0,1-.49-2.35,5.35,5.35,0,0,1,.49-2.36,3.89,3.89,0,0,1,1.38-1.61,3.7,3.7,0,0,1,2.06-.57,4.15,4.15,0,0,1,1.35.22,3.47,3.47,0,0,1,1.21.74,3.71,3.71,0,0,1,.87,1.34,5.9,5.9,0,0,1,.32,2.06v.57H91.6V189H97a3,3,0,0,0-.29-1.32,2.35,2.35,0,0,0-.83-.91,2.3,2.3,0,0,0-1.27-.34,2.36,2.36,0,0,0-1.38.4,2.61,2.61,0,0,0-.9,1,3.11,3.11,0,0,0-.31,1.35V190a3.82,3.82,0,0,0,.34,1.67,2.42,2.42,0,0,0,1,1,2.79,2.79,0,0,0,1.43.36,2.69,2.69,0,0,0,1-.16,2.08,2.08,0,0,0,.74-.45,2,2,0,0,0,.48-.76l1.3.37a3,3,0,0,1-.69,1.15,3.27,3.27,0,0,1-1.19.77A4.3,4.3,0,0,1,94.71,194.23Z"/><path class="cls-3" d="M104.16,185.32v1.14H99.64v-1.14Zm-3.2-2.09h1.34v8.32a1.72,1.72,0,0,0,.17.85.77.77,0,0,0,.43.37,1.47,1.47,0,0,0,.56.1,1.73,1.73,0,0,0,.36,0l.23,0,.27,1.2a2.64,2.64,0,0,1-.38.11,3.44,3.44,0,0,1-.62,0,2.71,2.71,0,0,1-1.11-.24,2.24,2.24,0,0,1-.9-.75,2.16,2.16,0,0,1-.35-1.26Z"/><path class="cls-3" d="M114.75,182.41v11.64h-1.41V183.89h-.06l-2.84,1.89v-1.44l2.9-1.93Z"/><rect class="cls-2" x="469.34" y="219.28" width="189.68" height="37.72" rx="5.9"/><path class="cls-3" d="M482.86,243V231.32h4.07a4.28,4.28,0,0,1,2,.42,2.76,2.76,0,0,1,1.17,1.12,3.1,3.1,0,0,1,.39,1.55,2.56,2.56,0,0,1-.27,1.24,2.06,2.06,0,0,1-.69.77,3.25,3.25,0,0,1-.93.42V237a2.22,2.22,0,0,1,1.08.37,2.68,2.68,0,0,1,.9,1,3.09,3.09,0,0,1,.36,1.55,3.19,3.19,0,0,1-.39,1.58,2.88,2.88,0,0,1-1.26,1.11,5.26,5.26,0,0,1-2.23.41Zm1.41-6.53h2.61a2.6,2.6,0,0,0,1.16-.25,2,2,0,0,0,.81-.7,1.82,1.82,0,0,0,.31-1.07,1.75,1.75,0,0,0-.54-1.3,2.29,2.29,0,0,0-1.69-.54h-2.66Zm0,5.28h2.8a2.85,2.85,0,0,0,2-.54,1.7,1.7,0,0,0,.58-1.31,2.11,2.11,0,0,0-.3-1.09,2.32,2.32,0,0,0-.86-.81,2.74,2.74,0,0,0-1.32-.3h-2.86Z"/><path class="cls-3" d="M494.43,231.32V243h-1.34V231.32Z"/><path class="cls-3" d="M499.45,243.16a3.51,3.51,0,0,1-1.5-.32,2.43,2.43,0,0,1-1.47-2.36,2.23,2.23,0,0,1,.29-1.22,2.16,2.16,0,0,1,.79-.74,4.54,4.54,0,0,1,1.09-.4c.4-.09.81-.16,1.21-.21l1.29-.16a1.78,1.78,0,0,0,.73-.18.47.47,0,0,0,.23-.46v0a1.77,1.77,0,0,0-.46-1.31,1.84,1.84,0,0,0-1.38-.46,2.39,2.39,0,0,0-1.5.42,2.5,2.5,0,0,0-.77.89l-1.27-.45a3,3,0,0,1,.91-1.24,3.36,3.36,0,0,1,1.25-.63,5.2,5.2,0,0,1,1.34-.18,6,6,0,0,1,1,.1,3.43,3.43,0,0,1,1.07.41,2.34,2.34,0,0,1,.85.93,3.39,3.39,0,0,1,.34,1.66V243h-1.34v-1.19H502a2.26,2.26,0,0,1-.45.61,2.55,2.55,0,0,1-.85.55A3.27,3.27,0,0,1,499.45,243.16Zm.21-1.2a2.63,2.63,0,0,0,1.34-.32,2.13,2.13,0,0,0,.83-.8,2.06,2.06,0,0,0,.28-1v-1.23a.7.7,0,0,1-.37.18,4.64,4.64,0,0,1-.66.15l-.72.1-.57.07a4.75,4.75,0,0,0-1,.22,1.74,1.74,0,0,0-.73.45,1.17,1.17,0,0,0-.27.81,1.19,1.19,0,0,0,.52,1A2.24,2.24,0,0,0,499.66,242Z"/><path class="cls-3" d="M507.25,237.71V243h-1.34v-8.73h1.29v1.36h.12a2.47,2.47,0,0,1,.93-1.07,2.89,2.89,0,0,1,1.61-.41,3.09,3.09,0,0,1,1.55.37,2.44,2.44,0,0,1,1,1.09,4.12,4.12,0,0,1,.37,1.84V243h-1.34V237.5a2.25,2.25,0,0,0-.54-1.6,1.88,1.88,0,0,0-1.46-.58,2.3,2.3,0,0,0-1.15.28,1.87,1.87,0,0,0-.79.81A2.63,2.63,0,0,0,507.25,237.71Z"/><path class="cls-3" d="M515.27,243V231.32h1.34V243Zm1.25-3.19,0-1.66h.27l3.82-3.88h1.66l-4.07,4.11h-.11Zm4.3,3.19-3.41-4.32,1-.93,4.16,5.25Z"/><path class="cls-3" d="M535,234.23a1.77,1.77,0,0,0-.83-1.34,3.15,3.15,0,0,0-1.78-.48,3.29,3.29,0,0,0-1.35.25,2.13,2.13,0,0,0-.9.69,1.65,1.65,0,0,0-.32,1,1.39,1.39,0,0,0,.22.8,1.8,1.8,0,0,0,.58.55,3.38,3.38,0,0,0,.74.36,7,7,0,0,0,.71.22l1.18.32c.3.08.64.19,1,.33a4.66,4.66,0,0,1,1.08.57,2.92,2.92,0,0,1,.85.93,2.66,2.66,0,0,1,.33,1.38,3,3,0,0,1-.49,1.7,3.37,3.37,0,0,1-1.43,1.21,6,6,0,0,1-4.44,0,3.49,3.49,0,0,1-1.44-1.13,3.19,3.19,0,0,1-.58-1.67h1.45a1.8,1.8,0,0,0,.45,1.08,2.33,2.33,0,0,0,1,.64,3.88,3.88,0,0,0,1.29.21,3.71,3.71,0,0,0,1.45-.27,2.34,2.34,0,0,0,1-.74,1.72,1.72,0,0,0,.38-1.11,1.39,1.39,0,0,0-.32-.94,2.39,2.39,0,0,0-.86-.59,10.1,10.1,0,0,0-1.14-.4l-1.43-.41a5.25,5.25,0,0,1-2.16-1.12,2.45,2.45,0,0,1-.79-1.9,2.8,2.8,0,0,1,.53-1.71,3.52,3.52,0,0,1,1.43-1.13,4.85,4.85,0,0,1,2-.41,4.7,4.7,0,0,1,2,.4,3.48,3.48,0,0,1,1.39,1.09,2.78,2.78,0,0,1,.54,1.58Z"/><path class="cls-3" d="M538.68,243v-8.73H540v1.36h.11a2.2,2.2,0,0,1,.88-1.09,2.63,2.63,0,0,1,1.46-.39,2.49,2.49,0,0,1,1.44.39,2.7,2.7,0,0,1,.9,1.09h.09a2.56,2.56,0,0,1,1-1.08,3.12,3.12,0,0,1,1.61-.4,2.64,2.64,0,0,1,1.91.73,3.06,3.06,0,0,1,.74,2.27V243h-1.34v-5.85a1.64,1.64,0,0,0-.53-1.38,2,2,0,0,0-1.24-.41,1.85,1.85,0,0,0-1.43.55,2,2,0,0,0-.5,1.4V243h-1.36v-6a1.57,1.57,0,0,0-.49-1.2,1.7,1.7,0,0,0-1.24-.46,1.8,1.8,0,0,0-1,.28,2,2,0,0,0-.72.77,2.2,2.2,0,0,0-.28,1.13V243Z"/><path class="cls-3" d="M555.16,243.16a3.52,3.52,0,0,1-1.51-.32,2.47,2.47,0,0,1-1.47-2.36,2.23,2.23,0,0,1,.3-1.22,2.06,2.06,0,0,1,.78-.74,4.62,4.62,0,0,1,1.1-.4,12.23,12.23,0,0,1,1.21-.21l1.29-.16a1.88,1.88,0,0,0,.73-.18.49.49,0,0,0,.23-.46v0a1.82,1.82,0,0,0-.46-1.31,1.87,1.87,0,0,0-1.38-.46,2.4,2.4,0,0,0-1.51.42,2.61,2.61,0,0,0-.77.89l-1.27-.45a3.11,3.11,0,0,1,.91-1.24,3.43,3.43,0,0,1,1.25-.63,5.2,5.2,0,0,1,1.34-.18,6.26,6.26,0,0,1,1,.1,3.37,3.37,0,0,1,1.06.41,2.36,2.36,0,0,1,.86.93,3.51,3.51,0,0,1,.34,1.66V243h-1.34v-1.19h-.07a2.32,2.32,0,0,1-.46.61,2.5,2.5,0,0,1-.84.55A3.34,3.34,0,0,1,555.16,243.16Zm.2-1.2a2.63,2.63,0,0,0,1.34-.32,2.12,2.12,0,0,0,1.12-1.84v-1.23a.78.78,0,0,1-.38.18,4.64,4.64,0,0,1-.66.15l-.72.1-.56.07a4.85,4.85,0,0,0-1,.22,1.64,1.64,0,0,0-.72.45,1.13,1.13,0,0,0-.28.81,1.19,1.19,0,0,0,.52,1A2.28,2.28,0,0,0,555.36,242Z"/><path class="cls-3" d="M561.61,243v-8.73h1.3v1.32H563a2.07,2.07,0,0,1,.86-1.06,2.63,2.63,0,0,1,1.41-.4H566v1.37l-.32-.06a4.07,4.07,0,0,0-.5,0,2.46,2.46,0,0,0-1.14.26,2,2,0,0,0-.78.73,2,2,0,0,0-.29,1.05V243Z"/><path class="cls-3" d="M571.91,234.23v1.13h-4.53v-1.13Zm-3.21-2.09H570v8.32a1.68,1.68,0,0,0,.17.84.82.82,0,0,0,.43.38,1.73,1.73,0,0,0,.56.09l.37,0,.22,0,.28,1.2a3.06,3.06,0,0,1-.39.1,2.56,2.56,0,0,1-.61.06,2.64,2.64,0,0,1-1.12-.25,2.13,2.13,0,0,1-.89-.74,2.09,2.09,0,0,1-.36-1.26Z"/><path class="cls-3" d="M588,235h-1.4a2.94,2.94,0,0,0-.44-1.07,3.07,3.07,0,0,0-1.72-1.25,3.79,3.79,0,0,0-1.12-.16,3.59,3.59,0,0,0-1.91.53,3.73,3.73,0,0,0-1.36,1.58,5.88,5.88,0,0,0-.5,2.55,6,6,0,0,0,.5,2.55,3.7,3.7,0,0,0,1.36,1.57,3.51,3.51,0,0,0,1.91.54,4.15,4.15,0,0,0,1.12-.16,3.38,3.38,0,0,0,1-.48,3.1,3.1,0,0,0,.75-.78,3,3,0,0,0,.44-1.06H588a4.83,4.83,0,0,1-.57,1.6,4.45,4.45,0,0,1-1,1.19,4.5,4.5,0,0,1-1.4.75,5.29,5.29,0,0,1-1.66.25,4.89,4.89,0,0,1-2.64-.72,5,5,0,0,1-1.83-2.07,8,8,0,0,1,0-6.36,4.87,4.87,0,0,1,1.83-2.07,4.81,4.81,0,0,1,2.64-.73,5,5,0,0,1,1.66.26,4.69,4.69,0,0,1,1.4.74,4.5,4.5,0,0,1,1,1.2A4.68,4.68,0,0,1,588,235Z"/><path class="cls-3" d="M593.61,243.14a3.74,3.74,0,0,1-2.07-.57,3.8,3.8,0,0,1-1.39-1.57,5.29,5.29,0,0,1-.49-2.36,5.35,5.35,0,0,1,.49-2.38,3.83,3.83,0,0,1,1.39-1.58,3.83,3.83,0,0,1,5.53,1.58,5.35,5.35,0,0,1,.5,2.38,5.29,5.29,0,0,1-.5,2.36,3.73,3.73,0,0,1-3.46,2.14Zm0-1.21a2.3,2.3,0,0,0,1.48-.46,2.76,2.76,0,0,0,.86-1.21,5,5,0,0,0,0-3.25,2.89,2.89,0,0,0-.86-1.23,2.61,2.61,0,0,0-3,0,2.78,2.78,0,0,0-.85,1.23,4.86,4.86,0,0,0,0,3.25,2.67,2.67,0,0,0,.85,1.21A2.3,2.3,0,0,0,593.61,241.93Z"/><path class="cls-3" d="M601,237.71V243h-1.34v-8.73h1.3v1.36H601a2.47,2.47,0,0,1,.93-1.07,3,3,0,0,1,1.62-.41,3.12,3.12,0,0,1,1.55.37,2.48,2.48,0,0,1,1,1.09,4,4,0,0,1,.37,1.84V243h-1.34V237.5a2.25,2.25,0,0,0-.54-1.6,1.86,1.86,0,0,0-1.46-.58,2.3,2.3,0,0,0-1.15.28,1.93,1.93,0,0,0-.79.81A2.74,2.74,0,0,0,601,237.71Z"/><path class="cls-3" d="M612.77,234.23v1.13h-4.52v-1.13Zm-3.2-2.09h1.34v8.32a1.69,1.69,0,0,0,.16.84.86.86,0,0,0,.43.38,1.79,1.79,0,0,0,.57.09l.36,0,.23,0,.27,1.2a2.84,2.84,0,0,1-.38.1,2.65,2.65,0,0,1-.62.06,2.57,2.57,0,0,1-1.11-.25,2.22,2.22,0,0,1-.9-.74,2.08,2.08,0,0,1-.35-1.26Z"/><path class="cls-3" d="M614.79,243v-8.73h1.3v1.32h.09a2.12,2.12,0,0,1,.86-1.06,2.63,2.63,0,0,1,1.41-.4h.7v1.37l-.3-.06a4.24,4.24,0,0,0-.51,0,2.49,2.49,0,0,0-1.14.26,2,2,0,0,0-.78.73,2,2,0,0,0-.29,1.05V243Z"/><path class="cls-3" d="M623.32,243.16a3.52,3.52,0,0,1-1.51-.32,2.47,2.47,0,0,1-1.47-2.36,2.32,2.32,0,0,1,.29-1.22,2.16,2.16,0,0,1,.79-.74,4.62,4.62,0,0,1,1.1-.4q.6-.13,1.2-.21l1.3-.16a1.78,1.78,0,0,0,.72-.18.47.47,0,0,0,.23-.46v0a1.81,1.81,0,0,0-.45-1.31,1.88,1.88,0,0,0-1.39-.46,2.39,2.39,0,0,0-1.5.42,2.5,2.5,0,0,0-.77.89l-1.27-.45a3.11,3.11,0,0,1,.91-1.24,3.43,3.43,0,0,1,1.25-.63,5.2,5.2,0,0,1,1.34-.18,6.26,6.26,0,0,1,1,.1,3.37,3.37,0,0,1,1.06.41,2.27,2.27,0,0,1,.85.93,3.39,3.39,0,0,1,.35,1.66V243H626v-1.19h-.07a2.07,2.07,0,0,1-.45.61,2.45,2.45,0,0,1-.85.55A3.25,3.25,0,0,1,623.32,243.16Zm.2-1.2a2.63,2.63,0,0,0,1.34-.32,2.13,2.13,0,0,0,.83-.8,2.06,2.06,0,0,0,.28-1v-1.23a.7.7,0,0,1-.37.18,4.64,4.64,0,0,1-.66.15l-.72.1-.57.07a4.91,4.91,0,0,0-1,.22,1.74,1.74,0,0,0-.73.45,1.17,1.17,0,0,0-.27.81,1.19,1.19,0,0,0,.52,1A2.26,2.26,0,0,0,623.52,242Z"/><path class="cls-3" d="M633.32,243.14a3.64,3.64,0,0,1-3.48-2.18,5.38,5.38,0,0,1-.48-2.32,5.31,5.31,0,0,1,.49-2.35,3.92,3.92,0,0,1,1.38-1.6,3.71,3.71,0,0,1,2.06-.58,3.85,3.85,0,0,1,1.66.35,3.08,3.08,0,0,1,1.21.95,3,3,0,0,1,.59,1.43h-1.34a2.15,2.15,0,0,0-.68-1.06,2,2,0,0,0-1.41-.46,2.3,2.3,0,0,0-1.38.41,2.67,2.67,0,0,0-.91,1.14,4.16,4.16,0,0,0-.33,1.72,4.5,4.5,0,0,0,.32,1.76,2.77,2.77,0,0,0,.91,1.17,2.55,2.55,0,0,0,2.33.23,1.91,1.91,0,0,0,.73-.52,2.2,2.2,0,0,0,.42-.82h1.34a3.1,3.1,0,0,1-.56,1.39,3.16,3.16,0,0,1-1.18,1A3.79,3.79,0,0,1,633.32,243.14Z"/><path class="cls-3" d="M642.5,234.23v1.13H638v-1.13Zm-3.21-2.09h1.34v8.32a1.68,1.68,0,0,0,.17.84.82.82,0,0,0,.43.38,1.73,1.73,0,0,0,.56.09l.36,0,.23,0,.27,1.2a2.3,2.3,0,0,1-.37.1,2.8,2.8,0,0,1-.63.06,2.63,2.63,0,0,1-1.11-.25,2.13,2.13,0,0,1-.89-.74,2.09,2.09,0,0,1-.36-1.26Z"/><rect class="cls-2" x="24.18" y="511.96" width="142.32" height="79.51" rx="5.9"/><path class="cls-3" d="M72.05,548V536.4h4.06a4.25,4.25,0,0,1,2,.41,2.78,2.78,0,0,1,1.18,1.12,3.27,3.27,0,0,1,.38,1.56,2.56,2.56,0,0,1-.26,1.24,2.24,2.24,0,0,1-.69.77,3.25,3.25,0,0,1-.93.42V542a2.24,2.24,0,0,1,1.07.38,2.64,2.64,0,0,1,.9,1,3.05,3.05,0,0,1,.37,1.56,3.16,3.16,0,0,1-.4,1.57,2.68,2.68,0,0,1-1.25,1.11,5.15,5.15,0,0,1-2.24.41Zm1.41-6.52h2.61a2.55,2.55,0,0,0,1.15-.25,2,2,0,0,0,.82-.71,1.86,1.86,0,0,0,.3-1.06,1.82,1.82,0,0,0-.53-1.31,2.31,2.31,0,0,0-1.7-.53H73.46Zm0,5.27h2.79a2.84,2.84,0,0,0,2-.54,1.69,1.69,0,0,0,.59-1.3,2.08,2.08,0,0,0-.3-1.09,2.17,2.17,0,0,0-.86-.81,2.74,2.74,0,0,0-1.32-.3H73.46Z"/><path class="cls-3" d="M83.62,536.4V548H82.27V536.4Z"/><path class="cls-3" d="M88.64,548.24a3.52,3.52,0,0,1-1.51-.32,2.51,2.51,0,0,1-1.07-.91,2.55,2.55,0,0,1-.4-1.46,2.19,2.19,0,0,1,.3-1.21,2.05,2.05,0,0,1,.78-.74,4.23,4.23,0,0,1,1.1-.4,12.23,12.23,0,0,1,1.21-.21l1.29-.16a2.33,2.33,0,0,0,.73-.18.49.49,0,0,0,.23-.46v0a1.8,1.8,0,0,0-.46-1.31,1.87,1.87,0,0,0-1.38-.47,2.42,2.42,0,0,0-1.51.42,2.54,2.54,0,0,0-.77.9l-1.27-.45a3.15,3.15,0,0,1,.91-1.25,3.57,3.57,0,0,1,1.25-.62,4.94,4.94,0,0,1,2.31-.08,3.15,3.15,0,0,1,1.06.41,2.4,2.4,0,0,1,.86.92,3.57,3.57,0,0,1,.34,1.66V548H91.3v-1.18h-.07a2.26,2.26,0,0,1-.46.61,2.66,2.66,0,0,1-.84.55A3.31,3.31,0,0,1,88.64,548.24Zm.2-1.21a2.7,2.7,0,0,0,1.35-.31,2.23,2.23,0,0,0,.83-.81,2.13,2.13,0,0,0,.28-1v-1.22a.83.83,0,0,1-.38.18c-.19,0-.41.1-.65.14s-.49.08-.73.1l-.56.08a5,5,0,0,0-1,.21,1.64,1.64,0,0,0-.72.45,1.13,1.13,0,0,0-.28.81,1.2,1.2,0,0,0,.52,1.06A2.36,2.36,0,0,0,88.84,547Z"/><path class="cls-3" d="M96.43,542.78V548H95.09V539.3h1.3v1.37h.11a2.6,2.6,0,0,1,.93-1.07,3,3,0,0,1,1.62-.41,3.22,3.22,0,0,1,1.55.36,2.47,2.47,0,0,1,1,1.09,4,4,0,0,1,.37,1.85V548h-1.34v-5.45a2.31,2.31,0,0,0-.53-1.61,1.93,1.93,0,0,0-1.47-.57,2.34,2.34,0,0,0-1.14.27,2,2,0,0,0-.8.82A2.67,2.67,0,0,0,96.43,542.78Z"/><path class="cls-3" d="M104.46,548V536.4h1.34V548Zm1.25-3.18,0-1.66H106l3.81-3.89h1.66l-4.07,4.12h-.11ZM110,548l-3.41-4.32,1-.93,4.16,5.25Z"/><path class="cls-3" d="M43.29,558.5a1.81,1.81,0,0,0-.83-1.34,3.27,3.27,0,0,0-1.79-.47,3.35,3.35,0,0,0-1.35.25,2.06,2.06,0,0,0-.89.68,1.64,1.64,0,0,0-.33,1,1.4,1.4,0,0,0,.23.8,2,2,0,0,0,.57.55,5.6,5.6,0,0,0,.74.36l.71.22,1.19.32c.3.08.64.19,1,.33a4.8,4.8,0,0,1,1.07.57,2.88,2.88,0,0,1,.85.92,2.62,2.62,0,0,1,.34,1.38,3.08,3.08,0,0,1-.49,1.71A3.5,3.5,0,0,1,42.89,567a6,6,0,0,1-4.45,0A3.44,3.44,0,0,1,37,565.91a3.21,3.21,0,0,1-.59-1.68h1.46a1.76,1.76,0,0,0,.44,1.09,2.33,2.33,0,0,0,1,.64,4.15,4.15,0,0,0,1.29.2,3.68,3.68,0,0,0,1.45-.26,2.45,2.45,0,0,0,1-.74,1.75,1.75,0,0,0,.37-1.11,1.33,1.33,0,0,0-.32-.94,2.43,2.43,0,0,0-.85-.59,8.45,8.45,0,0,0-1.14-.4l-1.44-.41a5.39,5.39,0,0,1-2.15-1.12,2.45,2.45,0,0,1-.8-1.9,2.85,2.85,0,0,1,.53-1.71,3.53,3.53,0,0,1,1.43-1.14,4.89,4.89,0,0,1,2-.4,4.73,4.73,0,0,1,2,.4,3.53,3.53,0,0,1,1.39,1.09,2.75,2.75,0,0,1,.54,1.57Z"/><path class="cls-3" d="M46.94,567.23V558.5h1.3v1.37h.11a2.23,2.23,0,0,1,.89-1.09,2.62,2.62,0,0,1,1.45-.39,2.55,2.55,0,0,1,1.45.39,2.64,2.64,0,0,1,.9,1.09h.09a2.6,2.6,0,0,1,1-1.08,3.08,3.08,0,0,1,1.61-.4,2.59,2.59,0,0,1,1.91.73,3.06,3.06,0,0,1,.75,2.27v5.84H57.06v-5.84a1.67,1.67,0,0,0-.53-1.38,1.93,1.93,0,0,0-1.24-.41,1.83,1.83,0,0,0-1.43.55,2,2,0,0,0-.51,1.4v5.68H52v-6a1.6,1.6,0,0,0-.48-1.2,1.76,1.76,0,0,0-1.25-.45,1.84,1.84,0,0,0-1,.27,2.16,2.16,0,0,0-.73.77,2.34,2.34,0,0,0-.27,1.14v5.45Z"/><path class="cls-3" d="M63.42,567.44a3.51,3.51,0,0,1-1.5-.32,2.59,2.59,0,0,1-1.08-.91,2.63,2.63,0,0,1-.4-1.46,2.19,2.19,0,0,1,.3-1.21,2.08,2.08,0,0,1,.79-.74,4.16,4.16,0,0,1,1.09-.4c.4-.09.81-.16,1.21-.21l1.29-.16a2.18,2.18,0,0,0,.73-.18.49.49,0,0,0,.23-.46v0a1.76,1.76,0,0,0-.46-1.31,1.84,1.84,0,0,0-1.38-.47,2.39,2.39,0,0,0-1.5.42,2.45,2.45,0,0,0-.77.9l-1.28-.45a3.06,3.06,0,0,1,.92-1.24,3.36,3.36,0,0,1,1.25-.63,5.19,5.19,0,0,1,1.33-.18,5.07,5.07,0,0,1,1,.1,3.2,3.2,0,0,1,1.07.41,2.38,2.38,0,0,1,.85.92,3.45,3.45,0,0,1,.34,1.66v5.75H66.08v-1.18H66a2.43,2.43,0,0,1-.45.61,2.72,2.72,0,0,1-.85.55A3.27,3.27,0,0,1,63.42,567.44Zm.21-1.21a2.66,2.66,0,0,0,1.34-.31,2.16,2.16,0,0,0,.83-.81,2,2,0,0,0,.28-1v-1.22a.83.83,0,0,1-.37.18c-.19.05-.41.1-.66.14s-.49.08-.72.1l-.57.08a4.75,4.75,0,0,0-1,.21,1.68,1.68,0,0,0-.73.45,1.17,1.17,0,0,0-.27.81,1.2,1.2,0,0,0,.52,1.06A2.31,2.31,0,0,0,63.63,566.23Z"/><path class="cls-3" d="M69.88,567.23V558.5h1.29v1.32h.09a2.11,2.11,0,0,1,.87-1.05,2.5,2.5,0,0,1,1.41-.4h.36l.34,0v1.36l-.31,0a4.06,4.06,0,0,0-.51,0,2.33,2.33,0,0,0-1.13.27,2.05,2.05,0,0,0-.79.73,1.94,1.94,0,0,0-.28,1.05v5.52Z"/><path class="cls-3" d="M80.17,558.5v1.14H75.65V558.5ZM77,556.41h1.34v8.32a1.61,1.61,0,0,0,.17.85.83.83,0,0,0,.43.38,1.69,1.69,0,0,0,.56.09,1.79,1.79,0,0,0,.36,0l.23,0,.27,1.21a2.84,2.84,0,0,1-.38.1,2.65,2.65,0,0,1-.62.06,2.72,2.72,0,0,1-1.11-.25,2.05,2.05,0,0,1-1.25-2Z"/><path class="cls-3" d="M96.24,559.23H94.83a3.08,3.08,0,0,0-.43-1.07,3.23,3.23,0,0,0-.75-.77,3.44,3.44,0,0,0-1-.48,4.08,4.08,0,0,0-1.11-.16,3.49,3.49,0,0,0-1.91.54,3.69,3.69,0,0,0-1.36,1.57,5.8,5.8,0,0,0-.5,2.55,5.74,5.74,0,0,0,.5,2.55,3.66,3.66,0,0,0,1.36,1.58,3.48,3.48,0,0,0,1.91.53,3.73,3.73,0,0,0,1.11-.16,3.17,3.17,0,0,0,1-.47,3.1,3.1,0,0,0,.75-.78,3,3,0,0,0,.43-1.06h1.41a4.79,4.79,0,0,1-.58,1.59,4.33,4.33,0,0,1-1,1.2,4.6,4.6,0,0,1-1.4.75,5.19,5.19,0,0,1-1.65.25,4.84,4.84,0,0,1-2.65-.73,5,5,0,0,1-1.82-2.06,7.91,7.91,0,0,1,0-6.37,5,5,0,0,1,1.82-2.07,4.92,4.92,0,0,1,2.65-.72,5.19,5.19,0,0,1,1.65.25,4.39,4.39,0,0,1,1.4.75,4.29,4.29,0,0,1,1,1.19A4.76,4.76,0,0,1,96.24,559.23Z"/><path class="cls-3" d="M101.88,567.41a3.7,3.7,0,0,1-3.46-2.13,5.89,5.89,0,0,1,0-4.75,3.68,3.68,0,0,1,3.46-2.14,3.66,3.66,0,0,1,3.45,2.14,5.89,5.89,0,0,1,0,4.75,3.67,3.67,0,0,1-3.45,2.13Zm0-1.2a2.25,2.25,0,0,0,1.47-.46,2.66,2.66,0,0,0,.86-1.21,4.54,4.54,0,0,0,.28-1.63,4.62,4.62,0,0,0-.28-1.63,2.69,2.69,0,0,0-.86-1.22,2.25,2.25,0,0,0-1.47-.46,2.3,2.3,0,0,0-1.48.46,2.77,2.77,0,0,0-.86,1.22,4.85,4.85,0,0,0-.28,1.63,4.77,4.77,0,0,0,.28,1.63,2.74,2.74,0,0,0,.86,1.21A2.3,2.3,0,0,0,101.88,566.21Z"/><path class="cls-3" d="M109.22,562v5.25h-1.34V558.5h1.29v1.37h.11a2.56,2.56,0,0,1,.94-1.07,2.89,2.89,0,0,1,1.61-.41,3.2,3.2,0,0,1,1.55.36,2.55,2.55,0,0,1,1,1.09,4.18,4.18,0,0,1,.36,1.85v5.54h-1.34v-5.45a2.27,2.27,0,0,0-.53-1.61,1.91,1.91,0,0,0-1.47-.57,2.37,2.37,0,0,0-1.14.27,2,2,0,0,0-.79.82A2.56,2.56,0,0,0,109.22,562Z"/><path class="cls-3" d="M121,558.5v1.14h-4.53V558.5Zm-3.21-2.09h1.34v8.32a1.72,1.72,0,0,0,.17.85.83.83,0,0,0,.43.38,1.92,1.92,0,0,0,.92.06l.23,0,.27,1.21a2.48,2.48,0,0,1-.38.1,2.65,2.65,0,0,1-.62.06,2.76,2.76,0,0,1-1.11-.25,2.09,2.09,0,0,1-1.25-2Z"/><path class="cls-3" d="M123.06,567.23V558.5h1.29v1.32h.09a2.11,2.11,0,0,1,.87-1.05,2.5,2.5,0,0,1,1.41-.4h.37l.33,0v1.36l-.31,0a4.06,4.06,0,0,0-.51,0,2.33,2.33,0,0,0-1.13.27,2,2,0,0,0-.78.73,1.86,1.86,0,0,0-.29,1.05v5.52Z"/><path class="cls-3" d="M131.58,567.44a3.58,3.58,0,0,1-1.51-.32,2.57,2.57,0,0,1-1.07-.91,2.63,2.63,0,0,1-.4-1.46,2.19,2.19,0,0,1,.3-1.21,2.08,2.08,0,0,1,.79-.74,4.16,4.16,0,0,1,1.09-.4,12.23,12.23,0,0,1,1.21-.21l1.29-.16a2.25,2.25,0,0,0,.73-.18.49.49,0,0,0,.23-.46v0a1.76,1.76,0,0,0-.46-1.31,1.84,1.84,0,0,0-1.38-.47,2.44,2.44,0,0,0-1.51.42,2.41,2.41,0,0,0-.76.9l-1.28-.45a3,3,0,0,1,.91-1.24,3.51,3.51,0,0,1,1.25-.63,5.26,5.26,0,0,1,1.34-.18,5.15,5.15,0,0,1,1,.1,3.07,3.07,0,0,1,1.06.41,2.33,2.33,0,0,1,.86.92,3.45,3.45,0,0,1,.34,1.66v5.75h-1.34v-1.18h-.07a2.43,2.43,0,0,1-.45.61,2.84,2.84,0,0,1-.85.55A3.27,3.27,0,0,1,131.58,567.44Zm.2-1.21a2.67,2.67,0,0,0,1.35-.31,2.23,2.23,0,0,0,.83-.81,2,2,0,0,0,.28-1v-1.22a.83.83,0,0,1-.37.18c-.19.05-.41.1-.66.14s-.49.08-.72.1l-.57.08a4.75,4.75,0,0,0-1,.21,1.68,1.68,0,0,0-.73.45,1.17,1.17,0,0,0-.28.81,1.22,1.22,0,0,0,.52,1.06A2.36,2.36,0,0,0,131.78,566.23Z"/><path class="cls-3" d="M141.58,567.41a3.68,3.68,0,0,1-3.48-2.17,5.42,5.42,0,0,1-.47-2.33,5.34,5.34,0,0,1,.49-2.35,3.74,3.74,0,0,1,1.37-1.59,3.66,3.66,0,0,1,2.07-.58,3.91,3.91,0,0,1,1.66.34,3.27,3.27,0,0,1,1.21,1,2.94,2.94,0,0,1,.58,1.43h-1.34a2.09,2.09,0,0,0-.68-1.06,2,2,0,0,0-1.41-.46,2.35,2.35,0,0,0-1.37.4,2.69,2.69,0,0,0-.92,1.14,4.92,4.92,0,0,0,0,3.49,2.61,2.61,0,0,0,.91,1.16,2.3,2.3,0,0,0,1.38.42,2.44,2.44,0,0,0,.95-.18,2,2,0,0,0,.72-.53,1.9,1.9,0,0,0,.42-.81H145a3.08,3.08,0,0,1-.56,1.39,3.18,3.18,0,0,1-1.17,1A3.83,3.83,0,0,1,141.58,567.41Z"/><path class="cls-3" d="M150.76,558.5v1.14h-4.52V558.5Zm-3.2-2.09h1.34v8.32a1.61,1.61,0,0,0,.17.85.83.83,0,0,0,.43.38,1.69,1.69,0,0,0,.56.09,1.73,1.73,0,0,0,.36,0l.23,0,.27,1.21a2.84,2.84,0,0,1-.38.1,2.65,2.65,0,0,1-.62.06,2.72,2.72,0,0,1-1.11-.25,2.05,2.05,0,0,1-1.25-2Z"/><rect class="cls-4" x="0.5" y="219.3" width="97.8" height="37.67" rx="5.9"/><rect class="cls-1" x="0.5" y="332.33" width="97.8" height="37.67" rx="5.9"/><rect class="cls-2" x="0.5" y="283.4" width="136.95" height="37.72" rx="5.9"/><path class="cls-3" d="M23.59,299.07H22.18a3.08,3.08,0,0,0-.43-1.07,3.23,3.23,0,0,0-.75-.77,3.44,3.44,0,0,0-1-.48,4,4,0,0,0-1.11-.16,3.49,3.49,0,0,0-1.91.54,3.7,3.7,0,0,0-1.36,1.57,5.8,5.8,0,0,0-.5,2.55,5.74,5.74,0,0,0,.5,2.55A3.73,3.73,0,0,0,17,305.38a3.56,3.56,0,0,0,1.91.53,3.68,3.68,0,0,0,1.11-.16,3.17,3.17,0,0,0,1-.47,3.1,3.1,0,0,0,.75-.78,3,3,0,0,0,.43-1.06h1.41A4.58,4.58,0,0,1,23,305a4.46,4.46,0,0,1-1,1.2,4.59,4.59,0,0,1-1.4.74,5,5,0,0,1-1.66.26,4.84,4.84,0,0,1-2.65-.73,5,5,0,0,1-1.82-2.06,7.91,7.91,0,0,1,0-6.37A5,5,0,0,1,16.26,296a4.92,4.92,0,0,1,2.65-.72,5.29,5.29,0,0,1,1.66.25,4.62,4.62,0,0,1,1.4.75,4.42,4.42,0,0,1,1,1.19A4.56,4.56,0,0,1,23.59,299.07Z"/><path class="cls-3" d="M28.25,307.28a3.58,3.58,0,0,1-1.51-.32,2.47,2.47,0,0,1-1.47-2.37,2.19,2.19,0,0,1,.3-1.21,2.08,2.08,0,0,1,.79-.74,4.16,4.16,0,0,1,1.09-.4,12.23,12.23,0,0,1,1.21-.21l1.29-.16a2.25,2.25,0,0,0,.73-.18.49.49,0,0,0,.23-.46v0a1.76,1.76,0,0,0-.46-1.31,1.84,1.84,0,0,0-1.38-.47,2.44,2.44,0,0,0-1.51.42,2.41,2.41,0,0,0-.76.9l-1.28-.45a3.15,3.15,0,0,1,.91-1.25,3.66,3.66,0,0,1,1.25-.62,5.26,5.26,0,0,1,1.34-.18,5.15,5.15,0,0,1,1,.1,3.07,3.07,0,0,1,1.06.41,2.33,2.33,0,0,1,.86.92,3.42,3.42,0,0,1,.34,1.66v5.75H30.91v-1.18h-.07a2.43,2.43,0,0,1-.45.61,2.84,2.84,0,0,1-.85.55A3.27,3.27,0,0,1,28.25,307.28Zm.2-1.21a2.67,2.67,0,0,0,1.35-.31,2.23,2.23,0,0,0,.83-.81,2,2,0,0,0,.28-1v-1.22a.83.83,0,0,1-.37.18c-.19.05-.41.1-.66.14s-.49.08-.72.1l-.57.08a4.75,4.75,0,0,0-1,.21,1.68,1.68,0,0,0-.73.45,1.17,1.17,0,0,0-.28.81,1.22,1.22,0,0,0,.52,1.06A2.36,2.36,0,0,0,28.45,306.07Z"/><path class="cls-3" d="M34.7,307.07v-8.73H36v1.32h.09a2.14,2.14,0,0,1,.86-1.05,2.55,2.55,0,0,1,1.41-.4h.37l.34,0v1.36l-.31,0a4.06,4.06,0,0,0-.51,0,2.33,2.33,0,0,0-1.13.27,2,2,0,0,0-.79.72,2,2,0,0,0-.28,1.06v5.52Z"/><path class="cls-3" d="M43.93,307.25a3.73,3.73,0,0,1-2.07-.56,3.87,3.87,0,0,1-1.39-1.57,6,6,0,0,1,0-4.75,3.9,3.9,0,0,1,1.39-1.58,4.11,4.11,0,0,1,4.14,0,3.76,3.76,0,0,1,1.39,1.58,5.89,5.89,0,0,1,0,4.75,3.7,3.7,0,0,1-3.46,2.13Zm0-1.2a2.3,2.3,0,0,0,1.48-.46,2.74,2.74,0,0,0,.86-1.21,4.77,4.77,0,0,0,.28-1.63,4.85,4.85,0,0,0-.28-1.63,2.77,2.77,0,0,0-.86-1.22,2.61,2.61,0,0,0-3,0,2.75,2.75,0,0,0-.85,1.22,4.62,4.62,0,0,0-.28,1.63,4.54,4.54,0,0,0,.28,1.63,2.72,2.72,0,0,0,.85,1.21A2.3,2.3,0,0,0,43.93,306.05Z"/><path class="cls-3" d="M51.27,295.44v11.63H49.93V295.44Z"/><path class="cls-3" d="M54.91,295.44v1a3.32,3.32,0,0,1-.17,1,4,4,0,0,1-.49,1,3.66,3.66,0,0,1-.77.85l-.73-.59a6.76,6.76,0,0,0,.62-1.07,2.62,2.62,0,0,0,.27-1.18v-1Z"/><path class="cls-3" d="M61.64,300.3l-1.21.34a2.32,2.32,0,0,0-.33-.59,1.64,1.64,0,0,0-.59-.47,2.08,2.08,0,0,0-1-.19,2.28,2.28,0,0,0-1.34.37,1.09,1.09,0,0,0-.53.93.92.92,0,0,0,.37.78,2.93,2.93,0,0,0,1.13.49l1.3.32a3.55,3.55,0,0,1,1.74.86,2.07,2.07,0,0,1,.58,1.5,2.26,2.26,0,0,1-.43,1.34,2.9,2.9,0,0,1-1.2.93,4.32,4.32,0,0,1-1.78.34,3.89,3.89,0,0,1-2.21-.58A2.52,2.52,0,0,1,55.07,305l1.27-.32a1.78,1.78,0,0,0,.69,1.06,2.32,2.32,0,0,0,1.33.35,2.49,2.49,0,0,0,1.5-.4,1.19,1.19,0,0,0,.55-1,1.06,1.06,0,0,0-.32-.77,2.08,2.08,0,0,0-1-.46l-1.45-.34a3.43,3.43,0,0,1-1.76-.88,2.14,2.14,0,0,1-.56-1.51,2.11,2.11,0,0,1,.42-1.3,2.86,2.86,0,0,1,1.14-.9,4.08,4.08,0,0,1,1.65-.32,3.24,3.24,0,0,1,2,.57A3.07,3.07,0,0,1,61.64,300.3Z"/><path class="cls-3" d="M70.61,307.07l-3.18-11.63h1.43l2.44,9.47h.11l2.48-9.47h1.59L78,304.91h.12l2.43-9.47h1.43l-3.18,11.63H77.3l-2.57-9.27h-.09l-2.57,9.27Z"/><path class="cls-3" d="M85.25,307.28a3.55,3.55,0,0,1-1.51-.32,2.47,2.47,0,0,1-1.47-2.37,2.19,2.19,0,0,1,.3-1.21,2,2,0,0,1,.79-.74,4.16,4.16,0,0,1,1.09-.4,12.23,12.23,0,0,1,1.21-.21l1.29-.16a2.25,2.25,0,0,0,.73-.18.49.49,0,0,0,.23-.46v0a1.76,1.76,0,0,0-.46-1.31,1.84,1.84,0,0,0-1.38-.47,2.44,2.44,0,0,0-1.51.42,2.41,2.41,0,0,0-.76.9l-1.28-.45a3.15,3.15,0,0,1,.91-1.25,3.66,3.66,0,0,1,1.25-.62,5.26,5.26,0,0,1,1.34-.18,5.15,5.15,0,0,1,1,.1,3.07,3.07,0,0,1,1.06.41,2.33,2.33,0,0,1,.86.92,3.42,3.42,0,0,1,.34,1.66v5.75H87.91v-1.18h-.07a2.43,2.43,0,0,1-.45.61,2.84,2.84,0,0,1-.85.55A3.27,3.27,0,0,1,85.25,307.28Zm.2-1.21a2.67,2.67,0,0,0,1.35-.31,2.23,2.23,0,0,0,.83-.81,2,2,0,0,0,.28-1v-1.22a.83.83,0,0,1-.37.18c-.19.05-.41.1-.66.14s-.49.08-.72.1l-.57.08a4.75,4.75,0,0,0-1,.21,1.68,1.68,0,0,0-.73.45,1.17,1.17,0,0,0-.28.81,1.22,1.22,0,0,0,.52,1.06A2.36,2.36,0,0,0,85.45,306.07Z"/><path class="cls-3" d="M93.05,295.44v11.63H91.7V295.44Z"/><path class="cls-3" d="M96.84,295.44v11.63H95.5V295.44Z"/><path class="cls-3" d="M103,307.25a4,4,0,0,1-2.17-.56,3.66,3.66,0,0,1-1.4-1.56,5.31,5.31,0,0,1-.49-2.35,5.37,5.37,0,0,1,.49-2.37,3.84,3.84,0,0,1,1.37-1.6,3.66,3.66,0,0,1,2.07-.58,4.15,4.15,0,0,1,1.34.23,3.22,3.22,0,0,1,1.21.73,3.43,3.43,0,0,1,.87,1.35,5.57,5.57,0,0,1,.33,2v.57H99.84V302h5.36a2.78,2.78,0,0,0-.29-1.31,2.18,2.18,0,0,0-.83-.92,2.37,2.37,0,0,0-1.26-.33,2.44,2.44,0,0,0-1.39.39,2.69,2.69,0,0,0-.89,1,3,3,0,0,0-.31,1.35V303a3.66,3.66,0,0,0,.34,1.67,2.37,2.37,0,0,0,1,1,2.75,2.75,0,0,0,1.42.36,2.85,2.85,0,0,0,1-.15,1.89,1.89,0,0,0,.74-.46,2.08,2.08,0,0,0,.49-.75l1.29.36a2.67,2.67,0,0,1-.69,1.15,3.29,3.29,0,0,1-1.19.78A4.44,4.44,0,0,1,103,307.25Z"/><path class="cls-3" d="M112.41,298.34v1.14h-4.52v-1.14Zm-3.21-2.09h1.35v8.32a1.73,1.73,0,0,0,.16.85.87.87,0,0,0,.43.38,1.77,1.77,0,0,0,.56.09,1.9,1.9,0,0,0,.37,0l.23,0,.27,1.21-.38.1a2.78,2.78,0,0,1-1.73-.19,2.22,2.22,0,0,1-.9-.74,2.13,2.13,0,0,1-.36-1.26Z"/><path class="cls-3" d="M123,295.44v11.63h-1.41V296.91h-.07l-2.84,1.89v-1.43l2.91-1.93Z"/><rect class="cls-4" x="0.5" y="332.33" width="97.8" height="37.67" rx="5.9"/><path class="cls-6" d="M102.32,125.12h45.44a10.37,10.37,0,0,1,10.37,10.37v16.93a10.37,10.37,0,0,0,10.37,10.37h37.26"/><path class="cls-6" d="M102.32,351.16h45.44a10.37,10.37,0,0,0,10.37-10.37V323.86a10.37,10.37,0,0,1,10.37-10.37h37.26"/><path class="cls-6" d="M403.9,313.49h33.16a10.37,10.37,0,0,0,10.37-10.37V248.51a10.37,10.37,0,0,1,10.37-10.37h4.63"/><path class="cls-6" d="M403.9,162.79h33.16a10.37,10.37,0,0,1,10.37,10.37v54.61a10.37,10.37,0,0,0,10.37,10.37h4.63"/><line class="cls-6" x1="403.9" y1="238.14" x2="464.21" y2="238.14"/><polygon class="cls-5" points="460.89 242.23 460.21 241.5 463.82 238.14 460.21 234.78 460.89 234.05 465.29 238.14 460.89 242.23"/><line class="cls-6" x1="102.32" y1="238.14" x2="205.76" y2="238.14"/><path d="M19.93,243.11a3.44,3.44,0,0,1-2.19-.7,4.35,4.35,0,0,1-1.38-2,11.11,11.11,0,0,1,0-6.46,4.34,4.34,0,0,1,1.39-2,3.69,3.69,0,0,1,4.35,0,4.34,4.34,0,0,1,1.39,2,11.11,11.11,0,0,1,0,6.46,4.21,4.21,0,0,1-1.38,2A3.43,3.43,0,0,1,19.93,243.11Zm0-1.25a2.17,2.17,0,0,0,2-1.22,7.12,7.12,0,0,0,.71-3.5,9.17,9.17,0,0,0-.32-2.58,3.72,3.72,0,0,0-.92-1.62,2,2,0,0,0-1.44-.55,2.19,2.19,0,0,0-2,1.24,7.19,7.19,0,0,0-.71,3.51,9.15,9.15,0,0,0,.32,2.57,3.44,3.44,0,0,0,.92,1.6A2,2,0,0,0,19.93,241.86Z"/><path d="M27.15,234.23l2.09,3.57,2.09-3.57h1.55l-2.82,4.36L32.88,243H31.33l-2.09-3.39L27.15,243H25.61l2.77-4.37-2.77-4.36Z"/><path d="M38.68,234.23v1.13H34v-1.13ZM35.38,243V233a2.17,2.17,0,0,1,.35-1.25,2.25,2.25,0,0,1,.92-.75,3,3,0,0,1,1.18-.25,3.56,3.56,0,0,1,.81.08l.47.15-.39,1.16-.28-.09a2,2,0,0,0-.47,0,1.24,1.24,0,0,0-1,.34,1.47,1.47,0,0,0-.29,1V243Z"/><path d="M40.54,243v-1l3.84-4.2q.67-.73,1.11-1.29a4.34,4.34,0,0,0,.65-1,2.43,2.43,0,0,0,.22-1,2,2,0,0,0-.29-1.07,2.06,2.06,0,0,0-.8-.69,2.64,2.64,0,0,0-1.14-.24,2.41,2.41,0,0,0-1.17.27,2,2,0,0,0-.77.77,2.51,2.51,0,0,0-.26,1.16H40.58a3.3,3.3,0,0,1,.48-1.79,3.24,3.24,0,0,1,1.28-1.21,3.87,3.87,0,0,1,1.84-.43,3.7,3.7,0,0,1,1.81.43,3.32,3.32,0,0,1,1.24,1.17,3,3,0,0,1,.45,1.63,3.39,3.39,0,0,1-.24,1.25,5.35,5.35,0,0,1-.79,1.36c-.38.5-.9,1.1-1.57,1.82l-2.61,2.79v.1h5.41V243Z"/><path d="M50.43,243V231.32h1.34v4.29h.11l.41-.58a2.44,2.44,0,0,1,.76-.63,2.71,2.71,0,0,1,1.35-.29,3.48,3.48,0,0,1,2,.56,3.62,3.62,0,0,1,1.31,1.56,6.31,6.31,0,0,1,0,4.78,3.71,3.71,0,0,1-1.31,1.57,3.41,3.41,0,0,1-1.92.56,2.85,2.85,0,0,1-1.35-.28,2.46,2.46,0,0,1-.78-.65q-.27-.36-.42-.6h-.16V243Zm1.31-4.37a4.88,4.88,0,0,0,.29,1.74,2.63,2.63,0,0,0,.85,1.18,2.2,2.2,0,0,0,1.36.42,2.26,2.26,0,0,0,1.41-.44,2.69,2.69,0,0,0,.85-1.21,4.75,4.75,0,0,0,.29-1.69,4.81,4.81,0,0,0-.28-1.66,2.65,2.65,0,0,0-.85-1.18,2.53,2.53,0,0,0-2.79,0,2.56,2.56,0,0,0-.84,1.15A4.71,4.71,0,0,0,51.74,238.59Z"/><path d="M64,243.11a3.44,3.44,0,0,1-2.19-.7,4.35,4.35,0,0,1-1.38-2,11.11,11.11,0,0,1,0-6.46,4.34,4.34,0,0,1,1.39-2,3.7,3.7,0,0,1,4.36,0,4.4,4.4,0,0,1,1.38,2,9.6,9.6,0,0,1,.48,3.23,9.88,9.88,0,0,1-.47,3.23,4.35,4.35,0,0,1-1.38,2A3.48,3.48,0,0,1,64,243.11Zm0-1.25a2.18,2.18,0,0,0,2-1.22,7.13,7.13,0,0,0,.7-3.5,9.17,9.17,0,0,0-.32-2.58,3.72,3.72,0,0,0-.92-1.62,2,2,0,0,0-1.44-.55,2.17,2.17,0,0,0-2,1.24,7.08,7.08,0,0,0-.71,3.51,9.18,9.18,0,0,0,.31,2.57,3.53,3.53,0,0,0,.92,1.6A2,2,0,0,0,64,241.86Z"/><path d="M73.72,243.14A3.67,3.67,0,0,1,70.24,241a5.52,5.52,0,0,1-.47-2.32,5.31,5.31,0,0,1,.49-2.35,3.9,3.9,0,0,1,1.37-1.6,3.74,3.74,0,0,1,2.07-.58,3.92,3.92,0,0,1,1.66.35,3.15,3.15,0,0,1,1.21.95,3,3,0,0,1,.58,1.43H75.81a2.09,2.09,0,0,0-.68-1.06,2,2,0,0,0-1.41-.46,2.29,2.29,0,0,0-1.37.41,2.69,2.69,0,0,0-.92,1.14,4.89,4.89,0,0,0,0,3.48,2.62,2.62,0,0,0,.91,1.17,2.37,2.37,0,0,0,1.38.41,2.4,2.4,0,0,0,1-.18,1.93,1.93,0,0,0,1.14-1.34h1.34a3,3,0,0,1-.56,1.39,3.12,3.12,0,0,1-1.17,1A3.83,3.83,0,0,1,73.72,243.14Z"/><path d="M19.93,356.62a3.44,3.44,0,0,1-2.19-.7,4.35,4.35,0,0,1-1.38-2,11.11,11.11,0,0,1,0-6.46,4.34,4.34,0,0,1,1.39-2,3.69,3.69,0,0,1,4.35,0,4.34,4.34,0,0,1,1.39,2,11.11,11.11,0,0,1,0,6.46,4.21,4.21,0,0,1-1.38,2A3.43,3.43,0,0,1,19.93,356.62Zm0-1.25a2.17,2.17,0,0,0,2-1.22,7.12,7.12,0,0,0,.71-3.5,9.17,9.17,0,0,0-.32-2.58,3.66,3.66,0,0,0-.92-1.62,2,2,0,0,0-1.44-.55,2.19,2.19,0,0,0-2,1.24,7.19,7.19,0,0,0-.71,3.51,9.1,9.1,0,0,0,.32,2.57,3.44,3.44,0,0,0,.92,1.6A2,2,0,0,0,19.93,355.37Z"/><path d="M27.15,347.74l2.09,3.57,2.09-3.57h1.55l-2.82,4.36,2.82,4.37H31.33l-2.09-3.39-2.09,3.39H25.61l2.77-4.37-2.77-4.36Z"/><path d="M35,356.47V344.83h1.34v4.29h.12c.09-.15.23-.34.41-.58a2.33,2.33,0,0,1,.76-.63,2.71,2.71,0,0,1,1.35-.29,3.45,3.45,0,0,1,1.94.56,3.55,3.55,0,0,1,1.31,1.56,5.49,5.49,0,0,1,.48,2.38,5.6,5.6,0,0,1-.48,2.41,3.72,3.72,0,0,1-1.3,1.56,3.42,3.42,0,0,1-1.93.56,2.88,2.88,0,0,1-1.35-.28,2.52,2.52,0,0,1-.77-.65,4.89,4.89,0,0,1-.42-.6h-.16v1.35Zm1.32-4.37a4.88,4.88,0,0,0,.29,1.74,2.49,2.49,0,0,0,.85,1.18,2.18,2.18,0,0,0,1.36.42A2.26,2.26,0,0,0,40.2,355a2.77,2.77,0,0,0,.85-1.21,4.76,4.76,0,0,0,.28-1.69,4.59,4.59,0,0,0-.28-1.66,2.63,2.63,0,0,0-.84-1.18,2.26,2.26,0,0,0-1.42-.43,2.3,2.3,0,0,0-1.38.41,2.56,2.56,0,0,0-.84,1.15A4.72,4.72,0,0,0,36.29,352.1Z"/><path d="M44.43,354.08v-1.16l5.11-8.09h.84v1.79h-.57L46,352.74v.09h6.88v1.25Zm5.47,2.39V344.83h1.34v11.64Z"/><path d="M58.65,356.65a4.1,4.1,0,0,1-2.17-.56,3.68,3.68,0,0,1-1.4-1.57,5.28,5.28,0,0,1-.5-2.35,5.43,5.43,0,0,1,.5-2.37,3.83,3.83,0,0,1,1.37-1.6,3.74,3.74,0,0,1,2.07-.58,4.15,4.15,0,0,1,1.34.23,3.25,3.25,0,0,1,1.21.74,3.39,3.39,0,0,1,.87,1.34,5.63,5.63,0,0,1,.33,2.06v.57H55.54V351.4H60.9a2.85,2.85,0,0,0-.29-1.32,2.31,2.31,0,0,0-.83-.92,2.37,2.37,0,0,0-1.26-.33,2.44,2.44,0,0,0-1.39.39,2.68,2.68,0,0,0-.89,1,3,3,0,0,0-.31,1.35v.77a3.73,3.73,0,0,0,.34,1.68,2.48,2.48,0,0,0,1,1,2.85,2.85,0,0,0,1.42.35,2.93,2.93,0,0,0,1-.15,2,2,0,0,0,.74-.45,2.06,2.06,0,0,0,.48-.76l1.3.36a2.92,2.92,0,0,1-.69,1.16,3.27,3.27,0,0,1-1.19.77A4.26,4.26,0,0,1,58.65,356.65Z"/><path d="M67.61,356.65a3.42,3.42,0,0,1-1.93-.56,3.74,3.74,0,0,1-1.31-1.56,5.76,5.76,0,0,1-.47-2.41,5.64,5.64,0,0,1,.47-2.38,3.64,3.64,0,0,1,1.32-1.56,3.43,3.43,0,0,1,1.94-.56,2.71,2.71,0,0,1,1.35.29,2.44,2.44,0,0,1,.76.63c.18.24.31.43.41.58h.12v-4.29h1.34v11.64h-1.3v-1.35h-.16q-.15.24-.42.6a2.46,2.46,0,0,1-.78.65A2.81,2.81,0,0,1,67.61,356.65Zm.18-1.21a2.18,2.18,0,0,0,1.36-.42,2.56,2.56,0,0,0,.85-1.18,4.88,4.88,0,0,0,.29-1.74,4.71,4.71,0,0,0-.29-1.71,2.49,2.49,0,0,0-.84-1.15,2.53,2.53,0,0,0-2.79,0,2.65,2.65,0,0,0-.85,1.18,4.81,4.81,0,0,0-.28,1.66,4.75,4.75,0,0,0,.29,1.69,2.69,2.69,0,0,0,.85,1.21A2.26,2.26,0,0,0,67.79,355.44Z"/><path d="M77.92,344.65a4.08,4.08,0,0,1,1.44.27,3.44,3.44,0,0,1,1.3.89,4.36,4.36,0,0,1,1,1.68,8.47,8.47,0,0,1,.36,2.68,12,12,0,0,1-.29,2.75,6.63,6.63,0,0,1-.84,2,3.85,3.85,0,0,1-1.33,1.25,3.67,3.67,0,0,1-1.77.42,3.9,3.9,0,0,1-1.74-.38,3.38,3.38,0,0,1-1.25-1.09,3.74,3.74,0,0,1-.62-1.62h1.39a2.47,2.47,0,0,0,.74,1.32,2.09,2.09,0,0,0,1.48.52,2.43,2.43,0,0,0,2.13-1.17,6,6,0,0,0,.78-3.33h-.09a3.51,3.51,0,0,1-.75.83,3.33,3.33,0,0,1-1,.53,3.23,3.23,0,0,1-1.13.19,3.55,3.55,0,0,1-1.84-.5,3.8,3.8,0,0,1-1.33-1.37,3.94,3.94,0,0,1-.49-2,4.14,4.14,0,0,1,.48-2,3.75,3.75,0,0,1,1.35-1.42A3.81,3.81,0,0,1,77.92,344.65Zm0,1.25a2.44,2.44,0,0,0-1.28.35,2.65,2.65,0,0,0-.91,1,2.72,2.72,0,0,0-.33,1.34,2.8,2.8,0,0,0,.32,1.32,2.57,2.57,0,0,0,.88.94,2.5,2.5,0,0,0,2.28.14,2.53,2.53,0,0,0,.82-.59,2.91,2.91,0,0,0,.55-.84,2.68,2.68,0,0,0-1-3.26A2.3,2.3,0,0,0,77.92,345.9Z"/><line class="cls-6" x1="187.48" y1="511.95" x2="174.43" y2="511.95"/><polygon class="cls-5" points="177.75 507.86 178.43 508.6 174.82 511.95 178.43 515.31 177.75 516.04 173.35 511.95 177.75 507.86"/><line class="cls-6" x1="396.27" y1="591.47" x2="412.02" y2="591.47"/><polygon class="cls-5" points="408.71 595.56 408.03 594.83 411.64 591.47 408.03 588.11 408.71 587.38 413.11 591.47 408.71 595.56"/><rect class="cls-4" x="192.42" y="493.1" width="198.73" height="37.72" rx="5.9"/><path d="M206.78,516.78v-1l6.27-9.36h-6.34v-1.25h8v1l-6.28,9.37h6.34v1.25Z"/><path d="M220.65,517a4.11,4.11,0,0,1-2.18-.56,3.74,3.74,0,0,1-1.4-1.57,5.28,5.28,0,0,1-.49-2.35,5.43,5.43,0,0,1,.49-2.37,3.9,3.9,0,0,1,1.37-1.6,3.74,3.74,0,0,1,2.07-.58,4.25,4.25,0,0,1,1.35.23,3.41,3.41,0,0,1,1.21.74,3.49,3.49,0,0,1,.86,1.34,5.63,5.63,0,0,1,.33,2.06v.57h-6.73v-1.16h5.37a2.82,2.82,0,0,0-.3-1.32,2.24,2.24,0,0,0-.83-.92,2.6,2.6,0,0,0-2.64.06,2.71,2.71,0,0,0-.9,1,3,3,0,0,0-.31,1.35v.77a3.73,3.73,0,0,0,.34,1.68,2.48,2.48,0,0,0,1,1,2.86,2.86,0,0,0,1.43.35,2.83,2.83,0,0,0,.95-.15,1.92,1.92,0,0,0,.74-.45,2.21,2.21,0,0,0,.49-.76l1.29.36a2.7,2.7,0,0,1-.69,1.16,3.18,3.18,0,0,1-1.19.77A4.21,4.21,0,0,1,220.65,517Z"/><path d="M226.3,516.78v-8.73h1.3v1.32h.09a2.12,2.12,0,0,1,.86-1.06,2.63,2.63,0,0,1,1.41-.4h.71v1.37l-.31-.06a4.12,4.12,0,0,0-.51,0,2.33,2.33,0,0,0-1.13.26,2,2,0,0,0-.79.73,2,2,0,0,0-.28,1.05v5.53Z"/><path d="M235.53,517a3.74,3.74,0,0,1-2.07-.57,3.8,3.8,0,0,1-1.39-1.57,5.29,5.29,0,0,1-.49-2.36,5.35,5.35,0,0,1,.49-2.38,3.83,3.83,0,0,1,6.92,0,5.35,5.35,0,0,1,.5,2.38,5.29,5.29,0,0,1-.5,2.36,3.8,3.8,0,0,1-1.39,1.57A3.74,3.74,0,0,1,235.53,517Zm0-1.21a2.3,2.3,0,0,0,1.48-.46,2.68,2.68,0,0,0,.86-1.21,4.86,4.86,0,0,0,0-3.25,2.75,2.75,0,0,0-.86-1.23,2.61,2.61,0,0,0-3,0,2.73,2.73,0,0,0-.85,1.23,4.86,4.86,0,0,0,0,3.25,2.67,2.67,0,0,0,.85,1.21A2.3,2.3,0,0,0,235.53,515.75Z"/><path d="M246.21,516.78V505.14h1.41v5.77h.14l5.23-5.77h1.84l-4.89,5.25,4.89,6.39h-1.71l-4-5.41L247.62,513v3.78Z"/><path d="M257.8,511.53v5.25h-1.34v-8.73h1.3v1.36h.11a2.6,2.6,0,0,1,.93-1.07,3,3,0,0,1,1.62-.41,3.22,3.22,0,0,1,1.55.36,2.45,2.45,0,0,1,1,1.1,4,4,0,0,1,.37,1.84v5.55H262v-5.46a2.27,2.27,0,0,0-.53-1.6,1.9,1.9,0,0,0-1.47-.58,2.24,2.24,0,0,0-1.14.28,2,2,0,0,0-.8.81A2.74,2.74,0,0,0,257.8,511.53Z"/><path d="M269.37,517a3.74,3.74,0,0,1-2.07-.57,3.87,3.87,0,0,1-1.39-1.57,5.29,5.29,0,0,1-.49-2.36,5.35,5.35,0,0,1,.49-2.38,3.83,3.83,0,0,1,1.39-1.58,4,4,0,0,1,4.14,0,3.7,3.7,0,0,1,1.39,1.58,5.35,5.35,0,0,1,.5,2.38,5.29,5.29,0,0,1-.5,2.36,3.73,3.73,0,0,1-3.46,2.14Zm0-1.21a2.3,2.3,0,0,0,1.48-.46,2.68,2.68,0,0,0,.86-1.21,4.86,4.86,0,0,0,0-3.25,2.75,2.75,0,0,0-.86-1.23,2.61,2.61,0,0,0-3,0,2.73,2.73,0,0,0-.85,1.23,4.86,4.86,0,0,0,0,3.25,2.67,2.67,0,0,0,.85,1.21A2.3,2.3,0,0,0,269.37,515.75Z"/><path d="M277.05,516.78l-2.66-8.73h1.41l1.89,6.68h.09l1.86-6.68h1.44l1.84,6.66H283l1.88-6.66h1.41l-2.66,8.73h-1.31l-1.91-6.71h-.14l-1.91,6.71Z"/><path d="M289.42,505.14v11.64h-1.34V505.14Z"/><path d="M295.53,517a4.1,4.1,0,0,1-2.17-.56,3.77,3.77,0,0,1-1.41-1.57,5.42,5.42,0,0,1-.49-2.35,5.57,5.57,0,0,1,.49-2.37,3.92,3.92,0,0,1,1.38-1.6,3.73,3.73,0,0,1,2.06-.58,4.16,4.16,0,0,1,1.35.23,3.33,3.33,0,0,1,1.21.74,3.5,3.5,0,0,1,.87,1.34,5.64,5.64,0,0,1,.32,2.06v.57h-6.72v-1.16h5.36a3,3,0,0,0-.29-1.32,2.31,2.31,0,0,0-.83-.92,2.38,2.38,0,0,0-1.27-.33,2.43,2.43,0,0,0-1.38.39,2.6,2.6,0,0,0-.89,1,3,3,0,0,0-.32,1.35v.77a3.73,3.73,0,0,0,.35,1.68,2.52,2.52,0,0,0,1,1,2.88,2.88,0,0,0,1.43.35,2.93,2.93,0,0,0,1-.15,1.93,1.93,0,0,0,1.22-1.21l1.3.36a2.92,2.92,0,0,1-.69,1.16,3.27,3.27,0,0,1-1.19.77A4.3,4.3,0,0,1,295.53,517Z"/><path d="M304.49,517a3.42,3.42,0,0,1-1.93-.56,3.71,3.71,0,0,1-1.31-1.57,6.31,6.31,0,0,1,0-4.78,3.57,3.57,0,0,1,1.32-1.56,3.43,3.43,0,0,1,1.94-.56,2.71,2.71,0,0,1,1.35.29,2.44,2.44,0,0,1,.76.63c.18.24.31.43.41.58h.11v-4.29h1.35v11.64h-1.3v-1.35H307q-.15.24-.42.6a2.46,2.46,0,0,1-.78.65A2.84,2.84,0,0,1,304.49,517Zm.18-1.21a2.2,2.2,0,0,0,1.36-.42,2.63,2.63,0,0,0,.85-1.18,4.88,4.88,0,0,0,.29-1.74,4.71,4.71,0,0,0-.29-1.71,2.51,2.51,0,0,0-.84-1.15,2.53,2.53,0,0,0-2.79,0,2.6,2.6,0,0,0-.85,1.18,4.81,4.81,0,0,0-.28,1.66,4.75,4.75,0,0,0,.29,1.69,2.69,2.69,0,0,0,.85,1.21A2.26,2.26,0,0,0,304.67,515.75Z"/><path d="M314.64,520.23A4.93,4.93,0,0,1,313,520a3.51,3.51,0,0,1-1.16-.65,3.38,3.38,0,0,1-.73-.85l1.06-.75.46.55a2.61,2.61,0,0,0,.77.54,3,3,0,0,0,1.27.23,2.86,2.86,0,0,0,1.75-.51,1.87,1.87,0,0,0,.69-1.61v-1.77H317a5.28,5.28,0,0,1-.42.59,2.35,2.35,0,0,1-.77.62,2.84,2.84,0,0,1-1.35.27,3.67,3.67,0,0,1-1.9-.5,3.42,3.42,0,0,1-1.32-1.46,4.93,4.93,0,0,1-.49-2.31,5.46,5.46,0,0,1,.47-2.34,3.73,3.73,0,0,1,1.32-1.55,3.5,3.5,0,0,1,1.94-.55,2.71,2.71,0,0,1,1.35.29,2.42,2.42,0,0,1,.78.63c.18.24.32.43.42.58h.13v-1.38h1.3v9a3,3,0,0,1-.51,1.83,3,3,0,0,1-1.37,1A5.19,5.19,0,0,1,314.64,520.23Zm0-4.8a2.36,2.36,0,0,0,1.36-.37,2.26,2.26,0,0,0,.85-1.06,4.33,4.33,0,0,0,.29-1.66,4.69,4.69,0,0,0-.28-1.66,2.52,2.52,0,0,0-.85-1.13,2.53,2.53,0,0,0-2.79,0,2.59,2.59,0,0,0-.85,1.16,4.57,4.57,0,0,0-.28,1.61,4.24,4.24,0,0,0,.29,1.61,2.27,2.27,0,0,0,2.26,1.48Z"/><path d="M324.53,517a4.1,4.1,0,0,1-2.17-.56,3.77,3.77,0,0,1-1.41-1.57,5.42,5.42,0,0,1-.49-2.35,5.57,5.57,0,0,1,.49-2.37,3.92,3.92,0,0,1,1.38-1.6,3.73,3.73,0,0,1,2.06-.58,4.16,4.16,0,0,1,1.35.23,3.33,3.33,0,0,1,1.21.74,3.5,3.5,0,0,1,.87,1.34,5.64,5.64,0,0,1,.32,2.06v.57h-6.72v-1.16h5.36a3,3,0,0,0-.29-1.32,2.31,2.31,0,0,0-.83-.92,2.38,2.38,0,0,0-1.27-.33,2.43,2.43,0,0,0-1.38.39,2.6,2.6,0,0,0-.89,1,3,3,0,0,0-.32,1.35v.77a3.73,3.73,0,0,0,.35,1.68,2.52,2.52,0,0,0,1,1,2.88,2.88,0,0,0,1.43.35,2.93,2.93,0,0,0,1-.15,1.93,1.93,0,0,0,1.22-1.21l1.3.36a2.92,2.92,0,0,1-.69,1.16,3.27,3.27,0,0,1-1.19.77A4.3,4.3,0,0,1,324.53,517Z"/><path d="M334.87,516.78V505.14h3.93a4.48,4.48,0,0,1,2.24.49,3.09,3.09,0,0,1,1.3,1.33,4,4,0,0,1,.42,1.86,4.11,4.11,0,0,1-.42,1.87,3.14,3.14,0,0,1-1.29,1.34,4.45,4.45,0,0,1-2.22.5H336v-1.25h2.77a3,3,0,0,0,1.51-.33,1.94,1.94,0,0,0,.82-.88,3.13,3.13,0,0,0,0-2.5,1.89,1.89,0,0,0-.83-.87,3.16,3.16,0,0,0-1.52-.31h-2.48v10.39Z"/><path d="M344.85,516.78v-8.73h1.29v1.32h.1a2,2,0,0,1,.86-1.06,2.61,2.61,0,0,1,1.41-.4h.7v1.37l-.31-.06a4.12,4.12,0,0,0-.51,0,2.33,2.33,0,0,0-1.13.26,2,2,0,0,0-.78.73,1.89,1.89,0,0,0-.29,1.05v5.53Z"/><path d="M354.07,517a3.7,3.7,0,0,1-3.45-2.14,5.29,5.29,0,0,1-.5-2.36,5.35,5.35,0,0,1,.5-2.38A3.74,3.74,0,0,1,352,508.5a4.06,4.06,0,0,1,4.15,0,3.74,3.74,0,0,1,1.38,1.58,5.35,5.35,0,0,1,.5,2.38,5.29,5.29,0,0,1-.5,2.36,3.7,3.7,0,0,1-3.46,2.14Zm0-1.21a2.28,2.28,0,0,0,1.48-.46,2.61,2.61,0,0,0,.86-1.21,4.86,4.86,0,0,0,0-3.25,2.67,2.67,0,0,0-.86-1.23,2.59,2.59,0,0,0-2.95,0,2.75,2.75,0,0,0-.86,1.23,4.86,4.86,0,0,0,0,3.25,2.68,2.68,0,0,0,.86,1.21A2.27,2.27,0,0,0,354.07,515.75Z"/><path d="M363.62,517a3.74,3.74,0,0,1-2.07-.57,3.8,3.8,0,0,1-1.39-1.57,5.29,5.29,0,0,1-.49-2.36,5.35,5.35,0,0,1,.49-2.38,3.83,3.83,0,0,1,6.92,0,5.35,5.35,0,0,1,.49,2.38,5.29,5.29,0,0,1-.49,2.36,3.8,3.8,0,0,1-1.39,1.57A3.74,3.74,0,0,1,363.62,517Zm0-1.21a2.3,2.3,0,0,0,1.48-.46,2.68,2.68,0,0,0,.86-1.21,4.86,4.86,0,0,0,0-3.25,2.75,2.75,0,0,0-.86-1.23,2.61,2.61,0,0,0-3,0,2.73,2.73,0,0,0-.85,1.23,4.86,4.86,0,0,0,0,3.25,2.67,2.67,0,0,0,.85,1.21A2.3,2.3,0,0,0,363.62,515.75Z"/><path d="M373.51,508.05v1.13H368.8v-1.13Zm-3.3,8.73v-9.94a2.17,2.17,0,0,1,.35-1.25,2.25,2.25,0,0,1,.92-.75,3,3,0,0,1,1.19-.25,3.53,3.53,0,0,1,.8.08l.47.15-.39,1.16-.28-.09a2,2,0,0,0-.47-.05,1.21,1.21,0,0,0-1,.34,1.47,1.47,0,0,0-.29,1v9.62Z"/><rect class="cls-4" x="192.42" y="572.61" width="198.73" height="37.72" rx="5.9"/><path d="M270.76,596.28V584.65h7v1.25h-5.57v3.93h5v1.25h-5v5.2Z"/><path d="M284.92,592.72v-5.16h1.34v8.72h-1.34v-1.47h-.09a2.86,2.86,0,0,1-1,1.12,2.71,2.71,0,0,1-1.63.47,2.93,2.93,0,0,1-1.46-.36,2.53,2.53,0,0,1-1-1.09,4.21,4.21,0,0,1-.36-1.85v-5.54h1.34V593a2.09,2.09,0,0,0,.54,1.52,1.78,1.78,0,0,0,1.37.57,2.27,2.27,0,0,0,2.25-2.38Z"/><path d="M290.05,591v5.25h-1.34v-8.72H290v1.36h.11a2.6,2.6,0,0,1,.93-1.07,3,3,0,0,1,1.62-.41,3.2,3.2,0,0,1,1.55.36,2.45,2.45,0,0,1,1,1.1,4,4,0,0,1,.37,1.84v5.54h-1.34v-5.45a2.31,2.31,0,0,0-.53-1.61,1.93,1.93,0,0,0-1.47-.57,2.24,2.24,0,0,0-1.14.28,2,2,0,0,0-.8.81A2.7,2.7,0,0,0,290.05,591Z"/><path d="M301.37,596.47a3.38,3.38,0,0,1-1.92-.56,3.64,3.64,0,0,1-1.31-1.57,6.31,6.31,0,0,1,0-4.78,3.64,3.64,0,0,1,1.31-1.57,3.53,3.53,0,0,1,1.95-.55,2.81,2.81,0,0,1,1.34.28,2.5,2.5,0,0,1,.77.64l.41.58H304v-4.29h1.34v11.63h-1.29v-1.34h-.16q-.15.24-.42.6a2.31,2.31,0,0,1-.78.64A2.76,2.76,0,0,1,301.37,596.47Zm.18-1.21a2.21,2.21,0,0,0,1.37-.42,2.6,2.6,0,0,0,.84-1.18,4.67,4.67,0,0,0,.29-1.74,4.72,4.72,0,0,0-.28-1.71,2.51,2.51,0,0,0-.84-1.15,2.53,2.53,0,0,0-2.79,0,2.6,2.6,0,0,0-.85,1.18,4.59,4.59,0,0,0-.28,1.66,4.54,4.54,0,0,0,.29,1.69,2.69,2.69,0,0,0,.85,1.21A2.21,2.21,0,0,0,301.55,595.26Z"/><path d="M314.19,589.51l-1.2.34a2.56,2.56,0,0,0-.34-.59,1.56,1.56,0,0,0-.59-.47,2.08,2.08,0,0,0-1-.19,2.24,2.24,0,0,0-1.33.37,1.07,1.07,0,0,0-.53.93,1,1,0,0,0,.36.79,3.08,3.08,0,0,0,1.14.48l1.29.32a3.64,3.64,0,0,1,1.75.87,2,2,0,0,1,.57,1.49,2.19,2.19,0,0,1-.43,1.34,2.76,2.76,0,0,1-1.2.93,4.28,4.28,0,0,1-1.78.35,4,4,0,0,1-2.21-.58,2.61,2.61,0,0,1-1.11-1.7l1.28-.32a1.78,1.78,0,0,0,.68,1.06,2.28,2.28,0,0,0,1.34.35,2.48,2.48,0,0,0,1.49-.4,1.14,1.14,0,0,0,.55-1,1,1,0,0,0-.31-.76,2.14,2.14,0,0,0-1-.47l-1.46-.34a3.47,3.47,0,0,1-1.76-.88,2.31,2.31,0,0,1-.14-2.81,2.76,2.76,0,0,1,1.14-.89,4,4,0,0,1,1.65-.33,3.29,3.29,0,0,1,2,.57A3.11,3.11,0,0,1,314.19,589.51Z"/><line class="cls-6" x1="410.4" y1="511.95" x2="396.27" y2="511.95"/><line class="cls-6" x1="186.52" y1="591.47" x2="172.39" y2="591.47"/></g></g></svg>